<svg width="200" height="44" viewBox="0 0 200 44" fill="none" xmlns="http://www.w3.org/2000/svg">
<path d="M20.8772 2.89004C22.8676 2.89004 24.858 3.40959 26.632 4.43788L38.8771 11.5493V32.4507L26.632 39.5621C24.858 40.5904 22.8676 41.11 20.8772 41.11C18.8869 41.11 16.8965 40.5904 15.1225 39.5621L2.8882 32.4507V11.5493L15.1333 4.43788C16.9073 3.40959 18.8977 2.89004 20.8772 2.89004ZM20.8881 0C18.3568 0 15.8689 0.671095 13.6838 1.93752L1.43869 9.04895L0 9.88241V11.5493V32.4507V34.1176L1.43869 34.951L13.6838 42.0625C15.8689 43.3289 18.3568 44 20.8881 44C23.4193 44 25.9073 43.3289 28.0923 42.0625L40.3374 34.951L41.7761 34.1176V32.4507V11.5493V9.88241L40.3374 9.04895L28.0815 1.93752C25.9073 0.671095 23.4193 0 20.8881 0Z" fill="#031A35"/>
<path d="M25.2585 12.058C25.172 11.6684 24.9015 10.4669 23.3222 8.18299C22.7922 7.41448 22.208 6.66762 21.5806 5.95323L20.8667 5.14142L20.1528 5.95323C19.5362 6.66762 18.9521 7.41448 18.4112 8.18299C16.8319 10.4669 16.5614 11.6575 16.4749 12.058C16.3559 12.6101 16.291 12.9456 16.291 13.411C16.291 14.6991 16.7562 15.9222 17.6107 16.8315C18.4761 17.7623 19.6227 18.2711 20.8451 18.2711C22.0674 18.2711 23.2249 17.7623 24.0794 16.8315C24.934 15.9114 25.3991 14.6991 25.3991 13.411C25.4424 12.9456 25.3883 12.6209 25.2585 12.058ZM20.0662 12.3286C19.4821 13.1621 19.1359 13.8548 19.017 14.396C18.9521 14.6883 18.9304 14.829 18.9304 15.0238C18.9304 15.1537 18.9412 15.2836 18.9629 15.4027C18.4977 14.8723 18.2273 14.1687 18.2273 13.411C18.2273 13.1404 18.2598 12.9456 18.3571 12.5018C18.5302 11.7008 19.0819 10.6401 19.9797 9.33035C20.2609 8.91903 20.5638 8.51854 20.8775 8.11805C21.1912 8.50772 21.4941 8.91903 21.7753 9.33035C22.6732 10.6292 23.2249 11.7008 23.3979 12.5018C23.4953 12.9456 23.5277 13.1404 23.5277 13.411C23.5277 14.1687 23.2681 14.8723 22.7922 15.4027C22.8138 15.2728 22.8246 15.1537 22.8246 15.0238C22.8246 14.829 22.803 14.6883 22.7381 14.396C22.6191 13.8657 22.2621 13.1621 21.6888 12.3286C21.4833 12.0256 21.2561 11.7333 21.029 11.4519L20.8775 11.257L20.7261 11.4519C20.4989 11.7333 20.2718 12.0256 20.0662 12.3286Z" fill="#031A35"/>
<path d="M35.0047 21.8431C35.0047 21.3777 34.9831 20.9122 34.9398 20.4576L25.3558 21.0638L33.1117 14.7533C32.679 13.9956 32.1706 13.292 31.6081 12.6318L24.1226 20.1221C23.2248 21.0205 23.2248 22.4925 24.1226 23.3909L31.673 30.9462C32.2355 30.2859 32.7331 29.5607 33.1658 28.803L25.3558 22.4492L34.9506 23.0554C34.9831 22.6657 35.0047 22.2544 35.0047 21.8431Z" fill="#031A35"/>
<path d="M19.3308 24.9168L11.6938 32.5586C12.3429 33.1215 13.0568 33.6194 13.8032 34.0631H13.8465L20.2719 26.1507L19.6553 35.9141C20.0664 35.9465 20.4774 35.9682 20.8885 35.9682C21.3644 35.9682 21.8296 35.9465 22.2839 35.9032L21.6673 26.1616L28.0495 34.0199C28.8067 33.5761 29.5098 33.0673 30.1697 32.4937L22.6084 24.9276C21.6998 24.0076 20.2286 24.0076 19.3308 24.9168Z" fill="#031A35"/>
<path d="M17.6536 20.1326L10.1681 12.6423C9.6056 13.3026 9.09719 14.0062 8.6645 14.7639L16.4205 21.0743L6.83639 20.4682C6.79312 20.9228 6.77148 21.3774 6.77148 21.8537C6.77148 22.2758 6.79312 22.6871 6.82557 23.0876L16.4205 22.4814L8.61041 28.8352C9.0431 29.5929 9.54069 30.3073 10.1032 30.9784L17.6536 23.4231C18.5514 22.5031 18.5514 21.031 17.6536 20.1326Z" fill="#031A35"/>
<path d="M118.871 25.3394C117.984 25.9456 117.064 26.1729 115.874 26.1729C113.873 26.1729 112.326 25.5234 112.326 23.7591C112.326 22.9365 112.651 22.2762 113.408 21.5293C113.062 21.0314 112.899 20.7067 112.899 20.0897C112.899 18.3362 114.176 17.4053 116.264 17.4053C116.859 17.4053 117.908 17.4811 118.546 17.7084V19.516C117.767 19.332 117.129 19.2238 116.361 19.2238C115.182 19.2238 114.695 19.5918 114.695 19.9815C114.695 20.5119 115.528 21.302 118.416 22.9798C118.568 22.6442 118.643 22.3736 118.643 22.0381C118.643 21.8107 118.6 21.551 118.546 21.2154H120.147C120.223 21.7025 120.277 22.1355 120.277 22.5035C120.277 23.0447 120.158 23.5534 119.866 24.0622L120.32 24.3328V26.1512L118.871 25.3394ZM114.5 22.7741C114.187 23.1096 114.111 23.1854 114.111 23.3478C114.111 23.8782 114.836 24.3761 116.047 24.3761C116.534 24.3761 116.902 24.3003 117.237 24.257C116.307 23.8132 115.409 23.3694 114.5 22.7741Z" fill="#031A35"/>
<path d="M56.25 23.9537V28.1859H53.1562V15.814H65.7367V18.4767H56.2824V21.291H63.8112V23.9537H56.25Z" fill="#031A35"/>
<path d="M69.7607 28.1859V15.814H72.8645V28.1859H69.7607Z" fill="#031A35"/>
<path d="M87.9663 28.1861L85.2187 24.2678H81.1731V28.1861H78.0469V15.8141H86.798C90.3244 15.8141 91.3845 18.4552 91.3845 20.0247C91.3845 21.2262 90.6489 22.9905 88.5504 23.8132L91.5576 28.1861H87.9663ZM81.1731 18.4769V21.605H85.9975C87.7716 21.605 88.1285 20.6092 88.1285 20.0356C88.1285 19.4835 87.7716 18.4877 85.9975 18.4877H81.1731V18.4769Z" fill="#031A35"/>
<path d="M95.8291 28.1861V15.8141H108.41V18.4552H98.9553V20.5335H106.711V23.1962H98.9553V25.5234H108.41V28.1861H95.8291Z" fill="#031A35"/>
<path d="M139.64 27.2339C137.866 28.0999 135.605 28.4138 133.615 28.4138C127.785 28.4138 124.355 25.7294 124.355 22.0275C124.355 18.3473 127.763 15.598 133.55 15.598C135.432 15.598 137.823 15.8903 139.64 16.7995V19.5055C138.645 19.0834 136.633 18.2391 133.745 18.2391C129.429 18.2391 127.676 20.1225 127.676 22.0059C127.676 23.8676 129.364 25.7727 133.81 25.7727C136.914 25.7727 138.883 24.8635 139.64 24.5279V27.2339Z" fill="#031A35"/>
<path d="M155.877 28.1862V23.1313H147.19V28.1862H144.086V15.8142H147.19V20.4686H155.877V15.8142H158.981V28.1862H155.877Z" fill="#031A35"/>
<path d="M164.152 28.1863V15.8143H167.256V28.1863H164.152Z" fill="#031A35"/>
<path d="M172.438 28.1862V15.8142H175.542V25.5451H184.336V28.1862H172.438Z" fill="#031A35"/>
<path d="M188.102 28.1863V15.8143H191.206V25.5452H200.001V28.1863H188.102Z" fill="#031A35"/>
</svg>
