<svg width="232" height="51" viewBox="0 0 232 51" fill="none" xmlns="http://www.w3.org/2000/svg">
<path d="M24.1315 3.44397C26.4321 3.44397 28.7327 4.04362 30.7832 5.23044L44.937 13.4382V37.5617L30.7832 45.7695C28.7327 46.9563 26.4321 47.556 24.1315 47.556C21.8309 47.556 19.5302 46.9563 17.4797 45.7695L3.33839 37.5617V13.4382L17.4922 5.23044C19.5427 4.04362 21.8434 3.44397 24.1315 3.44397ZM24.144 0.108398C21.2182 0.108398 18.3424 0.882951 15.8167 2.34461L1.66295 10.5524L0 11.5143V13.4382V37.5617V39.4856L1.66295 40.4476L15.8167 48.6553C18.3424 50.117 21.2182 50.8915 24.144 50.8915C27.0698 50.8915 29.9455 50.117 32.4712 48.6553L46.625 40.4476L48.2879 39.4856V37.5617V13.4382V11.5143L46.625 10.5524L32.4587 2.34461C29.9455 0.882951 27.0698 0.108398 24.144 0.108398Z" fill="#FF5B00"/>
<path d="M29.1954 14.0254C29.0953 13.5756 28.7827 12.1889 26.9573 9.55295C26.3446 8.66596 25.6694 7.80396 24.9442 6.97944L24.119 6.04248L23.2938 6.97944C22.5811 7.80396 21.9059 8.66596 21.2807 9.55295C19.4552 12.1889 19.1427 13.5631 19.0426 14.0254C18.9051 14.6625 18.8301 15.0498 18.8301 15.587C18.8301 17.0736 19.3677 18.4853 20.3555 19.5347C21.3558 20.6091 22.6811 21.1962 24.094 21.1962C25.5069 21.1962 26.8447 20.6091 27.8325 19.5347C28.8203 18.4728 29.3579 17.0736 29.3579 15.587C29.4079 15.0498 29.3454 14.675 29.1954 14.0254ZM23.1937 14.3377C22.5186 15.2996 22.1185 16.0992 21.9809 16.7238C21.9059 17.0611 21.8809 17.2235 21.8809 17.4484C21.8809 17.5983 21.8934 17.7482 21.9184 17.8856C21.3808 17.2735 21.0682 16.4615 21.0682 15.587C21.0682 15.2746 21.1057 15.0498 21.2182 14.5376C21.4183 13.6131 22.0559 12.3888 23.0937 10.8772C23.4188 10.4025 23.7689 9.94023 24.1315 9.47799C24.4941 9.92773 24.8442 10.4025 25.1693 10.8772C26.2071 12.3763 26.8447 13.6131 27.0448 14.5376C27.1573 15.0498 27.1948 15.2746 27.1948 15.587C27.1948 16.4615 26.8947 17.2735 26.3446 17.8856C26.3696 17.7357 26.3821 17.5983 26.3821 17.4484C26.3821 17.2235 26.3571 17.0611 26.2821 16.7238C26.1445 16.1117 25.7319 15.2996 25.0693 14.3377C24.8317 13.9879 24.5691 13.6506 24.3065 13.3258L24.1315 13.1009L23.9565 13.3258C23.6939 13.6506 23.4313 13.9879 23.1937 14.3377Z" fill="#FF5B00"/>
<path d="M40.4622 25.3188C40.4622 24.7817 40.4372 24.2445 40.3872 23.7198L29.3092 24.4194L38.2741 17.1361C37.774 16.2616 37.1863 15.4496 36.5361 14.6875L27.8838 23.3325C26.846 24.3694 26.846 26.0684 27.8838 27.1053L36.6111 35.8253C37.2613 35.0632 37.8365 34.2262 38.3366 33.3517L29.3092 26.0184L40.3997 26.718C40.4372 26.2683 40.4622 25.7936 40.4622 25.3188Z" fill="#031A35"/>
<path d="M22.3449 28.8668L13.5176 37.6867C14.2678 38.3363 15.093 38.911 15.9557 39.4232H16.0057L23.4327 30.291L22.72 41.5594C23.1952 41.5969 23.6703 41.6219 24.1454 41.6219C24.6956 41.6219 25.2332 41.5969 25.7584 41.547L25.0457 30.3035L32.4226 39.3732C33.2979 38.861 34.1106 38.2738 34.8733 37.6117L26.1335 28.8793C25.0832 27.8174 23.3827 27.8174 22.3449 28.8668Z" fill="#031A35"/>
<path d="M20.4065 23.345L11.7542 14.7C11.104 15.4621 10.5163 16.2741 10.0162 17.1486L18.9811 24.4319L7.90315 23.7323C7.85313 24.257 7.82812 24.7817 7.82812 25.3314C7.82812 25.8186 7.85313 26.2933 7.89064 26.7555L18.9811 26.0559L9.9537 33.3892C10.4538 34.2637 11.029 35.0882 11.6792 35.8628L20.4065 27.1428C21.4443 26.0809 21.4443 24.3819 20.4065 23.345Z" fill="#031A35"/>
<path d="M137.4 29.354C136.375 30.0536 135.312 30.3159 133.937 30.3159C131.624 30.3159 129.836 29.5664 129.836 27.53C129.836 26.5806 130.211 25.8185 131.086 24.9565C130.686 24.3819 130.499 24.0071 130.499 23.295C130.499 21.2712 131.974 20.1968 134.387 20.1968C135.075 20.1968 136.288 20.2842 137.025 20.5466V22.6329C136.125 22.4205 135.387 22.2956 134.5 22.2956C133.137 22.2956 132.574 22.7203 132.574 23.1701C132.574 23.7822 133.537 24.6942 136.875 26.6306C137.05 26.2433 137.138 25.931 137.138 25.5437C137.138 25.2813 137.088 24.9815 137.025 24.5942H138.876C138.963 25.1564 139.026 25.6561 139.026 26.0809C139.026 26.7055 138.888 27.2927 138.551 27.8798L139.076 28.1922V30.2909L137.4 29.354ZM132.349 26.3932C131.987 26.7805 131.899 26.8679 131.899 27.0553C131.899 27.6675 132.737 28.2421 134.137 28.2421C134.7 28.2421 135.125 28.1547 135.512 28.1047C134.437 27.5925 133.399 27.0803 132.349 26.3932Z" fill="#031A35"/>
<path d="M65.0174 27.755V32.6397H61.4414V18.3605H75.9828V21.4337H65.0549V24.6818H73.7572V27.755H65.0174Z" fill="#031A35"/>
<path d="M80.6348 32.6396V18.3604H84.2223V32.6396H80.6348Z" fill="#031A35"/>
<path d="M101.677 32.6396L98.5007 28.1172H93.8244V32.6396H90.2109V18.3604H100.326C104.402 18.3604 105.628 21.4086 105.628 23.22C105.628 24.6067 104.777 26.6431 102.352 27.5925L105.828 32.6396H101.677ZM93.8244 21.4336V25.044H99.4009C101.451 25.044 101.864 23.8947 101.864 23.2325C101.864 22.5954 101.451 21.4461 99.4009 21.4461H93.8244V21.4336Z" fill="#031A35"/>
<path d="M110.766 32.6396V18.3604H125.307V21.4086H114.379V23.8072H123.344V26.8804H114.379V29.5664H125.307V32.6396H110.766Z" fill="#031A35"/>
<path d="M161.406 31.5403C159.355 32.5398 156.742 32.902 154.441 32.902C147.702 32.902 143.738 29.8038 143.738 25.5313C143.738 21.2838 147.677 18.1106 154.366 18.1106C156.542 18.1106 159.305 18.4479 161.406 19.4973V22.6205C160.255 22.1333 157.93 21.1588 154.591 21.1588C149.602 21.1588 147.577 23.3326 147.577 25.5063C147.577 27.6551 149.527 29.8538 154.666 29.8538C158.255 29.8538 160.53 28.8044 161.406 28.4171V31.5403Z" fill="#031A35"/>
<path d="M180.174 32.6396V26.8055H170.133V32.6396H166.545V18.3604H170.133V23.7322H180.174V18.3604H183.762V32.6396H180.174Z" fill="#031A35"/>
<path d="M189.738 32.6396V18.3604H193.326V32.6396H189.738Z" fill="#031A35"/>
<path d="M199.316 32.6396V18.3604H202.905V29.5914H213.07V32.6396H199.316Z" fill="#031A35"/>
<path d="M217.422 32.6396V18.3604H221.01V29.5914H231.176V32.6396H217.422Z" fill="#031A35"/>
</svg>
