<svg width="272" height="286" viewBox="0 0 272 286" fill="none" xmlns="http://www.w3.org/2000/svg">
<path d="M135.869 18.7865C148.816 18.7865 161.763 22.1352 173.308 28.8371L252.961 75.0585V210.946L173.308 257.168C161.763 263.869 148.816 267.218 135.869 267.218C122.922 267.218 109.979 263.869 98.4298 257.168L18.7773 210.946V75.0585L98.4298 28.8371C109.975 22.1352 122.922 18.7865 135.869 18.7865ZM135.874 0C119.398 0 103.194 4.35416 89.0066 12.5874L9.35867 58.8088L0 64.2377V221.762L9.35867 227.191L89.0112 273.413C103.204 281.646 119.407 286 135.878 286C152.349 286 168.553 281.646 182.746 273.413L262.393 227.191L271.752 221.762V64.2377L262.393 58.8088L182.741 12.5874C168.548 4.35416 152.345 0 135.874 0Z" fill="white" fill-opacity="0.15"/>
<path d="M164.362 78.3771C163.794 75.8218 162.069 68.0406 151.783 53.2023C148.32 48.2024 144.519 43.3224 140.483 38.6915L135.871 33.4056L131.258 38.6961C127.222 43.3224 123.417 48.207 119.953 53.2069C109.672 68.0406 107.942 75.8264 107.375 78.3817C106.568 82.0071 106.212 84.1334 106.212 87.15C106.212 95.5493 109.261 103.46 114.801 109.424C120.414 115.461 127.896 118.791 135.871 118.791C143.845 118.791 151.322 115.466 156.936 109.424C162.475 103.46 165.524 95.5493 165.524 87.15C165.524 84.1334 165.164 82.0071 164.357 78.3817L164.362 78.3771ZM130.566 80.1022C126.798 85.5402 124.496 90.0558 123.726 93.529C123.302 95.4386 123.154 96.3426 123.154 97.6249C123.154 98.4644 123.228 99.2992 123.366 100.116C120.336 96.6609 118.615 92.0669 118.615 87.1408C118.615 85.3557 118.827 84.0965 119.469 81.223C120.626 76.0155 124.183 69.0876 130.05 60.6238C131.89 57.967 133.846 55.3333 135.875 52.778C137.909 55.3425 139.865 57.9762 141.696 60.6284C147.563 69.0922 151.119 76.0201 152.277 81.2322C152.918 84.1058 153.13 85.365 153.13 87.15C153.13 92.0761 151.41 96.6701 148.379 100.125C148.522 99.3084 148.592 98.4736 148.592 97.6295C148.592 96.3472 148.439 95.4432 148.015 93.5336C147.245 90.0604 144.943 85.5449 141.175 80.1068C139.828 78.1649 138.384 76.2369 136.876 74.3781L135.871 73.1374L134.865 74.3781C133.361 76.2369 131.913 78.1649 130.566 80.1068V80.1022Z" fill="white" fill-opacity="0.15"/>
<path d="M227.721 141.959C227.721 138.929 227.564 135.94 227.278 132.988L164.904 136.945L215.355 95.95C212.513 91.0469 209.229 86.4391 205.562 82.1633L156.869 130.857C150.997 136.729 150.997 146.249 156.869 152.12L205.996 201.248C209.649 196.93 212.905 192.272 215.719 187.323L164.899 146.027L227.342 149.99C227.573 147.337 227.711 144.662 227.711 141.955L227.721 141.959Z" fill="#BBD6FF"/>
<path d="M125.772 161.955L76.0732 211.654C80.3305 215.307 84.9199 218.578 89.7953 221.41H90.0767L131.861 169.99L127.834 233.444C130.482 233.674 133.162 233.813 135.869 233.813C138.941 233.813 141.976 233.656 144.97 233.361L140.947 169.985L182.478 221.101C187.376 218.209 191.975 214.874 196.237 211.156L147.036 161.955C141.164 156.083 131.644 156.083 125.772 161.955Z" fill="#BBD6FF"/>
<path d="M114.866 130.857L66.1724 82.1633C62.5055 86.4345 59.2214 91.0469 56.3802 95.95L106.831 136.945L44.457 132.988C44.171 135.94 44.0142 138.933 44.0142 141.959C44.0142 144.667 44.1571 147.347 44.3832 149.994L106.831 146.032L56.0112 187.327C58.8294 192.272 62.0812 196.935 65.7342 201.252L114.861 152.125C120.733 146.253 120.733 136.733 114.861 130.862L114.866 130.857Z" fill="#BBD6FF"/>
</svg>
