<svg width="540" height="150" viewBox="0 0 540 150" fill="none" xmlns="http://www.w3.org/2000/svg">
<path d="M540 134.964C540 143.271 533.048 150 524.45 150H15.5703C6.97601 150 0 143.271 0 134.964V15.0557C0 6.75251 6.97601 0 15.5703 0H524.446C533.048 0 539.996 6.75251 539.996 15.0557L540 134.964Z" fill="black"/>
<path d="M120.344 70.9113C120.228 58.3416 130.9 52.2264 131.388 51.9417C125.344 43.35 115.976 42.1761 112.684 42.0825C104.816 41.2752 97.1844 46.6728 93.1764 46.6728C89.0884 46.6728 82.9164 42.1605 76.2644 42.2931C67.7044 42.4218 59.6964 47.2539 55.3044 54.7575C46.2404 70.0572 53.0004 92.5407 61.6844 104.908C66.0284 110.964 71.1044 117.727 77.7484 117.489C84.2484 117.228 86.6764 113.449 94.5204 113.449C102.292 113.449 104.572 117.489 111.348 117.337C118.324 117.228 122.716 111.253 126.908 105.142C131.928 98.1996 133.944 91.3629 134.024 91.0119C133.86 90.9573 120.476 85.977 120.344 70.9113Z" fill="white"/>
<path d="M107.544 33.9471C111.04 29.6844 113.432 23.8851 112.768 18C107.708 18.2184 101.38 21.4125 97.7364 25.5816C94.5124 29.2554 91.6324 35.277 92.3764 40.9398C98.0604 41.3532 103.896 38.1435 107.544 33.9471Z" fill="white"/>
<path d="M196.032 32.7889C196.032 37.3792 194.62 40.8346 191.8 43.1551C189.188 45.2962 185.476 46.3687 180.668 46.3687C178.284 46.3687 176.244 46.2673 174.536 46.0645V20.9836C176.764 20.6326 179.164 20.4532 181.756 20.4532C186.336 20.4532 189.788 21.4243 192.116 23.3665C194.724 25.5622 196.032 28.7017 196.032 32.7889ZM191.612 32.902C191.612 29.9263 190.804 27.6448 189.188 26.0536C187.572 24.4663 185.212 23.6707 182.104 23.6707C180.784 23.6707 179.66 23.7565 178.728 23.9359V43.003C179.244 43.081 180.188 43.1161 181.56 43.1161C184.768 43.1161 187.244 42.2464 188.988 40.507C190.732 38.7676 191.612 36.2326 191.612 32.902Z" fill="white"/>
<path d="M219.469 36.7981C219.469 39.6256 218.64 41.9422 216.984 43.7596C215.248 45.6277 212.949 46.5598 210.076 46.5598C207.308 46.5598 205.104 45.6667 203.46 43.8727C201.82 42.0826 201 39.8245 201 37.1023C201 34.2553 201.844 31.9192 203.54 30.1057C205.236 28.2922 207.516 27.3835 210.388 27.3835C213.156 27.3835 215.38 28.2766 217.064 30.0667C218.664 31.8061 219.469 34.0525 219.469 36.7981ZM215.12 36.9307C215.12 35.2342 214.745 33.7795 213.997 32.5666C213.117 31.1002 211.865 30.367 210.237 30.367C208.553 30.367 207.272 31.1002 206.392 32.5666C205.64 33.7795 205.268 35.2576 205.268 37.0048C205.268 38.7013 205.644 40.156 206.392 41.3689C207.3 42.8353 208.564 43.5685 210.196 43.5685C211.796 43.5685 213.052 42.8236 213.956 41.3299C214.732 40.0936 215.12 38.6272 215.12 36.9307Z" fill="white"/>
<path d="M250.892 27.7579L244.992 46.1425H241.152L238.708 38.1592C238.088 36.1663 237.584 34.1851 237.192 32.2195H237.116C236.752 34.2397 236.248 36.217 235.6 38.1592L233.004 46.1425H229.12L223.572 27.7579H227.88L230.012 36.4978C230.528 38.5648 230.952 40.5343 231.292 42.3985H231.368C231.68 40.8619 232.196 38.9041 232.924 36.5368L235.6 27.7618H239.016L241.58 36.3496C242.2 38.4439 242.704 40.4602 243.092 42.4024H243.208C243.492 40.5109 243.92 38.4946 244.488 36.3496L246.776 27.7618H250.892V27.7579Z" fill="white"/>
<path d="M272.624 46.1425H268.432V35.6125C268.432 32.3677 267.168 30.7453 264.632 30.7453C263.388 30.7453 262.384 31.1899 261.604 32.083C260.832 32.9761 260.44 34.0291 260.44 35.2342V46.1386H256.248V33.0112C256.248 31.3966 256.196 29.6455 256.096 27.7501H259.78L259.976 30.6244H260.092C260.58 29.7313 261.308 28.9942 262.264 28.4053C263.4 27.7189 264.672 27.3718 266.064 27.3718C267.824 27.3718 269.288 27.9256 270.452 29.0371C271.9 30.3982 272.624 32.4301 272.624 35.1289V46.1425V46.1425Z" fill="white"/>
<path d="M284.184 46.1424H279.996V19.3221H284.184V46.1424Z" fill="white"/>
<path d="M308.865 36.7981C308.865 39.6256 308.036 41.9422 306.38 43.7596C304.644 45.6277 302.341 46.5598 299.473 46.5598C296.701 46.5598 294.496 45.6667 292.856 43.8727C291.216 42.0826 290.396 39.8245 290.396 37.1023C290.396 34.2553 291.24 31.9192 292.936 30.1057C294.632 28.2922 296.912 27.3835 299.78 27.3835C302.552 27.3835 304.772 28.2766 306.46 30.0667C308.06 31.8061 308.865 34.0525 308.865 36.7981ZM304.512 36.9307C304.512 35.2342 304.136 33.7795 303.388 32.5666C302.512 31.1002 301.256 30.367 299.632 30.367C297.944 30.367 296.664 31.1002 295.788 32.5666C295.036 33.7795 294.664 35.2576 294.664 37.0048C294.664 38.7013 295.04 40.156 295.788 41.3689C296.696 42.8353 297.96 43.5685 299.592 43.5685C301.192 43.5685 302.444 42.8236 303.348 41.3299C304.128 40.0936 304.512 38.6272 304.512 36.9307Z" fill="white"/>
<path d="M329.152 46.1425H325.388L325.076 44.0248H324.96C323.672 45.7135 321.836 46.5598 319.452 46.5598C317.672 46.5598 316.232 46.0021 315.148 44.8945C314.164 43.8883 313.672 42.6364 313.672 41.1505C313.672 38.9041 314.632 37.192 316.564 36.0064C318.492 34.8208 321.204 34.2397 324.696 34.267V33.9238C324.696 31.5019 323.392 30.2929 320.78 30.2929C318.92 30.2929 317.28 30.7492 315.864 31.654L315.012 28.9708C316.764 27.9139 318.928 27.3835 321.48 27.3835C326.408 27.3835 328.88 29.9185 328.88 34.9885V41.7589C328.88 43.5958 328.972 45.0583 329.152 46.1425ZM324.8 39.8245V36.9892C320.176 36.9112 317.864 38.1475 317.864 40.6942C317.864 41.6536 318.128 42.3712 318.668 42.8509C319.208 43.3306 319.896 43.5685 320.716 43.5685C321.636 43.5685 322.496 43.2838 323.28 42.7183C324.068 42.1489 324.552 41.4274 324.732 40.5421C324.776 40.3432 324.8 40.1014 324.8 39.8245Z" fill="white"/>
<path d="M352.972 46.1424H349.252L349.056 43.1901H348.94C347.752 45.4365 345.728 46.5597 342.884 46.5597C340.612 46.5597 338.72 45.69 337.22 43.9506C335.72 42.2112 334.972 39.9531 334.972 37.1802C334.972 34.2045 335.784 31.7943 337.416 29.9535C338.996 28.2375 340.932 27.3795 343.236 27.3795C345.768 27.3795 347.54 28.2102 348.548 29.8755H348.628V19.3221H352.824V41.1894C352.824 42.9795 352.872 44.6292 352.972 46.1424ZM348.628 38.3892V35.3238C348.628 34.7934 348.588 34.3644 348.512 34.0368C348.276 33.054 347.768 32.2272 346.996 31.5603C346.216 30.8934 345.276 30.558 344.192 30.558C342.628 30.558 341.404 31.1625 340.504 32.3754C339.612 33.5883 339.16 35.1366 339.16 37.0281C339.16 38.8455 339.588 40.3197 340.448 41.4546C341.356 42.6636 342.58 43.2681 344.112 43.2681C345.488 43.2681 346.588 42.765 347.424 41.7549C348.232 40.8228 348.628 39.6996 348.628 38.3892Z" fill="white"/>
<path d="M388.824 36.7981C388.824 39.6256 387.996 41.9422 386.34 43.7596C384.604 45.6277 382.308 46.5598 379.432 46.5598C376.668 46.5598 374.464 45.6667 372.816 43.8727C371.176 42.0826 370.356 39.8245 370.356 37.1023C370.356 34.2553 371.2 31.9192 372.896 30.1057C374.592 28.2922 376.872 27.3835 379.748 27.3835C382.512 27.3835 384.74 28.2766 386.42 30.0667C388.02 31.8061 388.824 34.0525 388.824 36.7981ZM384.48 36.9307C384.48 35.2342 384.104 33.7795 383.356 32.5666C382.472 31.1002 381.224 30.367 379.592 30.367C377.912 30.367 376.632 31.1002 375.748 32.5666C374.996 33.7795 374.624 35.2576 374.624 37.0048C374.624 38.7013 375 40.156 375.748 41.3689C376.656 42.8353 377.92 43.5685 379.552 43.5685C381.152 43.5685 382.412 42.8236 383.316 41.3299C384.088 40.0936 384.48 38.6272 384.48 36.9307Z" fill="white"/>
<path d="M411.364 46.1425H407.176V35.6125C407.176 32.3677 405.912 30.7453 403.372 30.7453C402.128 30.7453 401.124 31.1899 400.348 32.083C399.572 32.9761 399.184 34.0291 399.184 35.2342V46.1386H394.988V33.0112C394.988 31.3966 394.94 29.6455 394.84 27.7501H398.52L398.716 30.6244H398.832C399.324 29.7313 400.052 28.9942 401.004 28.4053C402.144 27.7189 403.412 27.3718 404.808 27.3718C406.564 27.3718 408.028 27.9256 409.192 29.0371C410.644 30.3982 411.364 32.4301 411.364 35.1289V46.1425V46.1425Z" fill="white"/>
<path d="M439.576 30.8194H434.96V39.7504C434.96 42.0202 435.78 43.1551 437.404 43.1551C438.156 43.1551 438.78 43.0927 439.272 42.964L439.38 46.0645C438.552 46.3687 437.464 46.5208 436.124 46.5208C434.468 46.5208 433.18 46.0294 432.248 45.0466C431.312 44.0638 430.849 42.4102 430.849 40.0897V30.8194H428.093V27.7579H430.849V24.3883L434.956 23.1793V27.754H439.572V30.8194H439.576Z" fill="white"/>
<path d="M461.768 46.1424H457.572V35.6904C457.572 32.3949 456.308 30.7452 453.776 30.7452C451.832 30.7452 450.504 31.7007 449.776 33.6117C449.652 34.0134 449.58 34.5048 449.58 35.082V46.1385H445.392V19.3221H449.58V30.402H449.66C450.98 28.3857 452.872 27.3795 455.324 27.3795C457.06 27.3795 458.496 27.9333 459.636 29.0448C461.056 30.4293 461.768 32.4885 461.768 35.2107V46.1424V46.1424Z" fill="white"/>
<path d="M484.66 36.0804C484.66 36.8136 484.604 37.4298 484.504 37.9329H471.932C471.988 39.7503 472.588 41.1348 473.752 42.0942C474.816 42.9522 476.188 43.3812 477.868 43.3812C479.728 43.3812 481.424 43.0926 482.952 42.5115L483.608 45.3507C481.82 46.1073 479.716 46.4856 477.28 46.4856C474.36 46.4856 472.06 45.6471 470.396 43.9701C468.724 42.2931 467.896 40.0428 467.896 37.2192C467.896 34.4463 468.668 32.1375 470.224 30.2967C471.848 28.3311 474.044 27.3483 476.816 27.3483C479.528 27.3483 481.588 28.3311 482.98 30.2967C484.104 31.8567 484.66 33.7872 484.66 36.0804ZM480.66 35.0235C480.692 33.8106 480.416 32.7654 479.848 31.884C479.12 30.7491 478.012 30.1797 476.512 30.1797C475.144 30.1797 474.028 30.7335 473.176 31.845C472.48 32.7303 472.068 33.7872 471.932 35.0235H480.66Z" fill="white"/>
<path d="M214.412 116.619H205.328L200.352 101.374H183.056L178.316 116.619H169.472L186.608 64.7181H197.192L214.412 116.619ZM198.852 94.9782L194.352 81.4257C193.876 80.0412 192.984 76.7808 191.668 71.6484H191.508C190.984 73.8558 190.14 77.1162 188.98 81.4257L184.56 94.9782H198.852V94.9782Z" fill="white"/>
<path d="M258.48 97.4469C258.48 103.812 256.716 108.843 253.188 112.536C250.028 115.824 246.104 117.466 241.42 117.466C236.364 117.466 232.732 115.695 230.52 112.154H230.36V131.868H221.832V91.515C221.832 87.5136 221.724 83.4069 221.516 79.1949H229.016L229.492 85.1268H229.652C232.496 80.6574 236.812 78.4266 242.604 78.4266C247.132 78.4266 250.912 80.1699 253.936 83.6604C256.968 87.1548 258.48 91.749 258.48 97.4469ZM249.792 97.7511C249.792 94.1085 248.952 91.1055 247.264 88.7421C245.42 86.2773 242.944 85.0449 239.84 85.0449C237.736 85.0449 235.824 85.7313 234.116 87.0846C232.404 88.4496 231.284 90.2319 230.76 92.4393C230.496 93.4689 230.364 94.3113 230.364 94.9743V101.214C230.364 103.937 231.22 106.234 232.932 108.11C234.644 109.985 236.868 110.921 239.604 110.921C242.816 110.921 245.316 109.712 247.104 107.302C248.896 104.888 249.792 101.706 249.792 97.7511Z" fill="white"/>
<path d="M302.628 97.4469C302.628 103.812 300.864 108.843 297.332 112.536C294.176 115.824 290.252 117.466 285.568 117.466C280.512 117.466 276.88 115.695 274.672 112.154H274.512V131.868H265.984V91.515C265.984 87.5136 265.876 83.4069 265.668 79.1949H273.168L273.644 85.1268H273.804C276.644 80.6574 280.96 78.4266 286.756 78.4266C291.28 78.4266 295.06 80.1699 298.092 83.6604C301.112 87.1548 302.628 91.749 302.628 97.4469ZM293.94 97.7511C293.94 94.1085 293.096 91.1055 291.408 88.7421C289.564 86.2773 287.096 85.0449 283.988 85.0449C281.88 85.0449 279.972 85.7313 278.26 87.0846C276.548 88.4496 275.432 90.2319 274.908 92.4393C274.648 93.4689 274.512 94.3113 274.512 94.9743V101.214C274.512 103.937 275.368 106.234 277.072 108.11C278.784 109.982 281.008 110.921 283.752 110.921C286.964 110.921 289.464 109.712 291.252 107.302C293.044 104.888 293.94 101.706 293.94 97.7511Z" fill="white"/>
<path d="M351.988 102.065C351.988 106.479 350.416 110.071 347.26 112.844C343.792 115.874 338.964 117.388 332.76 117.388C327.032 117.388 322.44 116.311 318.964 114.155L320.94 107.224C324.684 109.432 328.792 110.539 333.268 110.539C336.48 110.539 338.98 109.829 340.776 108.418C342.564 107.006 343.456 105.11 343.456 102.747C343.456 100.641 342.72 98.8665 341.244 97.4274C339.776 95.9883 337.324 94.6506 333.9 93.4143C324.58 90.0252 319.924 85.0605 319.924 78.5319C319.924 74.2653 321.556 70.767 324.824 68.0448C328.08 65.3187 332.424 63.9576 337.856 63.9576C342.7 63.9576 346.724 64.7805 349.936 66.4224L347.804 73.2006C344.804 71.6094 341.412 70.8138 337.616 70.8138C334.616 70.8138 332.272 71.5353 330.592 72.9705C329.172 74.2536 328.46 75.8175 328.46 77.67C328.46 79.7214 329.272 81.4179 330.904 82.7517C332.324 83.9841 334.904 85.3179 338.648 86.757C343.228 88.5549 346.592 90.657 348.756 93.0672C350.912 95.4696 351.988 98.4765 351.988 102.065Z" fill="white"/>
<path d="M380.184 85.4349H370.784V103.605C370.784 108.226 372.44 110.535 375.76 110.535C377.284 110.535 378.548 110.407 379.548 110.149L379.784 116.463C378.104 117.076 375.892 117.384 373.152 117.384C369.784 117.384 367.152 116.381 365.252 114.381C363.36 112.376 362.408 109.014 362.408 104.291V85.4271H356.808V79.1871H362.408V72.3348L370.784 69.87V79.1871H380.184V85.4349Z" fill="white"/>
<path d="M422.596 97.599C422.596 103.352 420.908 108.074 417.54 111.768C414.008 115.57 409.32 117.466 403.476 117.466C397.844 117.466 393.36 115.644 390.016 112.002C386.672 108.359 385 103.761 385 98.2191C385 92.4198 386.72 87.6696 390.172 83.9763C393.616 80.2791 398.264 78.4305 404.108 78.4305C409.74 78.4305 414.272 80.2518 417.692 83.8983C420.964 87.4356 422.596 92.0025 422.596 97.599ZM413.748 97.8681C413.748 94.4166 412.992 91.4565 411.46 88.9878C409.672 86.0004 407.116 84.5106 403.804 84.5106C400.376 84.5106 397.772 86.0043 395.984 88.9878C394.452 91.4604 393.696 94.4673 393.696 98.0241C393.696 101.476 394.452 104.436 395.984 106.901C397.828 109.888 400.404 111.378 403.728 111.378C406.984 111.378 409.54 109.857 411.384 106.823C412.956 104.307 413.748 101.316 413.748 97.8681Z" fill="white"/>
<path d="M450.316 86.5074C449.472 86.3553 448.572 86.2773 447.628 86.2773C444.628 86.2773 442.308 87.381 440.676 89.5923C439.256 91.5423 438.544 94.0071 438.544 96.9828V116.619H430.02L430.1 90.9807C430.1 86.6673 429.992 82.74 429.78 79.1988H437.208L437.52 86.3592H437.756C438.656 83.8983 440.076 81.9171 442.02 80.4312C443.92 79.0935 445.972 78.4266 448.184 78.4266C448.972 78.4266 449.684 78.4812 450.316 78.5787V86.5074Z" fill="white"/>
<path d="M488.456 96.1365C488.456 97.6263 488.356 98.8821 488.144 99.9078H462.56C462.66 103.605 463.896 106.433 466.272 108.383C468.428 110.126 471.216 110.999 474.64 110.999C478.428 110.999 481.884 110.411 484.992 109.229L486.328 115.001C482.696 116.545 478.408 117.314 473.46 117.314C467.508 117.314 462.836 115.605 459.436 112.193C456.044 108.78 454.344 104.198 454.344 98.4492C454.344 92.8059 455.924 88.1064 459.088 84.3585C462.4 80.3571 466.876 78.3564 472.508 78.3564C478.04 78.3564 482.228 80.3571 485.072 84.3585C487.324 87.537 488.456 91.4682 488.456 96.1365ZM480.324 93.9798C480.38 91.515 479.824 89.3856 478.668 87.5877C477.192 85.275 474.924 84.1206 471.872 84.1206C469.084 84.1206 466.816 85.2477 465.084 87.5097C463.664 89.3076 462.82 91.4643 462.56 93.9759H480.324V93.9798Z" fill="white"/>
</svg>
