<svg width="5" height="8" viewBox="0 0 5 8" fill="none" xmlns="http://www.w3.org/2000/svg">
<path d="M4.36364 4C4.35936 3.84216 4.3038 3.70688 4.18841 3.58512L0.863325 0.153326C0.765025 0.054115 0.649631 0 0.508592 0C0.222242 0 0 0.234498 0 0.53664C0 0.680947 0.0555605 0.816235 0.15386 0.919955L3.14558 4L0.15386 7.08005C0.0555605 7.18377 0 7.31454 0 7.46336C0 7.7655 0.222242 8 0.508592 8C0.645357 8 0.765025 7.94589 0.863325 7.84667L4.18841 4.41037C4.30808 4.29312 4.36364 4.15784 4.36364 4Z" fill="#031A35"/>
</svg>
