<svg width="679" height="140" viewBox="0 0 679 140" fill="none" xmlns="http://www.w3.org/2000/svg">
<path d="M165.003 0.339993H183.363C187.443 0.339993 190.923 1.77999 193.803 4.65999C196.683 7.53999 198.123 11.02 198.123 15.1V39.4H179.223V18.52C179.223 17.8 178.983 17.26 178.503 16.9C178.143 16.42 177.663 16.18 177.063 16.18H171.483C170.883 16.18 170.343 16.42 169.863 16.9C169.383 17.26 169.143 17.8 169.143 18.52V121.48C169.143 122.2 169.383 122.8 169.863 123.28C170.343 123.64 170.883 123.82 171.483 123.82H177.063C177.663 123.82 178.143 123.64 178.503 123.28C178.983 122.8 179.223 122.2 179.223 121.48V100.6H198.123V124.9C198.123 128.98 196.683 132.46 193.803 135.34C190.923 138.22 187.443 139.66 183.363 139.66H165.003C160.923 139.66 157.443 138.22 154.563 135.34C151.683 132.46 150.243 128.98 150.243 124.9V15.1C150.243 11.02 151.683 7.53999 154.563 4.65999C157.443 1.77999 160.923 0.339993 165.003 0.339993ZM218.054 0.339993H236.414C240.494 0.339993 243.974 1.77999 246.854 4.65999C249.734 7.53999 251.174 11.02 251.174 15.1V124.9C251.174 128.98 249.734 132.46 246.854 135.34C243.974 138.22 240.494 139.66 236.414 139.66H218.054C213.974 139.66 210.494 138.22 207.614 135.34C204.734 132.46 203.294 128.98 203.294 124.9V15.1C203.294 11.02 204.734 7.53999 207.614 4.65999C210.494 1.77999 213.974 0.339993 218.054 0.339993ZM224.534 16.18C223.934 16.18 223.394 16.42 222.914 16.9C222.434 17.26 222.194 17.8 222.194 18.52V121.48C222.194 122.2 222.434 122.8 222.914 123.28C223.394 123.64 223.934 123.82 224.534 123.82H230.114C230.714 123.82 231.194 123.64 231.554 123.28C232.034 122.8 232.274 122.2 232.274 121.48V18.52C232.274 17.8 232.034 17.26 231.554 16.9C231.194 16.42 230.714 16.18 230.114 16.18H224.534ZM256.345 0.339993H275.245V123.82H296.485V139.66H256.345V0.339993ZM296.212 0.339993H329.332C333.412 0.339993 336.892 1.77999 339.772 4.65999C342.652 7.53999 344.092 11.02 344.092 15.1V124.9C344.092 128.98 342.652 132.46 339.772 135.34C336.892 138.22 333.412 139.66 329.332 139.66H296.212V0.339993ZM315.112 16.18V123.82H323.032C323.632 123.82 324.112 123.64 324.472 123.28C324.952 122.8 325.192 122.2 325.192 121.48V18.52C325.192 17.8 324.952 17.26 324.472 16.9C324.112 16.42 323.632 16.18 323.032 16.18H315.112Z" fill="white"/>
<path d="M379.814 0.339993H412.934C417.014 0.339993 420.494 1.77999 423.374 4.65999C426.254 7.53999 427.694 11.02 427.694 15.1V72.16C427.694 76.24 426.254 79.72 423.374 82.6C420.494 85.48 417.014 86.92 412.934 86.92H398.714V139.66H379.814V0.339993ZM398.714 16.18V71.08H406.634C407.234 71.08 407.714 70.9 408.074 70.54C408.554 70.06 408.794 69.52 408.794 68.92V18.52C408.794 17.8 408.554 17.26 408.074 16.9C407.714 16.42 407.234 16.18 406.634 16.18H398.714ZM431.107 0.339993H450.007V123.82H471.247V139.66H431.107V0.339993ZM470.974 0.339993H489.874V121.48C489.874 122.2 490.114 122.8 490.594 123.28C491.074 123.64 491.614 123.82 492.214 123.82H497.794C498.394 123.82 498.874 123.64 499.234 123.28C499.714 122.8 499.954 122.2 499.954 121.48V0.339993H518.854V124.9C518.854 128.98 517.414 132.46 514.534 135.34C511.654 138.22 508.174 139.66 504.094 139.66H485.734C481.654 139.66 478.174 138.22 475.294 135.34C472.414 132.46 470.974 128.98 470.974 124.9V0.339993ZM524.025 0.339993H542.925L553.005 70.9V0.339993H571.905V139.66H553.005L542.925 69.1V139.66H524.025V0.339993ZM591.835 0.339993H610.195C614.275 0.339993 617.755 1.77999 620.635 4.65999C623.515 7.53999 624.955 11.02 624.955 15.1V39.4H606.055V18.52C606.055 17.8 605.815 17.26 605.335 16.9C604.975 16.42 604.495 16.18 603.895 16.18H598.315C597.715 16.18 597.175 16.42 596.695 16.9C596.215 17.26 595.975 17.8 595.975 18.52V121.48C595.975 122.2 596.215 122.8 596.695 123.28C597.175 123.64 597.715 123.82 598.315 123.82H603.895C604.495 123.82 604.975 123.64 605.335 123.28C605.815 122.8 606.055 122.2 606.055 121.48V79.54H599.575V63.52H624.955V124.9C624.955 128.98 623.515 132.46 620.635 135.34C617.755 138.22 614.275 139.66 610.195 139.66H591.835C587.755 139.66 584.275 138.22 581.395 135.34C578.515 132.46 577.075 128.98 577.075 124.9V15.1C577.075 11.02 578.515 7.53999 581.395 4.65999C584.275 1.77999 587.755 0.339993 591.835 0.339993ZM630.126 0.339993H670.266V16.18H649.026V60.82H668.646V76.66H649.026V123.82H670.266V139.66H630.126V0.339993Z" fill="#BBD6FF"/>
<path fill-rule="evenodd" clip-rule="evenodd" d="M23.0339 118.28L59.063 82.625L59.0656 82.625C63.3204 78.4116 70.2208 78.4116 74.4782 82.625L110.147 117.925C107.058 120.594 103.721 122.984 100.171 125.059L70.0618 88.3864L72.9778 133.853C70.8067 134.066 68.6064 134.178 66.3796 134.178C64.4152 134.178 62.4774 134.079 60.5554 133.913L63.4768 88.3864L33.1871 125.279L32.9829 125.279C29.4466 123.246 26.1196 120.901 23.0339 118.28ZM110.144 16.8964L74.115 52.5535L74.1124 52.5535C69.8576 56.767 62.9572 56.767 58.6997 52.5535L23.0312 17.2532C26.1196 14.585 29.4571 12.1949 33.0068 10.1197L63.1136 46.7921L60.1975 1.32542C62.3687 1.11291 64.569 1.0001 66.7957 1.0001C68.7601 1.0001 70.6979 1.0998 72.6199 1.26509L69.7012 46.7895L99.9909 9.89667L100.195 9.89667C103.731 11.93 107.058 14.2754 110.144 16.8964ZM2.1096e-05 67.4081C2.09061e-05 69.5804 0.114004 71.7265 0.320776 73.8464L45.5406 71.005L8.96552 100.415C11.0253 103.931 13.4032 107.239 16.0648 110.306L51.3621 75.3707C55.6196 71.1572 55.6196 64.328 51.3621 60.1172L15.7466 24.8693C13.0983 27.9678 10.739 31.3102 8.69777 34.8573L45.5406 64.4828L0.270423 61.6388C0.103415 63.5409 0.0026763 65.4614 0.00267613 67.4055L2.1096e-05 67.4081ZM117.113 110.306L81.8161 75.3733L81.8187 75.3707C77.5613 71.1598 77.5613 64.3306 81.8187 60.1172L117.434 24.8693C120.083 27.9678 122.442 31.3102 124.483 34.86L87.6402 64.4854L132.91 61.6415C133.075 63.5436 133.178 65.464 133.178 67.4081C133.178 69.5804 133.064 71.7265 132.857 73.8464L87.6376 71.005L124.213 100.415C122.15 103.931 119.772 107.239 117.113 110.306Z" fill="#BBD6FF"/>
</svg>
