<svg width="325" height="259" viewBox="0 0 325 259" fill="none" xmlns="http://www.w3.org/2000/svg">
<path d="M155.235 0.505463H171.51C175.127 0.505463 178.212 1.78198 180.765 4.33502C183.318 6.88806 184.595 9.97299 184.595 13.5898V35.1311H167.84V16.6215C167.84 15.9833 167.627 15.5046 167.202 15.1855C166.883 14.7599 166.457 14.5472 165.925 14.5472H160.979C160.447 14.5472 159.968 14.7599 159.543 15.1855C159.117 15.5046 158.905 15.9833 158.905 16.6215V107.893C158.905 108.531 159.117 109.063 159.543 109.488C159.968 109.808 160.447 109.967 160.979 109.967H165.925C166.457 109.967 166.883 109.808 167.202 109.488C167.627 109.063 167.84 108.531 167.84 107.893V89.3832H184.595V110.925C184.595 114.541 183.318 117.626 180.765 120.179C178.212 122.732 175.127 124.009 171.51 124.009H155.235C151.618 124.009 148.533 122.732 145.98 120.179C143.427 117.626 142.15 114.541 142.15 110.925V13.5898C142.15 9.97299 143.427 6.88806 145.98 4.33502C148.533 1.78198 151.618 0.505463 155.235 0.505463ZM202.263 0.505463H218.538C222.155 0.505463 225.24 1.78198 227.793 4.33502C230.346 6.88806 231.623 9.97299 231.623 13.5898V110.925C231.623 114.541 230.346 117.626 227.793 120.179C225.24 122.732 222.155 124.009 218.538 124.009H202.263C198.646 124.009 195.561 122.732 193.008 120.179C190.455 117.626 189.178 114.541 189.178 110.925V13.5898C189.178 9.97299 190.455 6.88806 193.008 4.33502C195.561 1.78198 198.646 0.505463 202.263 0.505463ZM208.007 14.5472C207.475 14.5472 206.996 14.7599 206.571 15.1855C206.145 15.5046 205.933 15.9833 205.933 16.6215V107.893C205.933 108.531 206.145 109.063 206.571 109.488C206.996 109.808 207.475 109.967 208.007 109.967H212.953C213.485 109.967 213.911 109.808 214.23 109.488C214.655 109.063 214.868 108.531 214.868 107.893V16.6215C214.868 15.9833 214.655 15.5046 214.23 15.1855C213.911 14.7599 213.485 14.5472 212.953 14.5472H208.007ZM236.206 0.505463H252.961V109.967H271.789V124.009H236.206V0.505463ZM274.739 0.505463H304.099C307.716 0.505463 310.801 1.78198 313.354 4.33502C315.907 6.88806 317.183 9.97299 317.183 13.5898V110.925C317.183 114.541 315.907 117.626 313.354 120.179C310.801 122.732 307.716 124.009 304.099 124.009H274.739V0.505463ZM291.493 14.5472V109.967H298.514C299.046 109.967 299.471 109.808 299.791 109.488C300.216 109.063 300.429 108.531 300.429 107.893V16.6215C300.429 15.9833 300.216 15.5046 299.791 15.1855C299.471 14.7599 299.046 14.5472 298.514 14.5472H291.493Z" fill="white"/>
<path d="M56.2 134.898H85.56C89.1768 134.898 92.2617 136.175 94.8147 138.728C97.3678 141.281 98.6443 144.366 98.6443 147.982V198.565C98.6443 202.181 97.3678 205.266 94.8147 207.819C92.2617 210.372 89.1768 211.649 85.56 211.649H72.9543V258.401H56.2V134.898ZM72.9543 148.94V197.607H79.9752C80.5071 197.607 80.9326 197.448 81.2517 197.128C81.6772 196.703 81.89 196.224 81.89 195.692V151.014C81.89 150.376 81.6772 149.897 81.2517 149.578C80.9326 149.153 80.5071 148.94 79.9752 148.94H72.9543ZM101.67 134.898H118.424V244.36H137.253V258.401H101.67V134.898ZM140.202 134.898H156.957V242.285C156.957 242.924 157.169 243.456 157.595 243.881C158.02 244.2 158.499 244.36 159.031 244.36H163.978C164.509 244.36 164.935 244.2 165.254 243.881C165.68 243.456 165.892 242.924 165.892 242.285V134.898H182.647V245.317C182.647 248.934 181.37 252.019 178.817 254.572C176.264 257.125 173.179 258.401 169.562 258.401H153.287C149.67 258.401 146.585 257.125 144.032 254.572C141.479 252.019 140.202 248.934 140.202 245.317V134.898ZM187.23 134.898H203.985L212.92 197.448V134.898H229.675V258.401H212.92L203.985 195.852V258.401H187.23V134.898ZM247.343 134.898H263.618C267.235 134.898 270.32 136.175 272.873 138.728C275.426 141.281 276.703 144.366 276.703 147.982V169.524H259.948V151.014C259.948 150.376 259.736 149.897 259.31 149.578C258.991 149.153 258.566 148.94 258.034 148.94H253.087C252.555 148.94 252.077 149.153 251.651 149.578C251.226 149.897 251.013 150.376 251.013 151.014V242.285C251.013 242.924 251.226 243.456 251.651 243.881C252.077 244.2 252.555 244.36 253.087 244.36H258.034C258.566 244.36 258.991 244.2 259.31 243.881C259.736 243.456 259.948 242.924 259.948 242.285V205.107H254.204V190.905H276.703V245.317C276.703 248.934 275.426 252.019 272.873 254.572C270.32 257.125 267.235 258.401 263.618 258.401H247.343C243.726 258.401 240.641 257.125 238.088 254.572C235.535 252.019 234.258 248.934 234.258 245.317V147.982C234.258 144.366 235.535 141.281 238.088 138.728C240.641 136.175 243.726 134.898 247.343 134.898ZM281.287 134.898H316.87V148.94H298.041V188.512H315.433V202.554H298.041V244.36H316.87V258.401H281.287V134.898Z" fill="#BBD6FF"/>
<path fill-rule="evenodd" clip-rule="evenodd" d="M21.3999 109.201L54.8709 76.0411L54.8734 76.0411C58.826 72.1224 65.2366 72.1224 69.1917 76.0411L102.328 108.872C99.4587 111.353 96.3581 113.576 93.0605 115.506L65.0888 81.3994L67.7978 123.685C65.7808 123.883 63.7367 123.988 61.668 123.988C59.8432 123.988 58.0429 123.895 56.2574 123.741L58.9713 81.3994L30.8321 115.711L30.6425 115.711C27.3572 113.82 24.2665 111.639 21.3999 109.201ZM102.326 14.9109L68.8548 48.0734L68.8524 48.0734C64.8997 51.9921 58.4892 51.9921 54.534 48.0734L21.3979 15.2427C24.267 12.7612 27.3676 10.5383 30.6652 8.60825L58.6345 42.7151L55.9255 0.429239C57.9424 0.2316 59.9865 0.126681 62.0552 0.126681C63.8801 0.126681 65.6804 0.219401 67.4658 0.373126L64.7544 42.7126L92.8936 8.40085L93.0832 8.40085C96.3685 10.2919 99.4592 12.4733 102.326 14.9109ZM0.00133294 61.8889C0.00133276 63.9092 0.107229 65.9052 0.299321 67.8767L42.3087 65.2342L8.33031 92.587C10.2439 95.8566 12.4529 98.9335 14.9255 101.786L47.7168 69.2944C51.672 65.3757 51.672 59.0243 47.7168 55.108L14.63 22.3262C12.1697 25.2079 9.97788 28.3165 8.08157 31.6154L42.3087 59.1683L0.252539 56.5233C0.0973873 58.2923 0.00380502 60.0784 0.00380486 61.8865L0.00133294 61.8889ZM108.801 101.786L76.0094 69.2968L76.0118 69.2944C72.0567 65.3781 72.0567 59.0267 76.0118 55.108L109.099 22.3262C111.559 25.2079 113.751 28.3165 115.647 31.6178L81.42 59.1707L123.476 56.5257C123.629 58.2947 123.725 60.0808 123.725 61.8889C123.725 63.9092 123.619 65.9052 123.427 67.8767L81.4175 65.2342L115.396 92.587C113.48 95.8566 111.271 98.9335 108.801 101.786Z" fill="#BBD6FF"/>
</svg>
