<svg width="593" height="491" viewBox="0 0 593 491" fill="none" xmlns="http://www.w3.org/2000/svg">
<path d="M283.746 0.708989H313.632C320.273 0.708989 325.938 3.05299 330.626 7.74099C335.314 12.429 337.658 18.0937 337.658 24.735V64.29H306.893V30.302C306.893 29.13 306.502 28.251 305.721 27.665C305.135 26.8837 304.354 26.493 303.377 26.493H294.294C293.317 26.493 292.438 26.8837 291.657 27.665C290.876 28.251 290.485 29.13 290.485 30.302V197.898C290.485 199.07 290.876 200.047 291.657 200.828C292.438 201.414 293.317 201.707 294.294 201.707H303.377C304.354 201.707 305.135 201.414 305.721 200.828C306.502 200.047 306.893 199.07 306.893 197.898V163.91H337.658V203.465C337.658 210.106 335.314 215.771 330.626 220.459C325.938 225.147 320.273 227.491 313.632 227.491H283.746C277.105 227.491 271.44 225.147 266.752 220.459C262.064 215.771 259.72 210.106 259.72 203.465V24.735C259.72 18.0937 262.064 12.429 266.752 7.74099C271.44 3.05299 277.105 0.708989 283.746 0.708989ZM370.101 0.708989H399.987C406.628 0.708989 412.293 3.05299 416.981 7.74099C421.669 12.429 424.013 18.0937 424.013 24.735V203.465C424.013 210.106 421.669 215.771 416.981 220.459C412.293 225.147 406.628 227.491 399.987 227.491H370.101C363.46 227.491 357.795 225.147 353.107 220.459C348.419 215.771 346.075 210.106 346.075 203.465V24.735C346.075 18.0937 348.419 12.429 353.107 7.74099C357.795 3.05299 363.46 0.708989 370.101 0.708989ZM380.649 26.493C379.672 26.493 378.793 26.8837 378.012 27.665C377.231 28.251 376.84 29.13 376.84 30.302V197.898C376.84 199.07 377.231 200.047 378.012 200.828C378.793 201.414 379.672 201.707 380.649 201.707H389.732C390.709 201.707 391.49 201.414 392.076 200.828C392.857 200.047 393.248 199.07 393.248 197.898V30.302C393.248 29.13 392.857 28.251 392.076 27.665C391.49 26.8837 390.709 26.493 389.732 26.493H380.649ZM432.43 0.708989H463.195V201.707H497.769V227.491H432.43V0.708989ZM503.185 0.708989H557.097C563.738 0.708989 569.403 3.05299 574.091 7.74099C578.779 12.429 581.123 18.0937 581.123 24.735V203.465C581.123 210.106 578.779 215.771 574.091 220.459C569.403 225.147 563.738 227.491 557.097 227.491H503.185V0.708989ZM533.95 26.493V201.707H546.842C547.818 201.707 548.6 201.414 549.186 200.828C549.967 200.047 550.358 199.07 550.358 197.898V30.302C550.358 29.13 549.967 28.251 549.186 27.665C548.6 26.8837 547.818 26.493 546.842 26.493H533.95Z" fill="white"/>
<path d="M102.72 263.709H156.632C163.273 263.709 168.938 266.053 173.626 270.741C178.314 275.429 180.658 281.094 180.658 287.735V380.616C180.658 387.257 178.314 392.922 173.626 397.61C168.938 402.298 163.273 404.642 156.632 404.642H133.485V490.491H102.72V263.709ZM133.485 289.493V378.858H146.377C147.354 378.858 148.135 378.565 148.721 377.979C149.502 377.198 149.893 376.319 149.893 375.342V293.302C149.893 292.13 149.502 291.251 148.721 290.665C148.135 289.884 147.354 289.493 146.377 289.493H133.485ZM186.214 263.709H216.979V464.707H251.553V490.491H186.214V263.709ZM256.968 263.709H287.733V460.898C287.733 462.07 288.124 463.047 288.905 463.828C289.687 464.414 290.566 464.707 291.542 464.707H300.625C301.602 464.707 302.383 464.414 302.969 463.828C303.751 463.047 304.141 462.07 304.141 460.898V263.709H334.906V466.465C334.906 473.106 332.562 478.771 327.874 483.459C323.186 488.147 317.522 490.491 310.88 490.491H280.994C274.353 490.491 268.688 488.147 264 483.459C259.312 478.771 256.968 473.106 256.968 466.465V263.709ZM343.323 263.709H374.088L390.496 378.565V263.709H421.261V490.491H390.496L374.088 375.635V490.491H343.323V263.709ZM453.704 263.709H483.59C490.232 263.709 495.896 266.053 500.584 270.741C505.272 275.429 507.616 281.094 507.616 287.735V327.29H476.851V293.302C476.851 292.13 476.461 291.251 475.679 290.665C475.093 289.884 474.312 289.493 473.335 289.493H464.252C463.276 289.493 462.397 289.884 461.615 290.665C460.834 291.251 460.443 292.13 460.443 293.302V460.898C460.443 462.07 460.834 463.047 461.615 463.828C462.397 464.414 463.276 464.707 464.252 464.707H473.335C474.312 464.707 475.093 464.414 475.679 463.828C476.461 463.047 476.851 462.07 476.851 460.898V392.629H466.303V366.552H507.616V466.465C507.616 473.106 505.272 478.771 500.584 483.459C495.896 488.147 490.232 490.491 483.59 490.491H453.704C447.063 490.491 441.398 488.147 436.71 483.459C432.022 478.771 429.678 473.106 429.678 466.465V287.735C429.678 281.094 432.022 275.429 436.71 270.741C441.398 266.053 447.063 263.709 453.704 263.709ZM516.033 263.709H581.372V289.493H546.798V362.157H578.735V387.941H546.798V464.707H581.372V490.491H516.033V263.709Z" fill="#BBD6FF"/>
<path fill-rule="evenodd" clip-rule="evenodd" d="M39.088 200.02L100.228 139.515L100.233 139.515C107.453 132.365 119.163 132.365 126.388 139.515L186.916 199.419C181.675 203.947 176.012 208.003 169.988 211.524L118.893 149.292L123.841 226.448C120.157 226.809 116.423 227 112.644 227C109.311 227 106.023 226.831 102.761 226.55L107.718 149.292L56.3176 211.898L55.9712 211.898C49.9701 208.448 44.3244 204.468 39.088 200.02ZM186.912 27.9755L125.771 88.4846L125.767 88.4846C118.547 95.6348 106.837 95.6348 99.6121 88.4846L39.0836 28.5809C44.3245 24.0531 49.9882 19.9972 56.0118 16.4756L107.102 78.7077L102.154 1.55195C105.838 1.19132 109.572 0.999883 113.351 0.999883C116.684 0.999884 119.973 1.16906 123.234 1.44955L118.281 78.7033L169.682 16.0971L170.029 16.0971C176.03 19.5475 181.675 23.5278 186.912 27.9755ZM8.61996e-05 113.693C8.58773e-05 117.379 0.193521 121.021 0.544412 124.618L77.2814 119.797L15.2143 169.705C18.7097 175.671 22.745 181.285 27.2615 186.49L87.1602 127.205C94.385 120.055 94.385 108.466 87.1602 101.32L26.7217 41.5056C22.2276 46.7636 18.2239 52.4357 14.76 58.455L77.2814 108.729L0.458949 103.902C0.175548 107.13 0.00458783 110.389 0.00458754 113.688L8.61996e-05 113.693ZM198.739 186.49L138.84 127.209L138.844 127.205C131.62 120.059 131.62 108.47 138.844 101.32L199.283 41.5056C203.777 46.7636 207.781 52.4357 211.245 58.4594L148.723 108.733L225.546 103.907C225.825 107.135 226 110.394 226 113.693C226 117.379 225.807 121.021 225.456 124.618L148.719 119.797L210.786 169.705C207.286 175.671 203.251 181.285 198.739 186.49Z" fill="#BBD6FF"/>
</svg>
