<svg width="192" height="200" viewBox="0 0 192 200" fill="none" xmlns="http://www.w3.org/2000/svg">
<g id="Group 14">
<path id="Vector" d="M95.9958 13.1374C105.05 13.1374 114.104 15.4791 122.177 20.1658L177.878 52.4885V147.515L122.177 179.837C114.104 184.524 105.05 186.866 95.9958 186.866C86.9418 186.866 77.8911 184.524 69.8145 179.837L14.1134 147.515V52.4885L69.8145 20.1658C77.8879 15.4791 86.9418 13.1374 95.9958 13.1374ZM95.999 0C84.4776 0 73.1464 3.04487 63.2248 8.80237L7.52694 41.1251L0.982422 44.9215V155.079L7.52694 158.875L63.228 191.198C73.1529 196.955 84.484 200 96.0023 200C107.521 200 118.852 196.955 128.777 191.198L184.474 158.875L191.019 155.079V44.9215L184.474 41.1251L128.773 8.80237C118.848 3.04487 107.517 0 95.999 0Z" fill="#031A35" fill-opacity="0.15"/>
<path id="Vector_2" d="M115.918 54.8092C115.521 53.0222 114.315 47.5808 107.122 37.2044C104.699 33.708 102.042 30.2954 99.2193 27.057L95.9938 23.3606L92.7683 27.0602C89.946 30.2954 87.285 33.7112 84.8626 37.2076C77.673 47.5808 76.4635 53.0255 76.0667 54.8124C75.5023 57.3476 75.2539 58.8346 75.2539 60.9441C75.2539 66.8177 77.386 72.3494 81.2598 76.52C85.1852 80.7421 90.417 83.071 95.9938 83.071C101.571 83.071 106.799 80.7454 110.725 76.52C114.598 72.3494 116.731 66.8177 116.731 60.9441C116.731 58.8346 116.479 57.3476 115.914 54.8124L115.918 54.8092ZM92.2845 56.0155C89.6493 59.8184 88.0398 62.9761 87.5011 65.4049C87.2044 66.7403 87.1011 67.3725 87.1011 68.2692C87.1011 68.8562 87.1528 69.44 87.2495 70.0109C85.1304 67.595 83.9272 64.3824 83.9272 60.9376C83.9272 59.6893 84.0756 58.8088 84.524 56.7993C85.3336 53.1577 87.8204 48.313 91.9233 42.3942C93.2102 40.5364 94.5778 38.6946 95.9971 36.9077C97.4195 38.701 98.7871 40.5428 100.068 42.3975C104.17 48.3162 106.657 53.1609 107.467 56.8057C107.915 58.8152 108.064 59.6958 108.064 60.9441C108.064 64.3889 106.861 67.6015 104.741 70.0174C104.841 69.4465 104.89 68.8626 104.89 68.2724C104.89 67.3757 104.783 66.7435 104.487 65.4081C103.948 62.9793 102.338 59.8216 99.7032 56.0187C98.7613 54.6608 97.7517 53.3125 96.697 52.0127L95.9938 51.145L95.2907 52.0127C94.2392 53.3125 93.2264 54.6608 92.2845 56.0187V56.0155Z" fill="#031A35" fill-opacity="0.15"/>
<path id="Vector_3" d="M160.23 99.2722C160.23 97.153 160.12 95.0629 159.92 92.9986L116.302 95.766L151.582 67.0979C149.595 63.6692 147.299 60.4469 144.735 57.4568L110.683 91.5084C106.577 95.6144 106.577 102.272 110.683 106.378L145.038 140.733C147.592 137.714 149.87 134.456 151.837 130.995L116.299 102.117L159.965 104.888C160.127 103.033 160.223 101.162 160.223 99.2689L160.23 99.2722Z" fill="#031A35"/>
<path id="Vector_4" d="M88.9344 113.255L54.1797 148.01C57.1568 150.565 60.3662 152.851 63.7755 154.832H63.9723L93.192 118.874L90.3762 163.247C92.2276 163.409 94.1016 163.505 95.995 163.505C98.1432 163.505 100.266 163.396 102.359 163.189L99.5463 118.871L128.589 154.616C132.014 152.593 135.23 150.261 138.21 147.662L103.804 113.255C99.6979 109.149 93.0404 109.149 88.9344 113.255Z" fill="#031A35"/>
<path id="Vector_5" d="M81.3105 91.5084L47.2589 57.4568C44.6947 60.4437 42.3981 63.6692 40.4112 67.0979L75.6917 95.766L32.0733 92.9986C31.8733 95.0629 31.7637 97.1562 31.7637 99.2722C31.7637 101.166 31.8637 103.04 32.0217 104.891L75.6917 102.12L40.1532 130.998C42.124 134.456 44.3979 137.717 46.9525 140.736L81.3073 106.381C85.4133 102.275 85.4133 95.6177 81.3073 91.5116L81.3105 91.5084Z" fill="#031A35"/>
<path id="Subtract" fill-rule="evenodd" clip-rule="evenodd" d="M96.3135 23.8005L95.9059 23.3334L92.6804 27.0331C89.8581 30.2682 87.1971 33.684 84.7748 37.1805C77.5851 47.5537 76.3756 52.9983 75.9788 54.7852C75.4144 57.3205 75.166 58.8074 75.166 60.9169C75.166 66.7905 77.2981 72.3223 81.1719 76.4928C85.0973 80.715 90.3291 83.0438 95.9059 83.0438C96.042 83.0438 96.1778 83.0424 96.3135 83.0396V51.6207L95.9059 51.1179L95.2028 51.9855C94.1513 53.2854 93.1385 54.6336 92.1966 55.9916V55.9883C89.5614 59.7912 87.9519 62.949 87.4132 65.3778C87.1165 66.7131 87.0133 67.3453 87.0133 68.242C87.0133 68.829 87.0649 69.4129 87.1616 69.9838C85.0425 67.5679 83.8394 64.3553 83.8394 60.9104C83.8394 59.6622 83.9877 58.7816 84.4361 56.7721C85.2457 53.1306 87.7325 48.2859 91.8354 42.3671C93.1223 40.5092 94.49 38.6674 95.9092 36.8805C96.0444 37.0511 96.1792 37.222 96.3135 37.3934V23.8005Z" fill="#FF5B00"/>
</g>
</svg>
