<svg width="140" height="81" viewBox="0 0 140 81" fill="none" xmlns="http://www.w3.org/2000/svg">
<path d="M66.866 18.5178C68.9845 18.5178 71.0941 19.0651 72.9831 20.1596L86.0027 27.7154V49.9237L72.9831 57.4795C71.0941 58.5741 68.9757 59.1213 66.866 59.1213C64.7476 59.1213 62.638 58.5741 60.749 57.4795L47.7294 49.9237V27.7154L60.749 20.1596C62.638 19.0651 64.7564 18.5178 66.866 18.5178ZM66.866 15.446C64.1739 15.446 61.5258 16.161 59.2043 17.5027L46.1935 25.0585L44.6665 25.95V27.7154V49.9237V51.6891L46.1935 52.5806L59.2132 60.1364C61.5346 61.4781 64.1827 62.1931 66.8749 62.1931C69.5671 62.1931 72.2151 61.4781 74.5366 60.1364L87.5562 52.5806L89.0832 51.6891V49.9237V27.7154V25.95L87.5562 25.0585L74.5366 17.5027C72.2063 16.161 69.5582 15.446 66.866 15.446Z" fill="#FF5B00"/>
<path d="M71.527 28.2627C71.4387 27.8478 71.1563 26.5768 69.4703 24.1494C68.9054 23.3285 68.2787 22.5341 67.6255 21.7749L66.8752 20.9099L66.125 21.7749C65.4629 22.5341 64.8451 23.3285 64.2801 24.1494C62.603 26.5768 62.3206 27.8478 62.2235 28.2627C62.0911 28.8541 62.0293 29.1983 62.0293 29.6926C62.0293 31.0696 62.5236 32.3583 63.4328 33.3293C64.3508 34.3179 65.5689 34.8563 66.8752 34.8563C68.1816 34.8563 69.3997 34.3091 70.3177 33.3293C71.2269 32.3583 71.7212 31.0608 71.7212 29.6926C71.7124 29.1983 71.6594 28.8541 71.527 28.2627ZM66.0014 28.5451C65.3835 29.4367 65.0128 30.1693 64.8804 30.743C64.8098 31.052 64.7833 31.202 64.7833 31.4139C64.7833 31.5551 64.7921 31.6875 64.8186 31.8199C64.3243 31.255 64.0418 30.5047 64.0418 29.7015C64.0418 29.4102 64.0771 29.2072 64.183 28.7305C64.3684 27.8831 64.951 26.7445 65.9131 25.3675C66.2132 24.935 66.531 24.5024 66.8664 24.0876C67.2018 24.5113 67.5196 24.935 67.8197 25.3675C68.7818 26.7533 69.3644 27.8831 69.5498 28.7305C69.6557 29.1983 69.691 29.4102 69.691 29.7015C69.691 30.5047 69.4085 31.255 68.9142 31.8199C68.9407 31.6875 68.9495 31.5463 68.9495 31.4139C68.9495 31.202 68.9231 31.052 68.8525 30.743C68.7289 30.1781 68.3493 29.4367 67.7314 28.5451C67.5108 28.2274 67.2724 27.9096 67.0253 27.6095L66.8576 27.4065L66.6899 27.6095C66.4604 27.9096 66.2221 28.2274 66.0014 28.5451Z" fill="#FF5B00"/>
<path d="M81.8806 38.6518C81.8806 38.1575 81.8541 37.672 81.8099 37.1865L71.6149 37.8309L79.8592 31.1313C79.3914 30.328 78.8618 29.5778 78.2615 28.8804L70.2997 36.8423C69.3376 37.8044 69.3376 39.3579 70.2997 40.32L78.3322 48.3525C78.9324 47.6463 79.462 46.8872 79.921 46.0751L71.6149 39.3226L81.8188 39.967C81.8541 39.5345 81.8806 39.0931 81.8806 38.6518Z" fill="#031A35"/>
<path d="M65.2154 41.9177L57.0947 50.0384C57.792 50.6386 58.5423 51.1682 59.3368 51.6361H59.3809L66.2129 43.2329L65.5509 53.6045C65.9834 53.6398 66.4247 53.6662 66.8661 53.6662C67.3692 53.6662 67.8635 53.6398 68.3578 53.5956L67.7046 43.2417L74.4925 51.5919C75.2957 51.1153 76.046 50.5768 76.7433 49.9678L68.6932 41.9177C67.7311 40.9556 66.1776 40.9556 65.2154 41.9177Z" fill="#031A35"/>
<path d="M63.4324 36.8335L55.4706 28.8717C54.8703 29.569 54.3319 30.3281 53.8729 31.1226L62.1172 37.8221L51.9222 37.1778C51.878 37.6633 51.8516 38.1487 51.8516 38.643C51.8516 39.0844 51.878 39.5257 51.9133 39.9582L62.1172 39.3139L53.82 46.0664C54.2789 46.8785 54.8086 47.6376 55.4088 48.3437L63.4412 40.3113C64.3945 39.3492 64.3945 37.7957 63.4324 36.8335Z" fill="#031A35"/>
<path d="M18.7334 49.2883L16.2531 49.0146L16.1295 50.1621L18.6099 50.4358C18.7776 50.4534 18.857 50.5505 18.8394 50.7182L18.7423 51.6274C18.7246 51.7863 18.6275 51.8657 18.4598 51.8392L12.334 51.1596C12.1663 51.1419 12.0868 51.0536 12.1045 50.8859L12.2016 49.9768C12.2192 49.8091 12.3163 49.7296 12.484 49.7473L14.8408 50.0121L14.9644 48.8646L12.6076 48.5998C12.4399 48.5821 12.3604 48.485 12.3781 48.3173L12.4752 47.4081C12.4928 47.2493 12.5899 47.1698 12.7577 47.1963L18.8835 47.876C19.0512 47.8936 19.1306 47.9819 19.113 48.1496L19.0159 49.0588C18.9982 49.2265 18.9011 49.3059 18.7334 49.2883Z" fill="#FF5B00"/>
<path d="M13.5695 41.6265C13.6578 41.2646 13.7902 40.9822 13.9491 40.7615C14.108 40.5497 14.3375 40.3731 14.6288 40.2584C14.92 40.1348 15.2908 40.0907 15.7498 40.1171C16.2088 40.1436 16.7649 40.2495 17.4269 40.4172C18.3007 40.6379 18.9627 40.8939 19.4129 41.1852C19.8631 41.4765 20.1367 41.7766 20.2426 42.112C20.3486 42.4386 20.3397 42.8446 20.2162 43.3301C20.0926 43.8156 19.9072 44.1775 19.6512 44.4158C19.4041 44.6541 19.0069 44.7954 18.4773 44.8307C17.9477 44.866 17.2415 44.7689 16.3677 44.5482C15.4938 44.3275 14.8318 44.0716 14.3816 43.7803C13.9314 43.489 13.6578 43.1801 13.5431 42.8535C13.4371 42.518 13.446 42.1032 13.5695 41.6265ZM18.9804 43.0123C19.0245 42.8446 19.0069 42.6946 18.9186 42.5798C18.8303 42.4651 18.645 42.3415 18.3625 42.2268C18.0712 42.1032 17.6387 41.9708 17.065 41.8207C16.4824 41.6707 16.0411 41.5824 15.7321 41.5559C15.4232 41.5206 15.2025 41.5383 15.0701 41.6C14.9377 41.6618 14.8583 41.7766 14.8141 41.9443C14.77 42.1208 14.7876 42.2709 14.8759 42.3856C14.9642 42.5004 15.1495 42.624 15.432 42.7387C15.7233 42.8623 16.1558 42.9947 16.7296 43.1447C17.3121 43.2948 17.7535 43.3831 18.0624 43.4096C18.3713 43.436 18.592 43.4272 18.7244 43.3654C18.848 43.3036 18.9363 43.1889 18.9804 43.0123Z" fill="#FF5B00"/>
<path d="M16.1117 37.1425L15.3702 36.8512C15.2113 36.7894 15.1672 36.6746 15.229 36.5246L16.3147 33.7794C16.3765 33.6206 16.4912 33.5764 16.6413 33.6382L17.3827 33.9295C17.5328 33.9913 17.5769 34.0972 17.5151 34.2561L17.2327 34.9711L21.9992 36.8512C22.158 36.913 22.2022 37.0277 22.1404 37.1778L21.805 38.034C21.7432 38.184 21.6373 38.2282 21.4784 38.1664L16.7119 36.2863L16.4294 37.0012C16.3676 37.1513 16.2617 37.2043 16.1117 37.1425Z" fill="#FF5B00"/>
<path d="M25.7152 26.8327C26.236 27.1681 26.5273 27.5654 26.5891 28.0332C26.6509 28.501 26.5185 28.9777 26.2007 29.4808C25.9094 29.931 25.6534 30.2487 25.4328 30.4341C25.3445 30.5047 25.2739 30.5488 25.2209 30.5665C25.168 30.5753 25.0973 30.5577 25.0267 30.5135L24.4 30.1075C24.2323 30.0016 24.2411 29.878 24.4177 29.7368C24.5942 29.5867 24.7708 29.3749 24.9561 29.0924C25.2562 28.6246 25.2386 28.2715 24.8943 28.0508C24.7354 27.9449 24.5677 27.9096 24.3912 27.9184C24.2147 27.9361 23.941 28.0155 23.5526 28.1656C23.1201 28.3333 22.7229 28.4127 22.3522 28.4127C21.9815 28.4127 21.5754 28.2803 21.1517 28.0067C20.6221 27.6713 20.3132 27.3005 20.2337 26.8945C20.1543 26.4973 20.2955 25.9942 20.6751 25.4116C20.8781 25.1027 21.0811 24.8379 21.293 24.626C21.4254 24.5024 21.5578 24.4848 21.699 24.5731L22.3434 24.9879C22.4934 25.085 22.4846 25.2086 22.3257 25.3675C22.158 25.5264 21.9991 25.7205 21.8579 25.9324C21.7255 26.1354 21.6725 26.3031 21.6902 26.4355C21.7078 26.5679 21.8049 26.6827 21.9638 26.7886C22.2463 26.974 22.6964 26.9563 23.3055 26.7268C23.8175 26.5414 24.2588 26.4443 24.603 26.4532C24.9561 26.4532 25.3268 26.5767 25.7152 26.8327Z" fill="#FF5B00"/>
<path d="M24.3297 20.5304L25.3271 19.3387C25.4772 19.1622 25.6184 19.1181 25.7773 19.1975L31.2146 22.2428C31.3824 22.3487 31.4088 22.4634 31.2853 22.6135L30.6321 23.3903C30.5261 23.5138 30.4026 23.5403 30.2525 23.4609L29.3345 22.8783L28.496 23.8757L29.2286 24.6878C29.3345 24.8202 29.3345 24.9438 29.2286 25.0674L28.5842 25.8353C28.4607 25.9765 28.3371 25.9765 28.2135 25.8265L24.2767 20.9982C24.162 20.8658 24.1796 20.7069 24.3297 20.5304ZM27.6662 22.9401L28.2841 22.2075L25.9274 20.8393L25.9009 20.8658L27.6662 22.9401Z" fill="#FF5B00"/>
<path d="M35.3896 18.1736C35.3631 18.6149 35.0895 19.0739 34.5775 19.5329C34.0656 20.0007 33.5889 20.2214 33.1387 20.2037C32.6974 20.1861 32.2384 19.9213 31.7618 19.3917L28.7341 16.0551C28.6194 15.9315 28.6282 15.808 28.7518 15.6932L29.4315 15.0753C29.555 14.9694 29.6698 14.9694 29.7845 15.1018L32.6797 18.306C32.9004 18.5443 33.0858 18.6943 33.2358 18.7297C33.3859 18.7738 33.5448 18.7208 33.7037 18.5796C33.8625 18.4384 33.9332 18.2883 33.9067 18.1294C33.8802 17.9705 33.7566 17.7764 33.536 17.5292L30.6319 14.3339C30.5172 14.2103 30.5172 14.0867 30.6407 13.9808L31.3204 13.3629C31.444 13.2482 31.5676 13.257 31.6823 13.3806L34.7099 16.7171C35.1866 17.2467 35.4161 17.7322 35.3896 18.1736Z" fill="#FF5B00"/>
<path d="M37.8524 8.88772L41.3214 13.9808C41.4185 14.122 41.4008 14.2368 41.2596 14.3339L40.5976 14.7841C40.4563 14.8812 40.3239 14.8812 40.1915 14.7929L37.1639 12.7715L39.044 15.5255C39.1411 15.6667 39.1146 15.7815 38.9734 15.8786L38.2584 16.3641C38.126 16.4523 38.0113 16.4347 37.9142 16.2935L34.4452 11.2004C34.3481 11.0591 34.3658 10.9444 34.507 10.8473L35.169 10.3971C35.3103 10.3 35.4427 10.3 35.5751 10.3883L38.6027 12.4008L36.7226 9.65565C36.6255 9.51442 36.652 9.39967 36.7932 9.30258L37.5082 8.8171C37.6406 8.72001 37.7553 8.74649 37.8524 8.88772Z" fill="#FF5B00"/>
<path d="M41.895 6.33678L43.2896 5.64829C43.4927 5.55119 43.6515 5.56885 43.7575 5.70125L47.5089 10.6796C47.6236 10.8385 47.5971 10.9621 47.4294 11.0503L46.5203 11.5005C46.3702 11.5711 46.2466 11.5446 46.1495 11.4122L45.5405 10.5119L44.3753 11.0856L44.7196 12.1184C44.7637 12.2773 44.7108 12.4008 44.5607 12.4714L43.6604 12.9128C43.4927 12.9922 43.3779 12.9393 43.3249 12.7539L41.6567 6.75165C41.6037 6.57511 41.692 6.4427 41.895 6.33678ZM43.9781 9.88518L44.8343 9.46149L43.2367 7.2636L43.2014 7.28126L43.9781 9.88518Z" fill="#FF5B00"/>
<path d="M52.4257 7.36065C52.6199 7.94323 52.6022 8.43753 52.3551 8.84357C52.1079 9.24077 51.7107 9.54089 51.1458 9.73508C50.6427 9.90279 50.2367 9.99988 49.9454 9.99988C49.8306 10.0087 49.7512 9.99106 49.6982 9.96458C49.6453 9.9381 49.6099 9.88514 49.5746 9.79687L49.3363 9.09072C49.2745 8.90535 49.354 8.80826 49.5835 8.80826C49.813 8.79943 50.0866 8.74647 50.4044 8.64055C50.934 8.46401 51.137 8.17272 51.0046 7.79317C50.9428 7.61663 50.8369 7.4754 50.6956 7.37831C50.5456 7.28121 50.2808 7.17529 49.8836 7.05171C49.4422 6.91048 49.0803 6.73395 48.789 6.49562C48.4978 6.26612 48.2683 5.90422 48.1094 5.42757C47.9064 4.82735 47.8975 4.3507 48.0829 3.98879C48.2683 3.62689 48.6919 3.32678 49.354 3.10611C49.707 2.98253 50.0248 2.91192 50.3249 2.87661C50.5103 2.85896 50.625 2.92957 50.678 3.08846L50.9251 3.81226C50.9781 3.97997 50.8987 4.07706 50.6692 4.09472C50.4397 4.11237 50.2013 4.16533 49.9542 4.24477C49.7247 4.32421 49.5835 4.42131 49.5129 4.53606C49.4422 4.65081 49.4422 4.80087 49.504 4.98623C49.6099 5.304 49.9718 5.5688 50.5897 5.77182C51.1105 5.94836 51.5077 6.14255 51.7813 6.36322C52.0638 6.59272 52.2757 6.91931 52.4257 7.36065Z" fill="#FF5B00"/>
<path d="M63.2648 4.28892C63.3266 4.88915 63.2206 5.46289 62.947 5.9925L63.609 6.87519C63.6531 6.92815 63.6708 6.98111 63.6531 7.02525C63.6355 7.07821 63.6002 7.10469 63.5296 7.10469L62.5763 7.20178C62.4615 7.21061 62.3733 7.16648 62.2938 7.06938L62.1526 6.90167C61.7995 7.21944 61.367 7.39598 60.8727 7.44894C60.2372 7.51072 59.7075 7.39598 59.3015 7.09586C58.8955 6.79575 58.6572 6.31027 58.5865 5.63943C58.5336 5.15395 58.6042 4.71261 58.7807 4.33306C58.9573 3.9535 59.2309 3.66221 59.5928 3.47685L59.4427 3.27383C59.1515 2.85897 58.9926 2.49707 58.9573 2.17048C58.9131 1.72913 59.019 1.36723 59.2839 1.0936C59.5487 0.819967 59.9635 0.661084 60.5373 0.599296C60.8903 0.563988 61.2081 0.563988 61.4817 0.599296C61.5788 0.616949 61.6495 0.64343 61.6936 0.678737C61.7377 0.714045 61.7642 0.784659 61.773 0.872928L61.8348 1.46433C61.8525 1.64086 61.7642 1.72031 61.57 1.70265C61.3493 1.685 61.1463 1.67617 60.9786 1.69383C60.7226 1.72031 60.5373 1.77327 60.4313 1.86154C60.3254 1.94098 60.2813 2.06455 60.2989 2.23226C60.3166 2.39997 60.4049 2.58534 60.5549 2.78836L62.1084 4.86267C62.1349 4.6773 62.1438 4.50959 62.1261 4.34188C62.1173 4.27127 62.0996 4.183 62.0731 4.06825C62.0467 3.9535 62.029 3.87406 62.0202 3.8211C62.0025 3.67987 62.0731 3.60043 62.232 3.5916L62.9205 3.52098C63.0353 3.51216 63.1235 3.58277 63.1765 3.74166C63.2118 3.87406 63.2383 4.0506 63.2648 4.28892ZM60.8815 6.26614C61.111 6.23966 61.314 6.15139 61.4729 5.98368L60.2989 4.42132C60.0165 4.642 59.8929 4.98624 59.9459 5.44524C59.9724 5.71887 60.0694 5.93072 60.2195 6.08077C60.3784 6.23966 60.5991 6.29262 60.8815 6.26614Z" fill="#FF5B00"/>
<path d="M72.3212 6.09843C72.5331 6.11609 72.7361 6.11609 72.9303 6.08961C73.1245 6.07195 73.2127 6.15139 73.1951 6.32793L73.1245 7.05173C73.1157 7.14883 73.0892 7.21062 73.045 7.24592C73.0009 7.28123 72.9391 7.30771 72.8508 7.32537C72.5419 7.3695 72.233 7.3695 71.9329 7.34302C71.3503 7.29006 70.9089 7.15766 70.6 6.93698C70.2999 6.71631 70.088 6.35441 69.9733 5.84245C69.8585 5.3305 69.8409 4.61552 69.9203 3.70636C69.9998 2.80602 70.1498 2.10869 70.3528 1.63204C70.5559 1.15539 70.8295 0.837627 71.1649 0.678744C71.5003 0.519861 71.9505 0.466899 72.5331 0.51986C72.7979 0.546341 73.0892 0.608129 73.4158 0.705224C73.5747 0.740532 73.6453 0.855281 73.6364 1.03182L73.5658 1.76445C73.5482 1.93216 73.4511 1.99395 73.2657 1.95864C73.0803 1.89685 72.8862 1.86154 72.692 1.83506C72.2418 1.79093 71.924 1.90568 71.7475 2.16166C71.571 2.41763 71.4474 2.98255 71.3679 3.83876C71.2885 4.71262 71.315 5.29519 71.4385 5.58648C71.5533 5.89542 71.8534 6.06313 72.3212 6.09843Z" fill="#FF5B00"/>
<path d="M78.8534 1.56146C79.2153 1.64091 79.5065 1.75566 79.7272 1.91454C79.9479 2.0646 80.1244 2.28527 80.2568 2.57655C80.3892 2.86784 80.4422 3.23857 80.4245 3.69756C80.4069 4.15656 80.3274 4.71265 80.1774 5.38349C79.9832 6.26618 79.7449 6.92819 79.4712 7.38719C79.1976 7.84619 78.8975 8.12865 78.5709 8.24339C78.2443 8.35814 77.8383 8.35814 77.3528 8.25222C76.8673 8.1463 76.4966 7.96976 76.2494 7.72261C76.0023 7.48429 75.8522 7.0959 75.7992 6.55746C75.7463 6.02785 75.8169 5.3217 76.0111 4.43902C76.2053 3.55633 76.4436 2.89432 76.7172 2.43532C76.9909 1.97633 77.291 1.68504 77.6176 1.57029C77.9618 1.45554 78.3679 1.45554 78.8534 1.56146ZM77.6352 7.01646C77.803 7.05177 77.953 7.03412 78.0589 6.94585C78.1737 6.85758 78.2884 6.67221 78.3943 6.38093C78.5091 6.08964 78.6327 5.6483 78.7562 5.06573C78.8886 4.48315 78.9593 4.03298 78.9858 3.72404C79.0034 3.4151 78.9857 3.19443 78.924 3.06203C78.8622 2.93845 78.7386 2.85019 78.5709 2.81488C78.3943 2.77074 78.2443 2.79722 78.1295 2.88549C78.0148 2.97376 77.9 3.15913 77.7941 3.45041C77.6794 3.7417 77.5558 4.18304 77.4322 4.76561C77.2998 5.34819 77.2292 5.79836 77.2027 6.1073C77.1851 6.41624 77.2027 6.63691 77.2645 6.76931C77.3351 6.89289 77.4587 6.97233 77.6352 7.01646Z" fill="#FF5B00"/>
<path d="M85.438 3.84759L83.6991 8.64058L84.9701 9.09957C85.1202 9.15253 85.1732 9.26728 85.1114 9.42617L84.8377 10.1853C84.7759 10.3442 84.67 10.3971 84.52 10.3442L82.1455 9.48796C81.9955 9.43499 81.9425 9.32024 82.0043 9.16136L84.1051 3.37094C84.1669 3.21206 84.2728 3.1591 84.4229 3.21206L85.2879 3.521C85.4468 3.57396 85.4998 3.68871 85.438 3.84759Z" fill="#FF5B00"/>
<path d="M88.6333 12.2066L87.3093 11.5269C87.1592 11.4475 87.1327 11.3416 87.2033 11.1915L90.0191 5.71004C90.0986 5.55998 90.2045 5.52467 90.3545 5.59529L91.6521 6.2573C92.4112 6.64569 92.8437 7.13999 92.9585 7.74022C93.0732 8.34044 92.8437 9.19665 92.2611 10.3177C91.6874 11.4298 91.1313 12.1183 90.5752 12.3831C90.0368 12.6479 89.3836 12.5862 88.6333 12.2066ZM91.0695 7.39597L90.8135 7.26357L88.9422 10.9091L89.2159 11.0503C89.5248 11.2092 89.8073 11.1915 90.0544 11.0062C90.3016 10.8208 90.6193 10.3706 90.9812 9.65564C91.352 8.93184 91.5373 8.41106 91.5373 8.10212C91.5373 7.79318 91.3784 7.55485 91.0695 7.39597Z" fill="#FF5B00"/>
<path d="M96.789 17.4145L96.0829 16.8319C95.9593 16.726 95.9417 16.6112 96.0476 16.4877L99.9491 11.7035C100.055 11.5711 100.17 11.5535 100.302 11.6594L101.441 12.5862C102.076 13.107 102.421 13.6013 102.456 14.0779C102.491 14.5546 102.218 15.146 101.635 15.861C101.061 16.5671 100.532 16.9555 100.064 17.0085C99.596 17.0702 99.0399 16.8319 98.3955 16.3111L98.166 16.1258L97.1509 17.3704C97.0362 17.5116 96.9214 17.5204 96.789 17.4145ZM98.9604 15.1636L99.1899 15.349C99.4371 15.552 99.6401 15.6226 99.8167 15.5697C99.9932 15.5167 100.223 15.3137 100.505 14.9606C100.788 14.6076 100.946 14.3427 100.964 14.1662C100.982 13.9897 100.867 13.7955 100.629 13.5925L100.399 13.4071L98.9604 15.1636Z" fill="#FF5B00"/>
<path d="M106.402 17.5204L102.712 21.0423L103.648 22.0221C103.762 22.1368 103.753 22.2604 103.63 22.3751L103.047 22.9312C102.924 23.046 102.809 23.046 102.694 22.9312L100.955 21.1041C100.841 20.9893 100.849 20.8658 100.973 20.751L105.431 16.4965C105.554 16.3817 105.669 16.3817 105.784 16.4965L106.419 17.1585C106.525 17.2821 106.525 17.3968 106.402 17.5204Z" fill="#FF5B00"/>
<path d="M106.896 27.6006C106.455 27.53 106.031 27.2122 105.625 26.6562C105.21 26.1001 105.034 25.5969 105.096 25.1644C105.157 24.7231 105.466 24.2906 106.04 23.8669L109.668 21.1835C109.8 21.0864 109.924 21.1041 110.021 21.2365L110.568 21.9691C110.665 22.1015 110.648 22.2162 110.506 22.3222L107.037 24.8908C106.773 25.085 106.614 25.2527 106.561 25.4027C106.508 25.5528 106.543 25.7117 106.667 25.8794C106.79 26.0471 106.94 26.1354 107.09 26.1177C107.249 26.1089 107.461 26.003 107.717 25.8088L111.186 23.2402C111.318 23.1431 111.442 23.1519 111.539 23.2843L112.086 24.0169C112.183 24.1493 112.166 24.2729 112.033 24.37L108.406 27.0534C107.832 27.5035 107.329 27.6801 106.896 27.6006Z" fill="#FF5B00"/>
<path d="M115.891 30.9902L110.48 33.9295C110.33 34.009 110.215 33.9825 110.136 33.8324L109.756 33.1263C109.677 32.9762 109.685 32.8438 109.782 32.7203L112.095 29.9045L109.165 31.4933C109.015 31.5728 108.9 31.5375 108.82 31.3874L108.406 30.6195C108.326 30.4782 108.361 30.3635 108.511 30.284L113.922 27.3447C114.072 27.2653 114.187 27.2917 114.267 27.4418L114.646 28.1479C114.726 28.298 114.717 28.4304 114.62 28.554L112.316 31.3609L115.237 29.7721C115.388 29.6926 115.502 29.728 115.582 29.878L115.997 30.6459C116.076 30.796 116.041 30.9019 115.891 30.9902Z" fill="#FF5B00"/>
<path d="M115.987 37.1072L116.508 38.5018C116.57 38.6607 116.517 38.7666 116.358 38.8284L113.278 39.9847C113.119 40.0465 112.96 40.0112 112.81 39.8876C112.545 39.6669 112.298 39.2433 112.06 38.6077C111.909 38.2193 111.839 37.8751 111.839 37.5838C111.839 37.2925 111.918 37.0012 112.086 36.7276C112.254 36.454 112.527 36.1892 112.916 35.9508C113.304 35.7037 113.825 35.4654 114.469 35.227C115.317 34.9093 116.005 34.7416 116.535 34.7416C117.056 34.7327 117.47 34.8651 117.771 35.1211C118.071 35.3859 118.335 35.8184 118.556 36.4098C118.706 36.807 118.786 37.1601 118.803 37.4602C118.812 37.6279 118.741 37.7427 118.6 37.7957L117.912 38.0516C117.744 38.1134 117.647 38.034 117.603 37.8045C117.55 37.5044 117.479 37.2396 117.4 37.0189C117.214 36.5334 116.967 36.2686 116.658 36.2068C116.341 36.1539 115.784 36.2686 114.972 36.5775C114.143 36.8865 113.622 37.1601 113.392 37.4073C113.163 37.6456 113.128 37.9634 113.269 38.3341C113.304 38.4312 113.357 38.5195 113.41 38.5812L115.061 37.9634L114.893 37.522C114.831 37.3631 114.884 37.2572 115.034 37.1954L115.652 36.9659C115.82 36.8953 115.926 36.9483 115.987 37.1072Z" fill="#FF5B00"/>
<path d="M116.844 44.9455L116.491 43.4272L115.061 43.7627L115.441 45.4044C115.476 45.5722 115.414 45.6693 115.246 45.7134L114.47 45.8899C114.302 45.9252 114.205 45.8634 114.161 45.6957L113.516 42.9329C113.481 42.774 113.543 42.6769 113.711 42.6328L119.713 41.2382C119.881 41.2029 119.978 41.2558 120.013 41.4235L120.649 44.151C120.684 44.3187 120.622 44.4158 120.454 44.46L119.678 44.6365C119.519 44.6718 119.422 44.61 119.377 44.4423L119.007 42.8447L117.692 43.1536L118.045 44.6718C118.08 44.8395 118.018 44.9366 117.85 44.9808L117.127 45.1485C116.985 45.1749 116.879 45.1132 116.844 44.9455Z" fill="#FF5B00"/>
<path d="M116.738 51.6097C116.12 51.6715 115.652 51.5391 115.308 51.2125C114.972 50.8859 114.769 50.4269 114.708 49.8355C114.655 49.3059 114.655 48.891 114.716 48.6086C114.734 48.5027 114.769 48.4232 114.805 48.3791C114.84 48.335 114.902 48.3085 114.99 48.2996L115.732 48.2202C115.926 48.2026 115.996 48.2996 115.952 48.5203C115.908 48.7498 115.899 49.0234 115.935 49.3589C115.988 49.915 116.226 50.1709 116.632 50.1356C116.817 50.118 116.976 50.0474 117.109 49.9238C117.232 49.8002 117.4 49.5619 117.603 49.2088C117.832 48.8116 118.097 48.4938 118.388 48.2643C118.68 48.0348 119.077 47.8936 119.58 47.8406C120.207 47.7789 120.675 47.876 120.992 48.1408C121.31 48.4056 121.504 48.8822 121.575 49.5795C121.61 49.9503 121.619 50.2857 121.584 50.577C121.557 50.7535 121.46 50.8594 121.301 50.8683L120.542 50.9477C120.366 50.9654 120.295 50.8594 120.322 50.6388C120.357 50.4093 120.357 50.1621 120.33 49.9061C120.304 49.6678 120.242 49.5001 120.145 49.4118C120.048 49.3236 119.898 49.2883 119.704 49.3059C119.368 49.3412 119.024 49.6325 118.689 50.1886C118.397 50.6564 118.115 51.0007 117.841 51.2125C117.568 51.4332 117.206 51.5656 116.738 51.6097Z" fill="#FF5B00"/>
<path d="M62.6556 77.5783C61.8082 78.152 60.9344 78.3727 59.8046 78.3727C57.898 78.3727 56.415 77.7548 56.415 76.0777C56.415 75.301 56.7328 74.6654 57.439 73.9593C57.1124 73.4826 56.9535 73.1825 56.9535 72.5911C56.9535 70.914 58.1716 70.0402 60.1576 70.0402C60.7225 70.0402 61.7288 70.1108 62.3379 70.3315V72.0527C61.5964 71.8762 60.9874 71.7791 60.2547 71.7791C59.1337 71.7791 58.6747 72.1233 58.6747 72.5029C58.6747 73.006 59.4691 73.7563 62.2143 75.3628C62.3555 75.045 62.435 74.789 62.435 74.4712C62.435 74.2506 62.3997 74.0122 62.3379 73.6945H63.8649C63.9355 74.1535 63.9885 74.5772 63.9885 74.9214C63.9885 75.4422 63.8826 75.9189 63.6001 76.4043L64.0326 76.6603V78.3727L62.6556 77.5783ZM58.4982 75.1421C58.1981 75.4599 58.1275 75.5305 58.1275 75.6893C58.1275 76.1925 58.8159 76.6691 59.9811 76.6691C60.4401 76.6691 60.7932 76.5985 61.1198 76.5544C60.2194 76.1219 59.3544 75.707 58.4982 75.1421Z" fill="#031A35"/>
<path d="M2.99508 76.2543V80.2882H0.0380859V68.5131H12.025V71.0464H3.01274V73.7298H10.189V76.2543H2.99508Z" fill="#031A35"/>
<path d="M15.8647 80.2882V68.5131H18.8217V80.2882H15.8647Z" fill="#031A35"/>
<path d="M33.2182 80.2882L30.6055 76.5544H26.7393V80.2882H23.7646V68.5131H32.0972C35.4514 68.5131 36.4665 71.0288 36.4665 72.5205C36.4665 73.6592 35.7692 75.3451 33.7655 76.1307L36.6342 80.2882H33.2182ZM26.7393 71.0464V74.0211H31.3381C33.024 74.0211 33.3683 73.0678 33.3683 72.5205C33.3683 71.9909 33.0328 71.0464 31.3381 71.0464H26.7393Z" fill="#031A35"/>
<path d="M40.7036 80.2882V68.5131H52.6905V71.0288H43.6783V73.0148H51.0663V75.5481H43.6783V77.7548H52.6905V80.2882H40.7036Z" fill="#031A35"/>
<path d="M82.4544 79.379C80.7685 80.1999 78.6147 80.5 76.717 80.5C71.1649 80.5 67.8989 77.949 67.8989 74.4183C67.8989 70.914 71.1472 68.3013 76.6552 68.3013C78.447 68.3013 80.7243 68.5749 82.4632 69.4399V72.0174C81.5099 71.6202 79.5945 70.8169 76.8494 70.8169C72.736 70.8169 71.0678 72.6088 71.0678 74.4006C71.0678 76.1748 72.6743 77.9932 76.9111 77.9932C79.8681 77.9932 81.7483 77.1281 82.4632 76.8104V79.379H82.4544Z" fill="#031A35"/>
<path d="M97.9192 80.2882V75.4775H89.6484V80.2882H86.6914V68.5131H89.6484V72.9442H97.9192V68.5131H100.876V80.2882H97.9192Z" fill="#031A35"/>
<path d="M105.811 80.2882V68.5131H108.768V80.2882H105.811Z" fill="#031A35"/>
<path d="M113.702 80.2881V68.5131H116.659V77.7813H125.035V80.297H113.702V80.2881Z" fill="#031A35"/>
<path d="M128.628 80.2881V68.5131H131.585V77.7813H139.962V80.297H128.628V80.2881Z" fill="#031A35"/>
</svg>
