<svg width="245" height="52" viewBox="0 0 245 52" fill="none" xmlns="http://www.w3.org/2000/svg">
<path d="M24.2345 3.45821C26.545 3.45821 28.8554 4.06043 30.9147 5.25231L45.1289 13.4951V37.7217L30.9147 45.9645C28.8554 47.1564 26.545 47.7586 24.2345 47.7586C21.9241 47.7586 19.6136 47.1564 17.5543 45.9645L3.35265 37.7217V13.4951L17.5669 5.25231C19.6262 4.06043 21.9366 3.45821 24.2345 3.45821ZM24.2471 0.108398C21.3088 0.108398 18.4207 0.886258 15.8843 2.35416L1.67005 10.597L0 11.563V13.4951V37.7217V39.6538L1.67005 40.6198L15.8843 48.8626C18.4207 50.3305 21.3088 51.1084 24.2471 51.1084C27.1854 51.1084 30.0734 50.3305 32.6099 48.8626L46.8241 40.6198L48.4942 39.6538V37.7217V13.4951V11.563L46.8241 10.597L32.5973 2.35416C30.0734 0.886258 27.1854 0.108398 24.2471 0.108398Z" fill="#FF5B00"/>
<path d="M29.3202 14.0851C29.2197 13.6334 28.9058 12.2408 27.0725 9.59358C26.4572 8.7028 25.7792 7.83712 25.0509 7.00907L24.2221 6.06812L23.3934 7.00907C22.6777 7.83712 21.9996 8.7028 21.3718 9.59358C19.5385 12.2408 19.2246 13.6209 19.1241 14.0851C18.986 14.7249 18.9106 15.1139 18.9106 15.6534C18.9106 17.1463 19.4506 18.5641 20.4426 19.6179C21.4471 20.6969 22.7781 21.2866 24.197 21.2866C25.6159 21.2866 26.9595 20.6969 27.9515 19.6179C28.9435 18.5515 29.4834 17.1463 29.4834 15.6534C29.5337 15.1139 29.4709 14.7375 29.3202 14.0851ZM23.293 14.3987C22.6149 15.3648 22.2131 16.1677 22.0749 16.7951C21.9996 17.1338 21.9745 17.2969 21.9745 17.5227C21.9745 17.6733 21.987 17.8238 22.0122 17.9618C21.4722 17.3471 21.1583 16.5316 21.1583 15.6534C21.1583 15.3397 21.196 15.1139 21.309 14.5995C21.5099 13.6711 22.1503 12.4415 23.1925 10.9235C23.519 10.4467 23.8706 9.98251 24.2347 9.5183C24.5989 9.96996 24.9504 10.4467 25.2769 10.9235C26.3191 12.429 26.9595 13.6711 27.1604 14.5995C27.2734 15.1139 27.3111 15.3397 27.3111 15.6534C27.3111 16.5316 27.0097 17.3471 26.4573 17.9618C26.4824 17.8113 26.4949 17.6733 26.4949 17.5227C26.4949 17.2969 26.4698 17.1338 26.3945 16.7951C26.2563 16.1803 25.842 15.3648 25.1765 14.3987C24.9379 14.0475 24.6742 13.7087 24.4105 13.3825L24.2347 13.1567L24.0589 13.3825C23.7952 13.7087 23.5315 14.0475 23.293 14.3987Z" fill="#FF5B00"/>
<path d="M40.6341 25.4265C40.6341 24.887 40.609 24.3475 40.5587 23.8206L29.4335 24.5232L38.4367 17.2088C37.9344 16.3306 37.3442 15.5151 36.6913 14.7498L28.002 23.4317C26.9598 24.473 26.9598 26.1793 28.002 27.2206L36.7666 35.9778C37.4196 35.2125 37.9972 34.3719 38.4994 33.4937L29.4335 26.1291L40.5713 26.8317C40.609 26.38 40.6341 25.9033 40.6341 25.4265Z" fill="#BBD6FF"/>
<path d="M22.4392 28.9895L13.5741 37.8471C14.3275 38.4995 15.1562 39.0766 16.0227 39.591H16.0729L23.5316 30.4198L22.8159 41.7364C23.293 41.774 23.7702 41.7991 24.2473 41.7991C24.7998 41.7991 25.3398 41.774 25.8672 41.7238L25.1514 30.4323L32.5599 39.5408C33.4389 39.0264 34.2551 38.4368 35.021 37.7718L26.2439 29.0021C25.1891 27.9357 23.4814 27.9357 22.4392 28.9895Z" fill="#BBD6FF"/>
<path d="M20.4928 23.4451L11.8035 14.7632C11.1506 15.5285 10.5604 16.344 10.0581 17.2222L19.0613 24.5366L7.93606 23.834C7.88583 24.361 7.86072 24.8879 7.86072 25.4399C7.86072 25.9292 7.88583 26.406 7.9235 26.8702L19.0613 26.1676L9.99536 33.5322C10.4976 34.4104 11.0752 35.2385 11.7282 36.0163L20.4928 27.2591C21.535 26.1927 21.535 24.4864 20.4928 23.4451Z" fill="#BBD6FF"/>
<path d="M137.986 29.4785C136.956 30.1811 135.889 30.4446 134.508 30.4446C132.185 30.4446 130.389 29.6918 130.389 27.6468C130.389 26.6933 130.766 25.928 131.645 25.0623C131.243 24.4852 131.054 24.1088 131.054 23.3937C131.054 21.3612 132.536 20.2822 134.96 20.2822C135.65 20.2822 136.868 20.37 137.609 20.6335V22.7287C136.705 22.5154 135.964 22.39 135.073 22.39C133.704 22.39 133.139 22.8165 133.139 23.2682C133.139 23.883 134.106 24.7988 137.458 26.7435C137.634 26.3546 137.722 26.0409 137.722 25.652C137.722 25.3885 137.672 25.0874 137.609 24.6985H139.467C139.555 25.263 139.618 25.7649 139.618 26.1915C139.618 26.8188 139.48 27.4084 139.141 27.9981L139.668 28.3117V30.4195L137.986 29.4785ZM132.913 26.5051C132.549 26.894 132.461 26.9819 132.461 27.1701C132.461 27.7848 133.302 28.3619 134.708 28.3619C135.273 28.3619 135.7 28.2741 136.09 28.2239C135.01 27.7095 133.968 27.1951 132.913 26.5051Z" fill="white"/>
<path d="M65.2948 27.8737V32.7792H61.7036V18.439H76.3071V21.5253H65.3325V24.7873H74.072V27.8737H65.2948Z" fill="white"/>
<path d="M80.978 32.7792V18.439H84.5808V32.7792H80.978Z" fill="white"/>
<path d="M102.111 32.7792L98.9218 28.2375H94.2256V32.7792H90.5967V18.439H100.755C104.849 18.439 106.079 21.5002 106.079 23.3194C106.079 24.712 105.225 26.757 102.789 27.7106L106.28 32.7792H102.111ZM94.2256 21.5253V25.1511H99.8259C101.885 25.1511 102.3 23.9969 102.3 23.332C102.3 22.6921 101.885 21.5379 99.8259 21.5379H94.2256V21.5253Z" fill="white"/>
<path d="M111.24 32.7792V18.439H125.843V21.5002H114.869V23.9091H123.872V26.9954H114.869V29.6928H125.843V32.7792H111.24Z" fill="white"/>
<path d="M162.094 31.6751C160.035 32.6788 157.411 33.0426 155.1 33.0426C148.332 33.0426 144.352 29.9312 144.352 25.6404C144.352 21.3747 148.307 18.188 155.025 18.188C157.21 18.188 159.985 18.5267 162.094 19.5806V22.7171C160.939 22.2278 158.604 21.2492 155.251 21.2492C150.241 21.2492 148.207 23.4323 148.207 25.6153C148.207 27.7732 150.166 29.9813 155.326 29.9813C158.93 29.9813 161.216 28.9275 162.094 28.5385V31.6751Z" fill="white"/>
<path d="M180.942 32.7794V26.9204H170.859V32.7794H167.255V18.4392H170.859V23.834H180.942V18.4392H184.546V32.7794H180.942Z" fill="white"/>
<path d="M190.548 32.7794V18.4392H194.151V32.7794H190.548Z" fill="white"/>
<path d="M200.167 32.7794V18.4392H203.77V29.7182H213.979V32.7794H200.167Z" fill="white"/>
<path d="M218.349 32.7794V18.4392H221.953V29.7182H232.161V32.7794H218.349Z" fill="white"/>
<path d="M234.613 21.235V17.1599H232.652V16.2136H237.708V17.1599H235.747V21.235H234.613Z" fill="white"/>
<path d="M241.091 20.3955L239.973 18.7243C239.835 18.5183 239.341 17.6941 239.341 17.6941L239.317 17.7017C239.317 17.7017 239.398 18.6251 239.398 18.8846V21.235H238.264V16.2136H239.455L241.189 18.8006H241.205L242.939 16.2136H244.13V21.235H242.995V18.8846C242.995 18.6251 243.068 17.7017 243.068 17.7017L243.044 17.6941C243.044 17.6941 242.558 18.5183 242.42 18.7243L241.302 20.3955H241.091Z" fill="white"/>
</svg>
