<svg width="245" height="52" viewBox="0 0 245 52" fill="none" xmlns="http://www.w3.org/2000/svg">
<g id="Logo">
<g id="Group">
<g id="Group_2">
<path id="Vector" d="M24.2345 3.45824C26.545 3.45824 28.8554 4.06046 30.9147 5.25234L45.1289 13.4951V37.7217L30.9147 45.9645C28.8554 47.1564 26.545 47.7586 24.2345 47.7586C21.9241 47.7586 19.6136 47.1564 17.5543 45.9645L3.35265 37.7217V13.4951L17.5669 5.25234C19.6262 4.06046 21.9366 3.45824 24.2345 3.45824ZM24.2471 0.108429C21.3088 0.108429 18.4207 0.886289 15.8843 2.35419L1.67005 10.597L0 11.563V13.4951V37.7217V39.6538L1.67005 40.6199L15.8843 48.8627C18.4207 50.3306 21.3088 51.1084 24.2471 51.1084C27.1854 51.1084 30.0734 50.3306 32.6099 48.8627L46.8241 40.6199L48.4942 39.6538V37.7217V13.4951V11.563L46.8241 10.597L32.5973 2.35419C30.0734 0.886289 27.1854 0.108429 24.2471 0.108429Z" fill="#FF5B00"/>
</g>
<path id="Vector_2" d="M29.3202 14.0852C29.2197 13.6335 28.9058 12.2409 27.0725 9.59365C26.4572 8.70288 25.7792 7.8372 25.0509 7.00915L24.2221 6.06819L23.3934 7.00915C22.6777 7.8372 21.9996 8.70288 21.3718 9.59365C19.5385 12.2409 19.2246 13.621 19.1241 14.0852C18.986 14.725 18.9106 15.1139 18.9106 15.6534C18.9106 17.1464 19.4506 18.5641 20.4426 19.618C21.4471 20.697 22.7781 21.2866 24.197 21.2866C25.6159 21.2866 26.9595 20.697 27.9515 19.618C28.9435 18.5516 29.4834 17.1464 29.4834 15.6534C29.5337 15.1139 29.4709 14.7376 29.3202 14.0852ZM23.293 14.3988C22.6149 15.3649 22.2131 16.1678 22.0749 16.7951C21.9996 17.1339 21.9745 17.297 21.9745 17.5228C21.9745 17.6734 21.987 17.8239 22.0122 17.9619C21.4722 17.3472 21.1583 16.5317 21.1583 15.6534C21.1583 15.3398 21.196 15.1139 21.309 14.5996C21.5099 13.6711 22.1503 12.4416 23.1925 10.9235C23.519 10.4468 23.8706 9.98258 24.2347 9.51838C24.5989 9.97004 24.9504 10.4468 25.2769 10.9235C26.3191 12.4291 26.9595 13.6711 27.1604 14.5996C27.2734 15.1139 27.3111 15.3398 27.3111 15.6534C27.3111 16.5317 27.0097 17.3472 26.4573 17.9619C26.4824 17.8114 26.4949 17.6734 26.4949 17.5228C26.4949 17.297 26.4698 17.1339 26.3945 16.7951C26.2563 16.1804 25.842 15.3649 25.1765 14.3988C24.9379 14.0475 24.6742 13.7088 24.4105 13.3826L24.2347 13.1568L24.0589 13.3826C23.7952 13.7088 23.5315 14.0475 23.293 14.3988Z" fill="#FF5B00"/>
<g id="Group_3">
<path id="Vector_3" d="M40.6341 25.4266C40.6341 24.8871 40.609 24.3477 40.5587 23.8207L29.4335 24.5233L38.4367 17.2089C37.9344 16.3307 37.3442 15.5152 36.6913 14.7499L28.002 23.4318C26.9598 24.4731 26.9598 26.1794 28.002 27.2207L36.7666 35.9779C37.4196 35.2126 37.9972 34.372 38.4994 33.4938L29.4335 26.1292L40.5713 26.8318C40.609 26.3801 40.6341 25.9034 40.6341 25.4266Z" fill="#031A35"/>
<path id="Vector_4" d="M22.4392 28.9895L13.5741 37.847C14.3275 38.4994 15.1562 39.0766 16.0227 39.591H16.0729L23.5316 30.4197L22.8159 41.7363C23.293 41.774 23.7702 41.7991 24.2473 41.7991C24.7998 41.7991 25.3398 41.774 25.8672 41.7238L25.1514 30.4323L32.5599 39.5408C33.4389 39.0264 34.2551 38.4367 35.021 37.7718L26.2439 29.002C25.1891 27.9356 23.4814 27.9356 22.4392 28.9895Z" fill="#031A35"/>
<path id="Vector_5" d="M20.4928 23.4451L11.8035 14.7631C11.1506 15.5285 10.5604 16.344 10.0581 17.2222L19.0613 24.5366L7.93606 23.834C7.88583 24.3609 7.86072 24.8879 7.86072 25.4399C7.86072 25.9292 7.88583 26.4059 7.9235 26.8701L19.0613 26.1676L9.99536 33.5321C10.4976 34.4104 11.0752 35.2384 11.7282 36.0163L20.4928 27.2591C21.535 26.1927 21.535 24.4864 20.4928 23.4451Z" fill="#031A35"/>
</g>
</g>
<g id="Group_4">
<path id="Vector_6" d="M137.986 29.4787C136.956 30.1812 135.889 30.4447 134.508 30.4447C132.185 30.4447 130.389 29.6919 130.389 27.6469C130.389 26.6934 130.766 25.9281 131.645 25.0624C131.243 24.4853 131.054 24.1089 131.054 23.3938C131.054 21.3613 132.536 20.2823 134.96 20.2823C135.65 20.2823 136.868 20.3702 137.609 20.6336V22.7288C136.705 22.5156 135.964 22.3901 135.073 22.3901C133.704 22.3901 133.139 22.8167 133.139 23.2683C133.139 23.8831 134.106 24.799 137.458 26.7436C137.634 26.3547 137.722 26.041 137.722 25.6521C137.722 25.3886 137.672 25.0875 137.609 24.6986H139.467C139.555 25.2632 139.618 25.765 139.618 26.1916C139.618 26.8189 139.48 27.4085 139.141 27.9982L139.668 28.3119V30.4196L137.986 29.4787ZM132.913 26.5052C132.549 26.8942 132.461 26.982 132.461 27.1702C132.461 27.7849 133.302 28.3621 134.708 28.3621C135.273 28.3621 135.7 28.2742 136.09 28.224C135.01 27.7097 133.968 27.1953 132.913 26.5052Z" fill="#031A35"/>
<g id="Group_5">
<path id="Vector_7" d="M65.2948 27.8737V32.7792H61.7036V18.439H76.3071V21.5253H65.3325V24.7873H74.072V27.8737H65.2948Z" fill="#031A35"/>
<path id="Vector_8" d="M80.978 32.7792V18.439H84.5808V32.7792H80.978Z" fill="#031A35"/>
<path id="Vector_9" d="M102.111 32.7792L98.9218 28.2375H94.2256V32.7792H90.5967V18.439H100.755C104.849 18.439 106.079 21.5003 106.079 23.3194C106.079 24.7121 105.225 26.7571 102.789 27.7106L106.28 32.7792H102.111ZM94.2256 21.5253V25.1512H99.8259C101.885 25.1512 102.3 23.9969 102.3 23.332C102.3 22.6921 101.885 21.5379 99.8259 21.5379H94.2256V21.5253Z" fill="#031A35"/>
<path id="Vector_10" d="M111.24 32.7792V18.439H125.843V21.5003H114.869V23.9091H123.872V26.9955H114.869V29.6929H125.843V32.7792H111.24Z" fill="#031A35"/>
<g id="Group_6">
<path id="Vector_11" d="M162.094 31.6751C160.035 32.6788 157.411 33.0426 155.1 33.0426C148.332 33.0426 144.352 29.9312 144.352 25.6404C144.352 21.3747 148.307 18.188 155.025 18.188C157.21 18.188 159.985 18.5268 162.094 19.5806V22.7172C160.939 22.2279 158.604 21.2493 155.251 21.2493C150.241 21.2493 148.207 23.4323 148.207 25.6153C148.207 27.7733 150.166 29.9814 155.326 29.9814C158.93 29.9814 161.216 28.9275 162.094 28.5386V31.6751Z" fill="#031A35"/>
<path id="Vector_12" d="M180.942 32.7795V26.9204H170.859V32.7795H167.255V18.4392H170.859V23.8341H180.942V18.4392H184.546V32.7795H180.942Z" fill="#031A35"/>
<path id="Vector_13" d="M190.548 32.7795V18.4392H194.151V32.7795H190.548Z" fill="#031A35"/>
<path id="Vector_14" d="M200.167 32.7795V18.4392H203.77V29.7182H213.979V32.7795H200.167Z" fill="#031A35"/>
<path id="Vector_15" d="M218.349 32.7795V18.4392H221.953V29.7182H232.161V32.7795H218.349Z" fill="#031A35"/>
<g id="tm">
<path d="M234.613 21.235V17.16H232.652V16.2137H237.708V17.16H235.747V21.235H234.613Z" fill="#031A35"/>
<path d="M241.091 20.3956L239.973 18.7244C239.835 18.5183 239.341 17.6941 239.341 17.6941L239.317 17.7018C239.317 17.7018 239.398 18.6252 239.398 18.8846V21.235H238.264V16.2137H239.455L241.189 18.8007H241.205L242.939 16.2137H244.13V21.235H242.995V18.8846C242.995 18.6252 243.068 17.7018 243.068 17.7018L243.044 17.6941C243.044 17.6941 242.558 18.5183 242.42 18.7244L241.302 20.3956H241.091Z" fill="#031A35"/>
</g>
</g>
</g>
</g>
</g>
</svg>
