<svg width="450" height="333" viewBox="0 0 450 333" fill="none" xmlns="http://www.w3.org/2000/svg">
<path d="M224.992 22.3081C240.021 22.3081 255.051 26.1954 268.453 33.9752L360.917 87.6309V245.374L268.453 299.03C255.051 306.81 240.021 310.697 224.992 310.697C209.962 310.697 194.938 306.81 181.531 299.03L89.067 245.374V87.6309L181.531 33.9752C194.933 26.1954 209.962 22.3081 224.992 22.3081ZM224.997 0.5C205.872 0.5 187.062 5.55448 170.592 15.1119L78.1334 68.7676L67.2695 75.0696V257.93L78.1334 264.232L170.597 317.888C187.072 327.446 205.882 332.5 225.003 332.5C244.123 332.5 262.933 327.446 279.408 317.888L371.866 264.232L382.73 257.93V75.0696L371.866 68.7676L279.402 15.1119C262.927 5.55448 244.117 0.5 224.997 0.5Z" fill="#FF5B00"/>
<path d="M258.068 91.4826C257.41 88.5163 255.407 79.4836 243.467 62.2587C239.446 56.4546 235.034 50.7897 230.349 45.414L224.995 39.278L219.64 45.4194C214.955 50.7897 210.538 56.46 206.517 62.2641C194.582 79.4836 192.574 88.5217 191.916 91.4879C190.979 95.6964 190.566 98.1648 190.566 101.667C190.566 111.417 194.106 120.599 200.536 127.523C207.052 134.531 215.737 138.397 224.995 138.397C234.252 138.397 242.932 134.537 249.448 127.523C255.878 120.599 259.418 111.417 259.418 101.667C259.418 98.1648 259 95.6964 258.063 91.4879L258.068 91.4826ZM218.837 93.4851C214.463 99.7979 211.791 105.04 210.897 109.072C210.404 111.288 210.233 112.338 210.233 113.826C210.233 114.801 210.318 115.77 210.479 116.718C206.961 112.707 204.964 107.374 204.964 101.656C204.964 99.5837 205.21 98.122 205.955 94.7862C207.299 88.7412 211.427 80.699 218.238 70.8738C220.374 67.7897 222.644 64.7324 225 61.7661C227.361 64.7431 229.632 67.8004 231.757 70.8792C238.568 80.7043 242.696 88.7465 244.04 94.7969C244.784 98.1327 245.031 99.5944 245.031 101.667C245.031 107.385 243.033 112.718 239.516 116.728C239.682 115.781 239.762 114.811 239.762 113.832C239.762 112.343 239.585 111.294 239.093 109.077C238.198 105.045 235.527 99.8032 231.152 93.4905C229.589 91.2363 227.913 88.9982 226.162 86.8404L224.995 85.4001L223.827 86.8404C222.082 88.9982 220.401 91.2363 218.837 93.4905V93.4851Z" fill="#FF5B00"/>
<path d="M331.619 165.292C331.619 161.774 331.437 158.304 331.105 154.877L258.698 159.471L317.264 111.882C313.965 106.191 310.153 100.842 305.896 95.8781L249.371 152.404C242.555 159.22 242.555 170.271 249.371 177.087L306.4 234.116C310.64 229.104 314.421 223.696 317.687 217.951L258.693 170.014L331.18 174.613C331.447 171.535 331.608 168.429 331.608 165.286L331.619 165.292Z" fill="#031A35"/>
<path d="M213.269 188.504L155.576 246.197C160.518 250.437 165.846 254.233 171.505 257.521H171.832L220.337 197.831L215.662 271.49C218.736 271.758 221.847 271.919 224.99 271.919C228.556 271.919 232.079 271.737 235.554 271.394L230.885 197.826L279.095 257.162C284.781 253.805 290.12 249.934 295.067 245.618L237.952 188.504C231.136 181.688 220.085 181.688 213.269 188.504Z" fill="#031A35"/>
<path d="M200.612 152.404L144.086 95.8781C139.83 100.836 136.017 106.191 132.719 111.882L191.285 159.471L118.878 154.877C118.546 158.304 118.364 161.779 118.364 165.292C118.364 168.435 118.53 171.545 118.793 174.619L191.285 170.019L132.291 217.957C135.562 223.697 139.337 229.11 143.578 234.121L200.607 177.092C207.423 170.276 207.423 159.225 200.607 152.409L200.612 152.404Z" fill="#031A35"/>
</svg>
