<svg width="61" height="64" viewBox="0 0 61 64" fill="none" xmlns="http://www.w3.org/2000/svg">
<g id="Symbol">
<g id="Group">
<path id="Vector" d="M30.3862 4.20369C33.2831 4.20369 36.1801 4.95941 38.7621 6.4551L56.5845 16.799V47.201L38.7621 57.5449C36.1801 59.0406 33.2831 59.7963 30.3862 59.7963C27.4893 59.7963 24.5924 59.0406 22.0103 57.5449L4.20369 47.201V16.799L22.0261 6.4551C24.6081 4.95941 27.505 4.20369 30.3862 4.20369ZM30.402 0C26.7178 0 23.0967 0.976138 19.9164 2.8182L2.09397 13.1621L0 14.3744V16.799V47.201V49.6256L2.09397 50.8379L19.9164 61.1818C23.0967 63.0239 26.7178 64 30.402 64C34.0861 64 37.7072 63.0239 40.8876 61.1818L58.71 50.8379L60.8039 49.6256V47.201V16.799V14.3744L58.71 13.1621L40.8718 2.8182C37.7073 0.976138 34.0861 0 30.402 0Z" fill="#FF5B00"/>
</g>
<path id="Vector_2" d="M36.7648 17.539C36.6388 16.9722 36.2452 15.2246 33.9466 11.9026C33.1751 10.7848 32.3249 9.69844 31.4118 8.65933L30.3727 7.47852L29.3336 8.65933C28.4361 9.69844 27.586 10.7848 26.7987 11.9026C24.5001 15.2246 24.1065 16.9565 23.9805 17.539C23.8074 18.342 23.7129 18.8301 23.7129 19.5071C23.7129 21.3806 24.3899 23.1597 25.6337 24.4822C26.8932 25.8362 28.5621 26.5762 30.3412 26.5762C32.1203 26.5762 33.8049 25.8362 35.0487 24.4822C36.2925 23.144 36.9695 21.3806 36.9695 19.5071C37.0324 18.8301 36.9537 18.3577 36.7648 17.539ZM29.2076 17.9326C28.3574 19.1449 27.8536 20.1526 27.6804 20.9398C27.586 21.3649 27.5545 21.5695 27.5545 21.8529C27.5545 22.0419 27.5702 22.2308 27.6017 22.404C26.9247 21.6325 26.5311 20.6091 26.5311 19.5071C26.5311 19.1134 26.5783 18.8301 26.72 18.1845C26.9719 17.0195 27.7749 15.4765 29.0816 13.5715C29.491 12.9732 29.9318 12.3907 30.3884 11.8082C30.845 12.3749 31.2858 12.9732 31.6952 13.5715C33.0019 15.4608 33.8049 17.0195 34.0568 18.1845C34.1985 18.8301 34.2457 19.1134 34.2457 19.5071C34.2457 20.6091 33.8679 21.6325 33.1751 22.404C33.2066 22.215 33.2224 22.0419 33.2224 21.8529C33.2224 21.5695 33.1909 21.3649 33.0964 20.9398C32.9232 20.1683 32.4037 19.1449 31.5692 17.9326C31.2701 17.4918 30.9395 17.0667 30.6088 16.6574L30.3884 16.374L30.168 16.6574C29.8374 17.0667 29.5067 17.4918 29.2076 17.9326Z" fill="#FF5B00"/>
<g id="Group_2">
<path id="Vector_3" d="M50.9496 31.7717C50.9496 31.0947 50.9181 30.4177 50.8551 29.7564L36.9058 30.6381L48.1943 21.4593C47.5646 20.3572 46.8246 19.3338 46.0059 18.3734L35.1109 29.2684C33.8042 30.5751 33.8042 32.7163 35.1109 34.0231L46.1004 45.0125C46.919 44.0521 47.6433 42.9973 48.273 41.8952L36.9058 32.6534L50.8708 33.535C50.9181 32.9682 50.9496 32.37 50.9496 31.7717Z" fill="#BBD6FF"/>
<path id="Vector_4" d="M28.133 36.243L17.0176 47.3584C17.9622 48.1771 19.0013 48.9013 20.0877 49.5469H20.1507L29.5027 38.0379L28.6053 52.2391C29.2036 52.2863 29.8018 52.3178 30.4001 52.3178C31.0929 52.3178 31.7699 52.2863 32.4311 52.2234L31.5337 38.0536L40.8227 49.4839C41.9248 48.8384 42.9482 48.0984 43.9086 47.2639L32.9034 36.2588C31.5809 34.9205 29.4397 34.9205 28.133 36.243Z" fill="#BBD6FF"/>
<path id="Vector_5" d="M25.6941 29.284L14.7991 18.389C13.9804 19.3494 13.2405 20.3728 12.6107 21.4749L23.8993 30.6537L9.94993 29.7721C9.88696 30.4333 9.85547 31.0946 9.85547 31.7873C9.85547 32.4013 9.88696 32.9996 9.93419 33.5821L23.8993 32.7005L12.532 41.9423C13.1617 43.0444 13.886 44.0835 14.7047 45.0596L25.6941 34.0702C27.0009 32.732 27.0009 30.5908 25.6941 29.284Z" fill="#BBD6FF"/>
</g>
</g>
</svg>
