<svg width="331" height="361" viewBox="0 0 331 361" fill="none" xmlns="http://www.w3.org/2000/svg">
<path d="M216.14 99.8153C215.128 95.2623 211.966 81.224 193.501 54.5385C187.304 45.559 180.475 36.8325 173.139 28.4854L164.792 19L156.445 28.4854C149.236 36.8325 142.407 45.559 136.083 54.5385C117.618 81.224 114.457 95.1358 113.445 99.8153C112.054 106.265 111.295 110.186 111.295 115.624C111.295 130.674 116.733 144.966 126.724 155.589C136.842 166.466 150.248 172.41 164.539 172.41C178.831 172.41 192.363 166.466 202.354 155.589C212.346 144.839 217.784 130.674 217.784 115.624C218.29 110.186 217.657 106.392 216.14 99.8153ZM155.433 102.977C148.604 112.715 144.557 120.81 143.166 127.133C142.407 130.548 142.154 132.192 142.154 134.468C142.154 135.986 142.28 137.504 142.533 138.895C137.095 132.698 133.933 124.477 133.933 115.624C133.933 112.462 134.313 110.186 135.451 105.001C137.474 95.6417 143.924 83.2475 154.422 67.9445C157.71 63.1386 161.251 58.4591 164.919 53.7797C168.586 58.3326 172.128 63.1386 175.416 67.9445C185.913 83.121 192.363 95.6417 194.387 105.001C195.525 110.186 195.904 112.462 195.904 115.624C195.904 124.477 192.869 132.698 187.304 138.895C187.557 137.377 187.684 135.986 187.684 134.468C187.684 132.192 187.431 130.548 186.672 127.133C185.281 120.936 181.107 112.715 174.404 102.977C172.001 99.4359 169.345 96.0211 166.689 92.7329L164.919 90.4564L163.148 92.7329C160.492 96.0211 157.836 99.4359 155.433 102.977Z" fill="#FF5B00"/>
<path d="M330.091 195.145C330.091 189.707 329.838 184.269 329.332 178.957L217.278 186.039L307.958 112.306C302.9 103.453 296.955 95.2328 290.379 87.5181L202.861 175.036C192.363 185.533 192.363 202.734 202.861 213.231L291.138 301.508C297.714 293.793 303.532 285.319 308.591 276.466L217.278 202.228L329.459 209.31C329.838 204.757 330.091 199.951 330.091 195.145Z" fill="#BBD6FF"/>
<path d="M146.834 231.063L57.5449 320.352C65.1331 326.929 73.4803 332.746 82.2068 337.932H82.7127L157.837 245.481L150.628 359.558C155.434 359.938 160.24 360.191 165.046 360.191C170.61 360.191 176.049 359.938 181.36 359.432L174.152 245.607L248.77 337.426C257.623 332.24 265.843 326.296 273.558 319.593L185.155 231.19C174.531 220.44 157.331 220.44 146.834 231.063Z" fill="#BBD6FF"/>
<path d="M127.23 175.163L39.7121 87.6445C33.1355 95.3593 27.1914 103.58 22.1325 112.433L112.813 186.166L0.758837 179.083C0.252951 184.395 0 189.707 0 195.272C0 200.204 0.252943 205.01 0.632357 209.69L112.813 202.607L21.5002 276.846C26.559 285.699 32.3767 294.046 38.9532 301.887L127.23 213.61C137.727 202.86 137.727 185.66 127.23 175.163Z" fill="#BBD6FF"/>
</svg>
