<svg width="540" height="156" viewBox="0 0 540 156" fill="none" xmlns="http://www.w3.org/2000/svg">
<path d="M520 156H20C9.005 156 0 147.22 0 136.5V19.5C0 8.77989 9.005 1.52588e-05 20 1.52588e-05H520C530.995 1.52588e-05 540 8.77989 540 19.5V136.5C540 147.22 530.995 156 520 156Z" fill="black"/>
<path d="M38.855 28.5485C37.68 29.7478 37 31.6149 37 34.0329V120.281C37 122.699 37.68 124.567 38.855 125.766L39.145 126.029L88.715 77.7178V76.577L39.145 28.2658L38.855 28.5485Z" fill="white"/>
<path d="M111.22 93.8296L94.7148 77.7177V76.577L111.24 60.4651L111.61 60.6747L131.18 71.5313C136.765 74.6123 136.765 79.6823 131.18 82.7828L111.61 93.62L111.22 93.8296V93.8296Z" fill="white"/>
<path d="M108.61 96.62L91.715 80.1474L41.855 128.766C43.71 130.667 46.735 130.896 50.175 128.995L108.61 96.62" fill="white"/>
<path d="M108.61 57.6748L50.175 25.2999C46.735 23.4182 43.71 23.6473 41.855 25.5485L91.715 74.1474L108.61 57.6748Z" fill="white"/>
<path d="M189.785 39.0981C189.785 42.3546 188.785 44.9627 186.815 46.9078C184.55 49.2137 181.6 50.374 177.985 50.374C174.53 50.374 171.58 49.1942 169.16 46.8688C166.735 44.5093 165.525 41.6136 165.525 38.1475C165.525 34.6813 166.735 31.7856 169.16 29.4456C171.58 27.1007 174.53 25.921 177.985 25.921C179.705 25.921 181.345 26.2671 182.91 26.9106C184.47 27.559 185.74 28.4365 186.66 29.5187L184.57 31.576C182.965 29.7283 180.78 28.8167 177.985 28.8167C175.465 28.8167 173.28 29.6747 171.425 31.4053C169.59 33.1408 168.67 35.3882 168.67 38.1475C168.67 40.9067 169.59 43.1736 171.425 44.9091C173.28 46.6202 175.465 47.4977 177.985 47.4977C180.66 47.4977 182.91 46.6202 184.685 44.8896C185.855 43.744 186.52 42.1645 186.695 40.1462H177.985V37.3285H189.605C189.745 37.9378 189.785 38.5277 189.785 39.0981V39.0981Z" fill="white"/>
<path d="M208.22 29.3286H197.305V36.7386H207.145V39.5563H197.305V46.9663H208.22V49.8377H194.215V26.4572H208.22V29.3286Z" fill="white"/>
<path d="M221.23 49.8377H218.14V29.3286H211.445V26.4572H227.93V29.3286H221.23V49.8377V49.8377Z" fill="white"/>
<path d="M239.86 49.8377V26.4572H242.945V49.8377H239.86Z" fill="white"/>
<path d="M256.62 49.8377H253.555V29.3286H246.835V26.4572H263.34V29.3286H256.62V49.8377Z" fill="white"/>
<path d="M294.55 46.8298C292.185 49.1942 289.255 50.374 285.76 50.374C282.245 50.374 279.315 49.1942 276.95 46.8298C274.59 44.4703 273.415 41.5746 273.415 38.1475C273.415 34.7203 274.59 31.8246 276.95 29.4651C279.315 27.1007 282.245 25.921 285.76 25.921C289.235 25.921 292.165 27.1007 294.53 29.4846C296.91 31.8636 298.085 34.7398 298.085 38.1475C298.085 41.5746 296.91 44.4703 294.55 46.8298ZM279.235 44.8701C281.015 46.6202 283.18 47.4977 285.76 47.4977C288.32 47.4977 290.505 46.6202 292.265 44.8701C294.04 43.12 294.94 40.8726 294.94 38.1475C294.94 35.4223 294.04 33.175 292.265 31.4248C290.505 29.6747 288.32 28.7972 285.76 28.7972C283.18 28.7972 281.015 29.6747 279.235 31.4248C277.46 33.175 276.56 35.4223 276.56 38.1475C276.56 40.8726 277.46 43.12 279.235 44.8701V44.8701Z" fill="white"/>
<path d="M302.42 49.8377V26.4572H306.17L317.83 44.641H317.965L317.83 40.1462V26.4572H320.915V49.8377H317.695L305.485 30.757H305.35L305.485 35.2712V49.8377H302.42V49.8377Z" fill="white"/>
<path d="M272.655 83.9823C263.26 83.9823 255.585 90.9535 255.585 100.572C255.585 110.112 263.26 117.157 272.655 117.157C282.07 117.157 289.745 110.112 289.745 100.572C289.745 90.9535 282.07 83.9823 272.655 83.9823ZM272.655 110.624C267.5 110.624 263.065 106.476 263.065 100.572C263.065 94.5903 267.5 90.5148 272.655 90.5148C277.81 90.5148 282.265 94.5903 282.265 100.572C282.265 106.476 277.81 110.624 272.655 110.624V110.624ZM235.41 83.9823C225.995 83.9823 218.34 90.9535 218.34 100.572C218.34 110.112 225.995 117.157 235.41 117.157C244.82 117.157 252.48 110.112 252.48 100.572C252.48 90.9535 244.82 83.9823 235.41 83.9823ZM235.41 110.624C230.25 110.624 225.8 106.476 225.8 100.572C225.8 94.5903 230.25 90.5148 235.41 90.5148C240.565 90.5148 245 94.5903 245 100.572C245 106.476 240.565 110.624 235.41 110.624ZM191.09 89.0669V96.1161H208.355C207.85 100.055 206.5 102.951 204.43 104.969C201.91 107.407 197.985 110.112 191.09 110.112C180.465 110.112 172.145 101.752 172.145 91.3923C172.145 81.0329 180.465 72.6723 191.09 72.6723C196.835 72.6723 201.015 74.8611 204.1 77.6984L209.195 72.7308C204.88 68.7138 199.14 65.6279 191.09 65.6279C176.52 65.6279 164.275 77.1865 164.275 91.3923C164.275 105.598 176.52 117.157 191.09 117.157C198.965 117.157 204.88 114.641 209.53 109.922C214.295 105.276 215.78 98.7438 215.78 93.469C215.78 91.831 215.64 90.3246 215.39 89.0669H191.09ZM372.32 94.5318C370.915 90.8219 366.58 83.9823 357.75 83.9823C349 83.9823 341.715 90.7049 341.715 100.572C341.715 109.864 348.925 117.157 358.59 117.157C366.405 117.157 370.915 112.511 372.77 109.805L366.97 106.037C365.035 108.796 362.4 110.624 358.59 110.624C354.805 110.624 352.09 108.933 350.35 105.598L373.105 96.4184L372.32 94.5318V94.5318ZM349.12 100.055C348.925 93.6591 354.215 90.3831 358.005 90.3831C360.975 90.3831 363.495 91.831 364.335 93.9029L349.12 100.055V100.055ZM330.625 116.147H338.105V67.3975H330.625V116.147ZM318.375 87.6775H318.125C316.445 85.7373 313.24 83.9823 309.18 83.9823C300.66 83.9823 292.87 91.2753 292.87 100.626C292.87 109.922 300.66 117.157 309.18 117.157C313.24 117.157 316.445 115.387 318.125 113.388H318.375V115.767C318.375 122.11 314.9 125.517 309.295 125.517C304.725 125.517 301.89 122.3 300.72 119.594L294.215 122.241C296.09 126.638 301.055 132.05 309.295 132.05C318.065 132.05 325.465 127.019 325.465 114.778V84.9914H318.375V87.6775V87.6775ZM309.82 110.624C304.665 110.624 300.35 106.417 300.35 100.626C300.35 94.7804 304.665 90.5148 309.82 90.5148C314.9 90.5148 318.905 94.7804 318.905 100.626C318.905 106.417 314.9 110.624 309.82 110.624V110.624ZM407.34 67.3975H389.45V116.147H396.91V97.6761H407.34C415.625 97.6761 423.75 91.831 423.75 82.5344C423.75 73.2426 415.605 67.3975 407.34 67.3975V67.3975ZM407.535 90.895H396.91V74.1786H407.535C413.105 74.1786 416.285 78.688 416.285 82.5344C416.285 86.3076 413.105 90.895 407.535 90.895ZM453.65 83.8896C448.26 83.8896 442.655 86.2101 440.35 91.3533L446.97 94.0589C448.395 91.3533 451.015 90.4758 453.785 90.4758C457.655 90.4758 461.58 92.7426 461.64 96.745V97.2569C460.29 96.4964 457.4 95.3703 453.845 95.3703C446.715 95.3703 439.45 99.1971 439.45 106.339C439.45 112.872 445.29 117.079 451.855 117.079C456.875 117.079 459.645 114.87 461.385 112.301H461.64V116.069H468.845V97.369C468.845 88.7256 462.225 83.8896 453.65 83.8896ZM452.75 110.605C450.31 110.605 446.91 109.425 446.91 106.476C446.91 102.702 451.15 101.254 454.82 101.254C458.105 101.254 459.645 101.961 461.64 102.892C461.055 107.407 457.07 110.605 452.75 110.605V110.605ZM495.095 84.9573L486.52 106.09H486.265L477.4 84.9573H469.355L482.675 114.49L475.075 130.924H482.87L503.395 84.9573H495.095V84.9573ZM427.85 116.147H435.33V67.3975H427.85V116.147Z" fill="white"/>
</svg>
