<svg width="572" height="461" viewBox="0 0 572 461" fill="none" xmlns="http://www.w3.org/2000/svg">
<path d="M231.48 409.406H248.406V414.862H243.198V457.394H236.688V414.862H231.48V409.406ZM253.943 409.406H260.267C261.673 409.406 262.871 409.902 263.863 410.894C264.855 411.886 265.351 413.085 265.351 414.49V452.31C265.351 453.715 264.855 454.914 263.863 455.906C262.871 456.898 261.673 457.394 260.267 457.394H253.943C252.538 457.394 251.339 456.898 250.347 455.906C249.355 454.914 248.859 453.715 248.859 452.31V414.49C248.859 413.085 249.355 411.886 250.347 410.894C251.339 409.902 252.538 409.406 253.943 409.406ZM256.175 414.862C255.969 414.862 255.783 414.945 255.617 415.11C255.452 415.234 255.369 415.42 255.369 415.668V451.132C255.369 451.38 255.452 451.587 255.617 451.752C255.783 451.876 255.969 451.938 256.175 451.938H258.097C258.304 451.938 258.469 451.876 258.593 451.752C258.759 451.587 258.841 451.38 258.841 451.132V415.668C258.841 415.42 258.759 415.234 258.593 415.11C258.469 414.945 258.304 414.862 258.097 414.862H256.175ZM278.895 409.406H290.303C291.709 409.406 292.907 409.902 293.899 410.894C294.891 411.886 295.387 413.085 295.387 414.49V428.688C295.387 430.672 294.54 432.139 292.845 433.09C294.54 434.082 295.387 435.57 295.387 437.554V452.31C295.387 453.715 294.891 454.914 293.899 455.906C292.907 456.898 291.709 457.394 290.303 457.394H278.895V409.406ZM285.405 414.862V430.548H288.133C288.34 430.548 288.505 430.465 288.629 430.3C288.795 430.135 288.877 429.949 288.877 429.742V415.668C288.877 415.42 288.795 415.234 288.629 415.11C288.505 414.945 288.34 414.862 288.133 414.862H285.405ZM285.405 435.694V451.938H288.133C288.34 451.938 288.505 451.876 288.629 451.752C288.795 451.587 288.877 451.38 288.877 451.132V436.5C288.877 436.252 288.795 436.066 288.629 435.942C288.505 435.777 288.34 435.694 288.133 435.694H285.405ZM297.789 409.406H311.615V414.862H304.299V430.238H311.057V435.694H304.299V451.938H311.615V457.394H297.789V409.406ZM325.161 409.406H331.671V432.532C331.671 432.739 331.753 432.925 331.919 433.09C332.084 433.255 332.27 433.338 332.477 433.338H334.399C334.605 433.338 334.771 433.255 334.895 433.09C335.06 432.925 335.143 432.739 335.143 432.532V409.406H341.653V434.144C341.653 435.549 341.219 436.686 340.351 437.554C339.524 438.381 338.408 438.794 337.003 438.794H336.693V457.394H330.183V438.794H329.811C328.405 438.794 327.269 438.381 326.401 437.554C325.574 436.686 325.161 435.549 325.161 434.144V409.406ZM349.138 409.406H355.462C356.867 409.406 358.066 409.902 359.058 410.894C360.05 411.886 360.546 413.085 360.546 414.49V452.31C360.546 453.715 360.05 454.914 359.058 455.906C358.066 456.898 356.867 457.394 355.462 457.394H349.138C347.732 457.394 346.534 456.898 345.542 455.906C344.55 454.914 344.054 453.715 344.054 452.31V414.49C344.054 413.085 344.55 411.886 345.542 410.894C346.534 409.902 347.732 409.406 349.138 409.406ZM351.37 414.862C351.163 414.862 350.977 414.945 350.812 415.11C350.646 415.234 350.564 415.42 350.564 415.668V451.132C350.564 451.38 350.646 451.587 350.812 451.752C350.977 451.876 351.163 451.938 351.37 451.938H353.292C353.498 451.938 353.664 451.876 353.788 451.752C353.953 451.587 354.036 451.38 354.036 451.132V415.668C354.036 415.42 353.953 415.234 353.788 415.11C353.664 414.945 353.498 414.862 353.292 414.862H351.37ZM362.947 409.406H369.457V451.132C369.457 451.38 369.539 451.587 369.705 451.752C369.87 451.876 370.056 451.938 370.263 451.938H372.185C372.391 451.938 372.557 451.876 372.681 451.752C372.846 451.587 372.929 451.38 372.929 451.132V409.406H379.439V452.31C379.439 453.715 378.943 454.914 377.951 455.906C376.959 456.898 375.76 457.394 374.355 457.394H368.031C366.625 457.394 365.427 456.898 364.435 455.906C363.443 454.914 362.947 453.715 362.947 452.31V409.406ZM381.84 409.406H393.248C394.653 409.406 395.852 409.902 396.844 410.894C397.836 411.886 398.332 413.085 398.332 414.49V434.144C398.332 436.087 397.484 437.554 395.79 438.546L399.138 457.394H392.566L389.466 439.228H388.35V457.394H381.84V409.406ZM388.35 414.862V433.772H391.078C391.284 433.772 391.45 433.71 391.574 433.586C391.739 433.421 391.822 433.235 391.822 433.028V415.668C391.822 415.42 391.739 415.234 391.574 415.11C391.45 414.945 391.284 414.862 391.078 414.862H388.35ZM412.542 409.406H423.95C425.355 409.406 426.554 409.902 427.546 410.894C428.538 411.886 429.034 413.085 429.034 414.49V428.688C429.034 430.672 428.186 432.139 426.492 433.09C428.186 434.082 429.034 435.57 429.034 437.554V452.31C429.034 453.715 428.538 454.914 427.546 455.906C426.554 456.898 425.355 457.394 423.95 457.394H412.542V409.406ZM419.052 414.862V430.548H421.78C421.986 430.548 422.152 430.465 422.276 430.3C422.441 430.135 422.524 429.949 422.524 429.742V415.668C422.524 415.42 422.441 415.234 422.276 415.11C422.152 414.945 421.986 414.862 421.78 414.862H419.052ZM419.052 435.694V451.938H421.78C421.986 451.938 422.152 451.876 422.276 451.752C422.441 451.587 422.524 451.38 422.524 451.132V436.5C422.524 436.252 422.441 436.066 422.276 435.942C422.152 435.777 421.986 435.694 421.78 435.694H419.052ZM431.435 409.406H445.261V414.862H437.945V430.238H444.703V435.694H437.945V451.938H445.261V457.394H431.435V409.406ZM447.664 425.216V414.49C447.664 413.085 448.16 411.886 449.152 410.894C450.144 409.902 451.342 409.406 452.748 409.406H459.072C460.477 409.406 461.676 409.902 462.668 410.894C463.66 411.886 464.156 413.085 464.156 414.49V422.86H457.646V415.668C457.646 415.42 457.563 415.234 457.398 415.11C457.274 414.945 457.108 414.862 456.902 414.862H454.98C454.773 414.862 454.587 414.945 454.422 415.11C454.256 415.234 454.174 415.42 454.174 415.668V424.1C454.174 424.72 454.504 425.485 455.166 426.394C455.868 427.303 456.716 428.275 457.708 429.308C458.7 430.3 459.671 431.354 460.622 432.47C461.614 433.545 462.44 434.743 463.102 436.066C463.804 437.389 464.156 438.649 464.156 439.848V452.31C464.156 453.715 463.66 454.914 462.668 455.906C461.676 456.898 460.477 457.394 459.072 457.394H452.748C451.342 457.394 450.144 456.898 449.152 455.906C448.16 454.914 447.664 453.715 447.664 452.31V442.452H454.174V451.132C454.174 451.38 454.256 451.587 454.422 451.752C454.587 451.876 454.773 451.938 454.98 451.938H456.902C457.108 451.938 457.274 451.876 457.398 451.752C457.563 451.587 457.646 451.38 457.646 451.132V441.026C457.646 440.406 457.294 439.641 456.592 438.732C455.93 437.823 455.104 436.872 454.112 435.88C453.161 434.888 452.19 433.855 451.198 432.78C450.206 431.664 449.358 430.445 448.656 429.122C447.994 427.799 447.664 426.497 447.664 425.216ZM464.68 409.406H481.606V414.862H476.398V457.394H469.888V414.862H464.68V409.406ZM495.079 425.216V414.49C495.079 413.085 495.575 411.886 496.567 410.894C497.559 409.902 498.758 409.406 500.163 409.406H506.487C507.893 409.406 509.091 409.902 510.083 410.894C511.075 411.886 511.571 413.085 511.571 414.49V422.86H505.061V415.668C505.061 415.42 504.979 415.234 504.813 415.11C504.689 414.945 504.524 414.862 504.317 414.862H502.395C502.189 414.862 502.003 414.945 501.837 415.11C501.672 415.234 501.589 415.42 501.589 415.668V424.1C501.589 424.72 501.92 425.485 502.581 426.394C503.284 427.303 504.131 428.275 505.123 429.308C506.115 430.3 507.087 431.354 508.037 432.47C509.029 433.545 509.856 434.743 510.517 436.066C511.22 437.389 511.571 438.649 511.571 439.848V452.31C511.571 453.715 511.075 454.914 510.083 455.906C509.091 456.898 507.893 457.394 506.487 457.394H500.163C498.758 457.394 497.559 456.898 496.567 455.906C495.575 454.914 495.079 453.715 495.079 452.31V442.452H501.589V451.132C501.589 451.38 501.672 451.587 501.837 451.752C502.003 451.876 502.189 451.938 502.395 451.938H504.317C504.524 451.938 504.689 451.876 504.813 451.752C504.979 451.587 505.061 451.38 505.061 451.132V441.026C505.061 440.406 504.71 439.641 504.007 438.732C503.346 437.823 502.519 436.872 501.527 435.88C500.577 434.888 499.605 433.855 498.613 432.78C497.621 431.664 496.774 430.445 496.071 429.122C495.41 427.799 495.079 426.497 495.079 425.216ZM513.972 409.406H527.798V414.862H520.482V430.238H527.24V435.694H520.482V451.938H527.798V457.394H513.972V409.406ZM530.201 409.406H536.711V451.938H544.027V457.394H530.201V409.406ZM544.553 409.406H558.379V414.862H551.063V430.238H557.821V435.694H551.063V457.394H544.553V409.406Z" fill="white"/>
<path d="M231.52 146.969H272.836L287.234 309.416L301.945 146.969H342.948V389.231H311.335V249.32L297.876 389.231H276.592L263.133 249.32V389.231H231.52V146.969ZM348.761 146.969H381.626V389.231H348.761V146.969ZM387.445 146.969H420.31L437.838 269.665V146.969H470.703V389.231H437.838L420.31 266.535V389.231H387.445V146.969ZM476.565 226.784V172.635C476.565 165.54 479.069 159.489 484.077 154.481C489.085 149.473 495.136 146.969 502.231 146.969H534.157C541.251 146.969 547.303 149.473 552.311 154.481C557.319 159.489 559.823 165.54 559.823 172.635V214.89H526.958V178.582C526.958 177.33 526.54 176.391 525.706 175.765C525.08 174.93 524.245 174.513 523.202 174.513H513.499C512.455 174.513 511.516 174.93 510.682 175.765C509.847 176.391 509.43 177.33 509.43 178.582V221.15C509.43 224.28 511.099 228.14 514.438 232.731C517.985 237.322 522.263 242.225 527.271 247.442C532.279 252.45 537.182 257.771 541.982 263.405C546.99 268.83 551.163 274.882 554.502 281.559C558.049 288.236 559.823 294.601 559.823 300.652V363.565C559.823 370.66 557.319 376.711 552.311 381.719C547.303 386.727 541.251 389.231 534.157 389.231H502.231C495.136 389.231 489.085 386.727 484.077 381.719C479.069 376.711 476.565 370.66 476.565 363.565V313.798H509.43V357.618C509.43 358.87 509.847 359.913 510.682 360.748C511.516 361.374 512.455 361.687 513.499 361.687H523.202C524.245 361.687 525.08 361.374 525.706 360.748C526.54 359.913 526.958 358.87 526.958 357.618V306.599C526.958 303.469 525.184 299.609 521.637 295.018C518.298 290.427 514.125 285.628 509.117 280.62C504.317 275.612 499.414 270.395 494.406 264.97C489.398 259.336 485.12 253.18 481.573 246.503C478.234 239.826 476.565 233.253 476.565 226.784Z" fill="white"/>
<path d="M44.8352 460.995C15.5726 460.995 0 445.361 0 414.51V327.874H43.8967V417.891C43.8967 424.231 45.3129 427.19 49.5615 427.19H51.4498C55.2263 427.19 57.1146 424.231 57.1146 417.891V319.003C57.1146 312.24 52.3939 308.013 43.8967 308.013H25.4917V271.667H44.3687C52.866 271.667 57.1146 267.863 57.1146 260.677V190.104C57.1146 184.609 55.2263 180.805 51.4498 180.805H49.5615C45.3129 180.805 43.8967 184.609 43.8967 190.104V253.919H0V193.063C0 162.634 15.1005 147 44.8352 147H55.6927C85.8995 147 101 163.057 101 193.063V251.383C101 269.131 94.3911 281.812 81.6508 288.574C94.3967 295.337 101 307.168 101 323.652V414.515C101 445.366 85.4274 461 55.6927 461H44.8352V460.995Z" fill="white"/>
<path d="M154.723 460.995C124.881 460.995 109 445.361 109 414.51V327.874H153.766V417.891C153.766 424.231 155.21 427.19 159.543 427.19H161.469C165.32 427.19 167.246 424.231 167.246 417.891V319.003C167.246 308.013 167.246 308.013 167.246 308.013V297.592V280.503V271.667C167.246 271.667 167.246 267.863 167.246 260.677V190.104C167.246 184.609 165.32 180.805 161.469 180.805H159.543C155.21 180.805 153.766 184.609 153.766 190.104V339.779L109 332.303V193.063C109 162.634 124.4 147 154.723 147H165.796C196.6 147 212 163.057 212 193.063V251.383C212 269.131 212 289.582 212 289.582C212 289.582 212 307.168 212 323.652V414.515C212 445.366 196.119 461 165.796 461H154.723V460.995Z" fill="white"/>
<path d="M560 125L227.5 125C192.982 125 165 97.0178 165 62.5C165 27.9822 192.982 5.76649e-06 227.5 8.81185e-06L560 3.8147e-05L560 125Z" fill="#BBD6FF"/>
<path d="M209.16 31.9581V22.6161C209.16 21.3921 209.592 20.3481 210.456 19.4841C211.32 18.6201 212.364 18.1881 213.588 18.1881H219.096C220.32 18.1881 221.364 18.6201 222.228 19.4841C223.092 20.3481 223.524 21.3921 223.524 22.6161V29.9061H217.854V23.6421C217.854 23.4261 217.782 23.2641 217.638 23.1561C217.53 23.0121 217.386 22.9401 217.206 22.9401H215.532C215.352 22.9401 215.19 23.0121 215.046 23.1561C214.902 23.2641 214.83 23.4261 214.83 23.6421V30.9861C214.83 31.5261 215.118 32.1921 215.694 32.9841C216.306 33.7761 217.044 34.6221 217.908 35.5221C218.772 36.3861 219.618 37.3041 220.446 38.2761C221.31 39.2121 222.03 40.2561 222.606 41.4081C223.218 42.5601 223.524 43.6581 223.524 44.7021V55.5561C223.524 56.7801 223.092 57.8241 222.228 58.6881C221.364 59.5521 220.32 59.9841 219.096 59.9841H213.588C212.364 59.9841 211.32 59.5521 210.456 58.6881C209.592 57.8241 209.16 56.7801 209.16 55.5561V46.9701H214.83V54.5301C214.83 54.7461 214.902 54.9261 215.046 55.0701C215.19 55.1781 215.352 55.2321 215.532 55.2321H217.206C217.386 55.2321 217.53 55.1781 217.638 55.0701C217.782 54.9261 217.854 54.7461 217.854 54.5301V45.7281C217.854 45.1881 217.548 44.5221 216.936 43.7301C216.36 42.9381 215.64 42.1101 214.776 41.2461C213.948 40.3821 213.102 39.4821 212.238 38.5461C211.374 37.5741 210.636 36.5121 210.024 35.3601C209.448 34.2081 209.16 33.0741 209.16 31.9581ZM231.123 18.1881H236.631C237.855 18.1881 238.899 18.6201 239.763 19.4841C240.627 20.3481 241.059 21.3921 241.059 22.6161V59.9841H235.389V43.8381H232.365V59.9841H226.695V22.6161C226.695 21.3921 227.127 20.3481 227.991 19.4841C228.855 18.6201 229.899 18.1881 231.123 18.1881ZM233.067 22.9401C232.887 22.9401 232.725 23.0121 232.581 23.1561C232.437 23.2641 232.365 23.4261 232.365 23.6421V39.0861H235.389V23.6421C235.389 23.4261 235.317 23.2641 235.173 23.1561C235.065 23.0121 234.921 22.9401 234.741 22.9401H233.067ZM244.23 18.1881H249.9V54.5301C249.9 54.7461 249.972 54.9261 250.116 55.0701C250.26 55.1781 250.422 55.2321 250.602 55.2321H252.276C252.456 55.2321 252.6 55.1781 252.708 55.0701C252.852 54.9261 252.924 54.7461 252.924 54.5301V18.1881H258.594V55.5561C258.594 56.7801 258.162 57.8241 257.298 58.6881C256.434 59.5521 255.39 59.9841 254.166 59.9841H248.658C247.434 59.9841 246.39 59.5521 245.526 58.6881C244.662 57.8241 244.23 56.7801 244.23 55.5561V18.1881ZM261.766 18.1881H267.436L270.46 39.3561V18.1881H276.13V59.9841H270.46L267.436 38.8161V59.9841H261.766V18.1881ZM283.729 18.1881H289.237C290.461 18.1881 291.505 18.6201 292.369 19.4841C293.233 20.3481 293.665 21.3921 293.665 22.6161V59.9841H287.995V43.8381H284.971V59.9841H279.301V22.6161C279.301 21.3921 279.733 20.3481 280.597 19.4841C281.461 18.6201 282.505 18.1881 283.729 18.1881ZM285.673 22.9401C285.493 22.9401 285.331 23.0121 285.187 23.1561C285.043 23.2641 284.971 23.4261 284.971 23.6421V39.0861H287.995V23.6421C287.995 23.4261 287.923 23.2641 287.779 23.1561C287.671 23.0121 287.527 22.9401 287.347 22.9401H285.673ZM312.049 18.1881H317.557C318.781 18.1881 319.825 18.6201 320.689 19.4841C321.553 20.3481 321.985 21.3921 321.985 22.6161V59.9841H316.315V43.8381H313.291V59.9841H307.621V22.6161C307.621 21.3921 308.053 20.3481 308.917 19.4841C309.781 18.6201 310.825 18.1881 312.049 18.1881ZM313.993 22.9401C313.813 22.9401 313.651 23.0121 313.507 23.1561C313.363 23.2641 313.291 23.4261 313.291 23.6421V39.0861H316.315V23.6421C316.315 23.4261 316.243 23.2641 316.099 23.1561C315.991 23.0121 315.847 22.9401 315.667 22.9401H313.993ZM325.157 18.1881H330.827L333.851 39.3561V18.1881H339.521V59.9841H333.851L330.827 38.8161V59.9841H325.157V18.1881ZM342.692 18.1881H352.628C353.852 18.1881 354.896 18.6201 355.76 19.4841C356.624 20.3481 357.056 21.3921 357.056 22.6161V55.5561C357.056 56.7801 356.624 57.8241 355.76 58.6881C354.896 59.5521 353.852 59.9841 352.628 59.9841H342.692V18.1881ZM348.362 22.9401V55.2321H350.738C350.918 55.2321 351.062 55.1781 351.17 55.0701C351.314 54.9261 351.386 54.7461 351.386 54.5301V23.6421C351.386 23.4261 351.314 23.2641 351.17 23.1561C351.062 23.0121 350.918 22.9401 350.738 22.9401H348.362ZM375.44 18.1881H380.948C382.172 18.1881 383.216 18.6201 384.08 19.4841C384.944 20.3481 385.376 21.3921 385.376 22.6161V29.9061H379.706V23.6421C379.706 23.4261 379.634 23.2641 379.49 23.1561C379.382 23.0121 379.238 22.9401 379.058 22.9401H377.384C377.204 22.9401 377.042 23.0121 376.898 23.1561C376.754 23.2641 376.682 23.4261 376.682 23.6421V54.5301C376.682 54.7461 376.754 54.9261 376.898 55.0701C377.042 55.1781 377.204 55.2321 377.384 55.2321H379.058C379.238 55.2321 379.382 55.1781 379.49 55.0701C379.634 54.9261 379.706 54.7461 379.706 54.5301V48.2661H385.376V55.5561C385.376 56.7801 384.944 57.8241 384.08 58.6881C383.216 59.5521 382.172 59.9841 380.948 59.9841H375.44C374.216 59.9841 373.172 59.5521 372.308 58.6881C371.444 57.8241 371.012 56.7801 371.012 55.5561V22.6161C371.012 21.3921 371.444 20.3481 372.308 19.4841C373.172 18.6201 374.216 18.1881 375.44 18.1881ZM392.976 18.1881H398.484C399.708 18.1881 400.752 18.6201 401.616 19.4841C402.48 20.3481 402.912 21.3921 402.912 22.6161V55.5561C402.912 56.7801 402.48 57.8241 401.616 58.6881C400.752 59.5521 399.708 59.9841 398.484 59.9841H392.976C391.752 59.9841 390.708 59.5521 389.844 58.6881C388.98 57.8241 388.548 56.7801 388.548 55.5561V22.6161C388.548 21.3921 388.98 20.3481 389.844 19.4841C390.708 18.6201 391.752 18.1881 392.976 18.1881ZM394.92 22.9401C394.74 22.9401 394.578 23.0121 394.434 23.1561C394.29 23.2641 394.218 23.4261 394.218 23.6421V54.5301C394.218 54.7461 394.29 54.9261 394.434 55.0701C394.578 55.1781 394.74 55.2321 394.92 55.2321H396.594C396.774 55.2321 396.918 55.1781 397.026 55.0701C397.17 54.9261 397.242 54.7461 397.242 54.5301V23.6421C397.242 23.4261 397.17 23.2641 397.026 23.1561C396.918 23.0121 396.774 22.9401 396.594 22.9401H394.92ZM406.083 18.1881H411.753V55.2321H418.125V59.9841H406.083V18.1881ZM419.663 18.1881H429.599C430.823 18.1881 431.867 18.6201 432.731 19.4841C433.595 20.3481 434.027 21.3921 434.027 22.6161V55.5561C434.027 56.7801 433.595 57.8241 432.731 58.6881C431.867 59.5521 430.823 59.9841 429.599 59.9841H419.663V18.1881ZM425.333 22.9401V55.2321H427.709C427.889 55.2321 428.033 55.1781 428.141 55.0701C428.285 54.9261 428.357 54.7461 428.357 54.5301V23.6421C428.357 23.4261 428.285 23.2641 428.141 23.1561C428.033 23.0121 427.889 22.9401 427.709 22.9401H425.333ZM447.983 18.1881H457.919C459.143 18.1881 460.187 18.6201 461.051 19.4841C461.915 20.3481 462.347 21.3921 462.347 22.6161V39.7341C462.347 40.9581 461.915 42.0021 461.051 42.8661C460.187 43.7301 459.143 44.1621 457.919 44.1621H453.653V59.9841H447.983V18.1881ZM453.653 22.9401V39.4101H456.029C456.209 39.4101 456.353 39.3561 456.461 39.2481C456.605 39.1041 456.677 38.9421 456.677 38.7621V23.6421C456.677 23.4261 456.605 23.2641 456.461 23.1561C456.353 23.0121 456.209 22.9401 456.029 22.9401H453.653ZM464.991 18.1881H470.661V55.2321H477.033V59.9841H464.991V18.1881ZM478.571 18.1881H484.241V54.5301C484.241 54.7461 484.313 54.9261 484.457 55.0701C484.601 55.1781 484.763 55.2321 484.943 55.2321H486.617C486.797 55.2321 486.941 55.1781 487.049 55.0701C487.193 54.9261 487.265 54.7461 487.265 54.5301V18.1881H492.935V55.5561C492.935 56.7801 492.503 57.8241 491.639 58.6881C490.775 59.5521 489.731 59.9841 488.507 59.9841H482.999C481.775 59.9841 480.731 59.5521 479.867 58.6881C479.003 57.8241 478.571 56.7801 478.571 55.5561V18.1881ZM496.107 18.1881H501.777L504.801 39.3561V18.1881H510.471V59.9841H504.801L501.777 38.8161V59.9841H496.107V18.1881ZM518.07 18.1881H523.578C524.802 18.1881 525.846 18.6201 526.71 19.4841C527.574 20.3481 528.006 21.3921 528.006 22.6161V29.9061H522.336V23.6421C522.336 23.4261 522.264 23.2641 522.12 23.1561C522.012 23.0121 521.868 22.9401 521.688 22.9401H520.014C519.834 22.9401 519.672 23.0121 519.528 23.1561C519.384 23.2641 519.312 23.4261 519.312 23.6421V54.5301C519.312 54.7461 519.384 54.9261 519.528 55.0701C519.672 55.1781 519.834 55.2321 520.014 55.2321H521.688C521.868 55.2321 522.012 55.1781 522.12 55.0701C522.264 54.9261 522.336 54.7461 522.336 54.5301V41.9481H520.392V37.1421H528.006V55.5561C528.006 56.7801 527.574 57.8241 526.71 58.6881C525.846 59.5521 524.802 59.9841 523.578 59.9841H518.07C516.846 59.9841 515.802 59.5521 514.938 58.6881C514.074 57.8241 513.642 56.7801 513.642 55.5561V22.6161C513.642 21.3921 514.074 20.3481 514.938 19.4841C515.802 18.6201 516.846 18.1881 518.07 18.1881ZM531.177 18.1881H543.219V22.9401H536.847V36.3321H542.733V41.0841H536.847V55.2321H543.219V59.9841H531.177V18.1881ZM209.12 66.8751H214.685L217.017 93.2161L219.296 66.8751H224.49L226.769 93.2161L229.048 66.8751H234.666L230.108 107.897H224.172L221.893 84.7361L219.614 107.897H213.625L209.12 66.8751ZM236.682 66.8751H248.501V71.5391H242.247V84.6831H248.024V89.3471H242.247V103.233H248.501V107.897H236.682V66.8751ZM251.615 66.8751H257.18V103.233H263.434V107.897H251.615V66.8751ZM264.944 66.8751H270.509V103.233H276.763V107.897H264.944V66.8751ZM278.273 66.8751H283.838L286.806 87.6511V66.8751H292.371V107.897H286.806L283.838 87.1211V107.897H278.273V66.8751ZM295.483 66.8751H307.302V71.5391H301.048V84.6831H306.825V89.3471H301.048V103.233H307.302V107.897H295.483V66.8751ZM310.416 80.3901V71.2211C310.416 70.0198 310.84 68.9951 311.688 68.1471C312.536 67.2991 313.561 66.8751 314.762 66.8751H320.168C321.37 66.8751 322.394 67.2991 323.242 68.1471C324.09 68.9951 324.514 70.0198 324.514 71.2211V78.3761H318.949V72.2281C318.949 72.0161 318.879 71.8571 318.737 71.7511C318.631 71.6098 318.49 71.5391 318.313 71.5391H316.67C316.494 71.5391 316.335 71.6098 316.193 71.7511C316.052 71.8571 315.981 72.0161 315.981 72.2281V79.4361C315.981 79.9661 316.264 80.6198 316.829 81.3971C317.43 82.1745 318.154 83.0048 319.002 83.8881C319.85 84.7361 320.681 85.6371 321.493 86.5911C322.341 87.5098 323.048 88.5345 323.613 89.6651C324.214 90.7958 324.514 91.8735 324.514 92.8981V103.551C324.514 104.752 324.09 105.777 323.242 106.625C322.394 107.473 321.37 107.897 320.168 107.897H314.762C313.561 107.897 312.536 107.473 311.688 106.625C310.84 105.777 310.416 104.752 310.416 103.551V95.1241H315.981V102.544C315.981 102.756 316.052 102.933 316.193 103.074C316.335 103.18 316.494 103.233 316.67 103.233H318.313C318.49 103.233 318.631 103.18 318.737 103.074C318.879 102.933 318.949 102.756 318.949 102.544V93.9051C318.949 93.3751 318.649 92.7215 318.048 91.9441C317.483 91.1668 316.776 90.3541 315.928 89.5061C315.116 88.6581 314.285 87.7748 313.437 86.8561C312.589 85.9021 311.865 84.8598 311.264 83.7291C310.699 82.5985 310.416 81.4855 310.416 80.3901ZM327.627 80.3901V71.2211C327.627 70.0198 328.051 68.9951 328.899 68.1471C329.747 67.2991 330.771 66.8751 331.973 66.8751H337.379C338.58 66.8751 339.605 67.2991 340.453 68.1471C341.301 68.9951 341.725 70.0198 341.725 71.2211V78.3761H336.16V72.2281C336.16 72.0161 336.089 71.8571 335.948 71.7511C335.842 71.6098 335.7 71.5391 335.524 71.5391H333.881C333.704 71.5391 333.545 71.6098 333.404 71.7511C333.262 71.8571 333.192 72.0161 333.192 72.2281V79.4361C333.192 79.9661 333.474 80.6198 334.04 81.3971C334.64 82.1745 335.365 83.0048 336.213 83.8881C337.061 84.7361 337.891 85.6371 338.704 86.5911C339.552 87.5098 340.258 88.5345 340.824 89.6651C341.424 90.7958 341.725 91.8735 341.725 92.8981V103.551C341.725 104.752 341.301 105.777 340.453 106.625C339.605 107.473 338.58 107.897 337.379 107.897H331.973C330.771 107.897 329.747 107.473 328.899 106.625C328.051 105.777 327.627 104.752 327.627 103.551V95.1241H333.192V102.544C333.192 102.756 333.262 102.933 333.404 103.074C333.545 103.18 333.704 103.233 333.881 103.233H335.524C335.7 103.233 335.842 103.18 335.948 103.074C336.089 102.933 336.16 102.756 336.16 102.544V93.9051C336.16 93.3751 335.859 92.7215 335.259 91.9441C334.693 91.1668 333.987 90.3541 333.139 89.5061C332.326 88.6581 331.496 87.7748 330.648 86.8561C329.8 85.9021 329.075 84.8598 328.475 83.7291C327.909 82.5985 327.627 81.4855 327.627 80.3901ZM355.423 66.8751H367.242V71.5391H360.988V84.6831H366.765V89.3471H360.988V107.897H355.423V66.8751ZM373.667 66.8751H379.073C380.274 66.8751 381.299 67.2991 382.147 68.1471C382.995 68.9951 383.419 70.0198 383.419 71.2211V103.551C383.419 104.752 382.995 105.777 382.147 106.625C381.299 107.473 380.274 107.897 379.073 107.897H373.667C372.465 107.897 371.441 107.473 370.593 106.625C369.745 105.777 369.321 104.752 369.321 103.551V71.2211C369.321 70.0198 369.745 68.9951 370.593 68.1471C371.441 67.2991 372.465 66.8751 373.667 66.8751ZM375.575 71.5391C375.398 71.5391 375.239 71.6098 375.098 71.7511C374.956 71.8571 374.886 72.0161 374.886 72.2281V102.544C374.886 102.756 374.956 102.933 375.098 103.074C375.239 103.18 375.398 103.233 375.575 103.233H377.218C377.394 103.233 377.536 103.18 377.642 103.074C377.783 102.933 377.854 102.756 377.854 102.544V72.2281C377.854 72.0161 377.783 71.8571 377.642 71.7511C377.536 71.6098 377.394 71.5391 377.218 71.5391H375.575ZM386.531 66.8751H396.283C397.485 66.8751 398.509 67.2991 399.357 68.1471C400.205 68.9951 400.629 70.0198 400.629 71.2211V88.0221C400.629 89.6828 399.905 90.9371 398.456 91.7851L401.318 107.897H395.7L393.05 92.3681H392.096V107.897H386.531V66.8751ZM392.096 71.5391V87.7041H394.428C394.605 87.7041 394.746 87.6511 394.852 87.5451C394.994 87.4038 395.064 87.2448 395.064 87.0681V72.2281C395.064 72.0161 394.994 71.8571 394.852 71.7511C394.746 71.6098 394.605 71.5391 394.428 71.5391H392.096ZM414.897 66.8751H426.716V71.5391H420.462V84.6831H426.239V89.3471H420.462V103.233H426.716V107.897H414.897V66.8751ZM428.795 66.8751H434.36L437.434 93.4281L440.455 66.8751H446.02L440.508 107.897H434.466L428.795 66.8751ZM448.075 66.8751H459.894V71.5391H453.64V84.6831H459.417V89.3471H453.64V103.233H459.894V107.897H448.075V66.8751ZM463.009 66.8751H472.761C473.962 66.8751 474.987 67.2991 475.835 68.1471C476.683 68.9951 477.107 70.0198 477.107 71.2211V88.0221C477.107 89.6828 476.382 90.9371 474.934 91.7851L477.796 107.897H472.178L469.528 92.3681H468.574V107.897H463.009V66.8751ZM468.574 71.5391V87.7041H470.906C471.082 87.7041 471.224 87.6511 471.33 87.5451C471.471 87.4038 471.542 87.2448 471.542 87.0681V72.2281C471.542 72.0161 471.471 71.8571 471.33 71.7511C471.224 71.6098 471.082 71.5391 470.906 71.5391H468.574ZM479.753 66.8751H485.318V86.6441C485.318 86.8208 485.389 86.9798 485.53 87.1211C485.672 87.2625 485.831 87.3331 486.007 87.3331H487.65C487.827 87.3331 487.968 87.2625 488.074 87.1211C488.216 86.9798 488.286 86.8208 488.286 86.6441V66.8751H493.851V88.0221C493.851 89.2235 493.48 90.1951 492.738 90.9371C492.032 91.6438 491.078 91.9971 489.876 91.9971H489.611V107.897H484.046V91.9971H483.728C482.527 91.9971 481.555 91.6438 480.813 90.9371C480.107 90.1951 479.753 89.2235 479.753 88.0221V66.8751ZM501.31 66.8751H506.716C507.917 66.8751 508.942 67.2991 509.79 68.1471C510.638 68.9951 511.062 70.0198 511.062 71.2211V103.551C511.062 104.752 510.638 105.777 509.79 106.625C508.942 107.473 507.917 107.897 506.716 107.897H501.31C500.109 107.897 499.084 107.473 498.236 106.625C497.388 105.777 496.964 104.752 496.964 103.551V71.2211C496.964 70.0198 497.388 68.9951 498.236 68.1471C499.084 67.2991 500.109 66.8751 501.31 66.8751ZM503.218 71.5391C503.041 71.5391 502.882 71.6098 502.741 71.7511C502.6 71.8571 502.529 72.0161 502.529 72.2281V102.544C502.529 102.756 502.6 102.933 502.741 103.074C502.882 103.18 503.041 103.233 503.218 103.233H504.861C505.038 103.233 505.179 103.18 505.285 103.074C505.426 102.933 505.497 102.756 505.497 102.544V72.2281C505.497 72.0161 505.426 71.8571 505.285 71.7511C505.179 71.6098 505.038 71.5391 504.861 71.5391H503.218ZM514.174 66.8751H519.739L522.707 87.6511V66.8751H528.272V107.897H522.707L519.739 87.1211V107.897H514.174V66.8751ZM531.385 66.8751H543.204V71.5391H536.95V84.6831H542.727V89.3471H536.95V103.233H543.204V107.897H531.385V66.8751Z" fill="#031A35"/>
<path d="M52 0C84.0369 0 110 27.9774 110 62.5C110 97.0226 84.0369 125 52 125" fill="#BBD6FF"/>
<path d="M107 0C139.037 0 165 27.9774 165 62.5C165 97.0226 139.037 125 107 125" fill="#BBD6FF"/>
<path d="M0 0C30.3799 0 55 27.9774 55 62.5C55 97.0226 30.3799 125 0 125" fill="#BBD6FF"/>
</svg>
