<svg width="649" height="164" viewBox="0 0 649 164" fill="none" xmlns="http://www.w3.org/2000/svg">
<path d="M8.43599 0.111917H30.5805V69.7088H42.3908V0.111917H64.5353V163.348H42.3908V88.268H30.5805V163.348H8.43599V0.111917ZM87.8875 0.111917H109.399C114.18 0.111917 118.257 1.79911 121.631 5.17351C125.006 8.5479 126.693 12.6253 126.693 17.4057V146.054C126.693 150.835 125.006 154.912 121.631 158.287C118.257 161.661 114.18 163.348 109.399 163.348H87.8875C83.1071 163.348 79.0297 161.661 75.6553 158.287C72.2809 154.912 70.5937 150.835 70.5937 146.054V17.4057C70.5937 12.6253 72.2809 8.5479 75.6553 5.17351C79.0297 1.79911 83.1071 0.111917 87.8875 0.111917ZM95.4799 18.6711C94.7769 18.6711 94.1442 18.9523 93.5818 19.5147C93.0194 19.9365 92.7382 20.5692 92.7382 21.4128V142.047C92.7382 142.891 93.0194 143.594 93.5818 144.156C94.1442 144.578 94.7769 144.789 95.4799 144.789H102.018C102.721 144.789 103.283 144.578 103.705 144.156C104.267 143.594 104.549 142.891 104.549 142.047V21.4128C104.549 20.5692 104.267 19.9365 103.705 19.5147C103.283 18.9523 102.721 18.6711 102.018 18.6711H95.4799ZM130.585 0.111917H188.16V18.6711H170.445V163.348H148.3V18.6711H130.585V0.111917Z" fill="#031A35"/>
<path d="M334.503 53.8913V17.4057C334.503 12.6253 336.19 8.5479 339.564 5.17351C342.939 1.79911 347.016 0.111917 351.797 0.111917H373.308C378.089 0.111917 382.166 1.79911 385.54 5.17351C388.915 8.5479 390.602 12.6253 390.602 17.4057V45.8771H368.458V21.4128C368.458 20.5692 368.176 19.9365 367.614 19.5147C367.192 18.9523 366.63 18.6711 365.927 18.6711H359.389C358.686 18.6711 358.053 18.9523 357.491 19.5147C356.928 19.9365 356.647 20.5692 356.647 21.4128V50.0951C356.647 52.2041 357.772 54.8052 360.022 57.8984C362.412 60.9916 365.294 64.2957 368.669 67.8107C372.043 71.1851 375.347 74.7704 378.581 78.5666C381.955 82.2222 384.767 86.2996 387.017 90.7988C389.407 95.298 390.602 99.5863 390.602 103.664V146.054C390.602 150.835 388.915 154.912 385.54 158.287C382.166 161.661 378.089 163.348 373.308 163.348H351.797C347.016 163.348 342.939 161.661 339.564 158.287C336.19 154.912 334.503 150.835 334.503 146.054V112.521H356.647V142.047C356.647 142.891 356.928 143.594 357.491 144.156C358.053 144.578 358.686 144.789 359.389 144.789H365.927C366.63 144.789 367.192 144.578 367.614 144.156C368.176 143.594 368.458 142.891 368.458 142.047V107.671C368.458 105.562 367.263 102.961 364.872 99.8675C362.623 96.7743 359.811 93.5405 356.436 90.1661C353.203 86.7917 349.898 83.2767 346.524 79.6211C343.15 75.8249 340.267 71.6772 337.877 67.178C335.628 62.6788 334.503 58.2499 334.503 53.8913ZM413.954 0.111917H435.466C440.246 0.111917 444.324 1.79911 447.698 5.17351C451.073 8.5479 452.76 12.6253 452.76 17.4057V163.348H430.615V100.289H418.805V163.348H396.66V17.4057C396.66 12.6253 398.348 8.5479 401.722 5.17351C405.096 1.79911 409.174 0.111917 413.954 0.111917ZM421.547 18.6711C420.844 18.6711 420.211 18.9523 419.649 19.5147C419.086 19.9365 418.805 20.5692 418.805 21.4128V81.7301H430.615V21.4128C430.615 20.5692 430.334 19.9365 429.772 19.5147C429.35 18.9523 428.788 18.6711 428.085 18.6711H421.547ZM458.818 0.111917H480.963V142.047C480.963 142.891 481.244 143.594 481.806 144.156C482.369 144.578 483.001 144.789 483.704 144.789H490.242C490.945 144.789 491.508 144.578 491.929 144.156C492.492 143.594 492.773 142.891 492.773 142.047V0.111917H514.918V146.054C514.918 150.835 513.23 154.912 509.856 158.287C506.482 161.661 502.404 163.348 497.624 163.348H476.112C471.332 163.348 467.254 161.661 463.88 158.287C460.505 154.912 458.818 150.835 458.818 146.054V0.111917ZM520.976 0.111917H543.12L554.931 82.7846V0.111917H577.075V163.348H554.931L543.12 80.6756V163.348H520.976V0.111917ZM600.427 0.111917H621.939C626.72 0.111917 630.797 1.79911 634.171 5.17351C637.546 8.5479 639.233 12.6253 639.233 17.4057V163.348H617.089V100.289H605.278V163.348H583.134V17.4057C583.134 12.6253 584.821 8.5479 588.195 5.17351C591.57 1.79911 595.647 0.111917 600.427 0.111917ZM608.02 18.6711C607.317 18.6711 606.684 18.9523 606.122 19.5147C605.559 19.9365 605.278 20.5692 605.278 21.4128V81.7301H617.089V21.4128C617.089 20.5692 616.807 19.9365 616.245 19.5147C615.823 18.9523 615.261 18.6711 614.558 18.6711H608.02Z" fill="white"/>
<path d="M297.936 85.6839C296.855 80.8121 293.568 65.989 273.973 37.7195C267.375 28.1961 260.128 18.8952 252.439 10.0737L243.654 0L234.864 10.0761C227.173 18.8952 219.928 28.1936 213.33 37.7195C193.742 65.9816 190.448 80.8097 189.365 85.6839C187.831 92.588 187.146 96.6405 187.146 102.393C187.146 118.395 192.96 133.467 203.513 144.827C214.203 156.334 228.459 162.671 243.652 162.671C258.844 162.671 273.095 156.334 283.788 144.827C294.343 133.465 300.154 118.392 300.154 102.393C300.154 96.6478 299.469 92.5954 297.933 85.6839H297.936ZM233.548 88.9782C226.37 99.3356 221.985 107.942 220.515 114.56C219.708 118.194 219.422 119.921 219.422 122.366C219.422 123.968 219.559 125.556 219.828 127.116C214.056 120.532 210.774 111.784 210.774 102.395C210.774 98.9957 211.18 96.5989 212.396 91.1206C214.599 81.201 221.381 67.9968 232.555 51.8701C236.063 46.8125 239.787 41.794 243.652 36.9173C247.526 41.8062 251.25 46.8247 254.745 51.8701C265.919 67.992 272.704 81.1986 274.905 91.1206C276.123 96.5989 276.529 98.9957 276.529 102.393C276.529 111.782 273.247 120.53 267.473 127.113C267.742 125.553 267.878 123.966 267.878 122.364C267.878 119.921 267.592 118.197 266.783 114.557C265.313 107.939 260.93 99.3332 253.752 88.9758C251.187 85.2755 248.433 81.6021 245.562 78.0583L243.649 75.6958L241.737 78.0583C238.87 81.5972 236.114 85.273 233.546 88.9758L233.548 88.9782Z" fill="white"/>
</svg>
