<svg width="376" height="120" viewBox="0 0 376 120" fill="none" xmlns="http://www.w3.org/2000/svg">
<rect width="376" height="120" fill="#FF5B00"/>
<path d="M188.392 44.8019V24.2989C188.392 21.6126 189.34 19.3213 191.236 17.4251C193.132 15.5289 195.424 14.5808 198.11 14.5808H210.198C212.885 14.5808 215.176 15.5289 217.072 17.4251C218.968 19.3213 219.917 21.6126 219.917 24.2989V40.2983H207.473V26.5507C207.473 26.0766 207.315 25.7211 206.999 25.4841C206.762 25.168 206.445 25.01 206.05 25.01H202.376C201.981 25.01 201.626 25.168 201.31 25.4841C200.994 25.7211 200.836 26.0766 200.836 26.5507V42.6686C200.836 43.8538 201.468 45.3154 202.732 47.0536C204.075 48.7919 205.695 50.6486 207.591 52.6238C209.487 54.52 211.344 56.5348 213.161 58.668C215.057 60.7223 216.638 63.0136 217.902 65.5419C219.245 68.0702 219.917 70.4799 219.917 72.7712V96.5926C219.917 99.2789 218.968 101.57 217.072 103.466C215.176 105.363 212.885 106.311 210.198 106.311H198.11C195.424 106.311 193.132 105.363 191.236 103.466C189.34 101.57 188.392 99.2789 188.392 96.5926V77.7488H200.836V94.3408C200.836 94.8149 200.994 95.2099 201.31 95.5259C201.626 95.763 201.981 95.8815 202.376 95.8815H206.05C206.445 95.8815 206.762 95.763 206.999 95.5259C207.315 95.2099 207.473 94.8149 207.473 94.3408V75.023C207.473 73.8379 206.801 72.3762 205.458 70.638C204.194 68.8998 202.614 67.0825 200.717 65.1863C198.9 63.2901 197.043 61.3149 195.147 59.2606C193.251 57.1274 191.631 54.7966 190.288 52.2683C189.024 49.74 188.392 47.2512 188.392 44.8019ZM233.039 14.5808H245.128C247.814 14.5808 250.105 15.5289 252.002 17.4251C253.898 19.3213 254.846 21.6126 254.846 24.2989V106.311H242.402V70.875H235.765V106.311H223.321V24.2989C223.321 21.6126 224.269 19.3213 226.165 17.4251C228.062 15.5289 230.353 14.5808 233.039 14.5808ZM237.306 25.01C236.911 25.01 236.555 25.168 236.239 25.4841C235.923 25.7211 235.765 26.0766 235.765 26.5507V60.4458H242.402V26.5507C242.402 26.0766 242.244 25.7211 241.928 25.4841C241.691 25.168 241.375 25.01 240.98 25.01H237.306ZM258.25 14.5808H270.694V94.3408C270.694 94.8149 270.852 95.2099 271.168 95.5259C271.484 95.763 271.84 95.8815 272.235 95.8815H275.909C276.304 95.8815 276.62 95.763 276.857 95.5259C277.173 95.2099 277.331 94.8149 277.331 94.3408V14.5808H289.775V96.5926C289.775 99.2789 288.827 101.57 286.931 103.466C285.035 105.363 282.743 106.311 280.057 106.311H267.969C265.282 106.311 262.991 105.363 261.095 103.466C259.198 101.57 258.25 99.2789 258.25 96.5926V14.5808ZM293.18 14.5808H305.624L312.26 61.0383V14.5808H324.704V106.311H312.26L305.624 59.8532V106.311H293.18V14.5808ZM337.827 14.5808H349.916C352.602 14.5808 354.893 15.5289 356.789 17.4251C358.686 19.3213 359.634 21.6126 359.634 24.2989V106.311H347.19V70.875H340.553V106.311H328.109V24.2989C328.109 21.6126 329.057 19.3213 330.953 17.4251C332.849 15.5289 335.141 14.5808 337.827 14.5808ZM342.094 25.01C341.699 25.01 341.343 25.168 341.027 25.4841C340.711 25.7211 340.553 26.0766 340.553 26.5507V60.4458H347.19V26.5507C347.19 26.0766 347.032 25.7211 346.716 25.4841C346.479 25.168 346.163 25.01 345.768 25.01H342.094Z" fill="white"/>
<path d="M82.7406 14.5808H95.1846V53.6904H101.821V14.5808H114.265V106.311H101.821V64.1197H95.1846V106.311H82.7406V14.5808ZM127.388 14.5808H139.476C142.163 14.5808 144.454 15.5289 146.35 17.4251C148.246 19.3213 149.195 21.6126 149.195 24.2989V96.5926C149.195 99.2789 148.246 101.57 146.35 103.466C144.454 105.363 142.163 106.311 139.476 106.311H127.388C124.702 106.311 122.41 105.363 120.514 103.466C118.618 101.57 117.67 99.2789 117.67 96.5926V24.2989C117.67 21.6126 118.618 19.3213 120.514 17.4251C122.41 15.5289 124.702 14.5808 127.388 14.5808ZM131.655 25.01C131.259 25.01 130.904 25.168 130.588 25.4841C130.272 25.7211 130.114 26.0766 130.114 26.5507V94.3408C130.114 94.8149 130.272 95.2099 130.588 95.5259C130.904 95.763 131.259 95.8815 131.655 95.8815H135.328C135.723 95.8815 136.04 95.763 136.277 95.5259C136.593 95.2099 136.751 94.8149 136.751 94.3408V26.5507C136.751 26.0766 136.593 25.7211 136.277 25.4841C136.04 25.168 135.723 25.01 135.328 25.01H131.655ZM149.011 14.5808H181.366V25.01H171.41V106.311H158.966V25.01H149.011V14.5808Z" fill="#031A35"/>
<path d="M72.9669 62.8592C72.3622 60.1381 70.5237 51.8585 59.564 36.0684C55.8733 30.7491 51.8202 25.554 47.5194 20.6267L42.6058 15L37.6895 20.6281C33.3874 25.554 29.3356 30.7477 25.645 36.0684C14.6893 51.8544 12.8467 60.1367 12.2407 62.8592C11.383 66.7156 11 68.9791 11 72.192C11 81.1301 14.2515 89.549 20.1541 95.8942C26.1333 102.321 34.1069 105.861 42.6045 105.861C51.102 105.861 59.0729 102.321 65.0534 95.8942C70.9574 89.5476 74.2076 81.1287 74.2076 72.192C74.2076 68.9832 73.8245 66.7197 72.9655 62.8592H72.9669ZM36.9536 64.6993C32.9387 70.4845 30.486 75.2916 29.6639 78.9881C29.2125 81.018 29.0525 81.9825 29.0525 83.3485C29.0525 84.2433 29.1291 85.1298 29.2795 86.0014C26.0512 82.324 24.2155 77.4376 24.2155 72.1934C24.2155 70.2946 24.4426 68.9559 25.1224 65.896C26.3549 60.3553 30.1482 52.98 36.3982 43.9724C38.3598 41.1474 40.4431 38.3443 42.6045 35.6204C44.7712 38.3511 46.8546 41.1542 48.8094 43.9724C55.0594 52.9773 58.854 60.3539 60.0851 65.896C60.7664 68.9559 60.9934 70.2946 60.9934 72.192C60.9934 77.4363 59.1577 82.3226 55.928 86C56.0785 85.1284 56.1551 84.2419 56.1551 83.3471C56.1551 81.9825 55.995 81.0194 55.5423 78.9867C54.7201 75.2902 52.2688 70.4831 48.254 64.6979C46.819 62.6311 45.2788 60.5793 43.6728 58.5999L42.6031 57.2803L41.5334 58.5999C39.9302 60.5766 38.3885 62.6298 36.9522 64.6979L36.9536 64.6993Z" fill="white"/>
</svg>
