<svg width="447" height="489" viewBox="0 0 447 489" fill="none" xmlns="http://www.w3.org/2000/svg">
<path d="M11.72 336.424V285.735C11.72 279.094 14.064 273.429 18.752 268.741C23.44 264.053 29.1047 261.709 35.746 261.709H65.632C72.2733 261.709 77.938 264.053 82.626 268.741C87.314 273.429 89.658 279.094 89.658 285.735V325.29H58.893V291.302C58.893 290.13 58.5023 289.251 57.721 288.665C57.135 287.884 56.3537 287.493 55.377 287.493H46.294C45.3173 287.493 44.4383 287.884 43.657 288.665C42.8757 289.251 42.485 290.13 42.485 291.302V331.15C42.485 334.08 44.0477 337.694 47.173 341.991C50.4937 346.288 54.498 350.879 59.186 355.762C63.874 360.45 68.4643 365.431 72.957 370.705C77.645 375.784 81.5517 381.448 84.677 387.699C87.9977 393.95 89.658 399.907 89.658 405.572V464.465C89.658 471.106 87.314 476.771 82.626 481.459C77.938 486.147 72.2733 488.491 65.632 488.491H35.746C29.1047 488.491 23.44 486.147 18.752 481.459C14.064 476.771 11.72 471.106 11.72 464.465V417.878H42.485V458.898C42.485 460.07 42.8757 461.047 43.657 461.828C44.4383 462.414 45.3173 462.707 46.294 462.707H55.377C56.3537 462.707 57.135 462.414 57.721 461.828C58.5023 461.047 58.893 460.07 58.893 458.898V411.139C58.893 408.209 57.2327 404.595 53.912 400.298C50.7867 396.001 46.88 391.508 42.192 386.82C37.6993 382.132 33.109 377.249 28.421 372.17C23.733 366.896 19.7287 361.134 16.408 354.883C13.2827 348.632 11.72 342.479 11.72 336.424ZM122.101 261.709H151.987C158.628 261.709 164.293 264.053 168.981 268.741C173.669 273.429 176.013 279.094 176.013 285.735V488.491H145.248V400.884H128.84V488.491H98.0749V285.735C98.0749 279.094 100.419 273.429 105.107 268.741C109.795 264.053 115.46 261.709 122.101 261.709ZM132.649 287.493C131.672 287.493 130.793 287.884 130.012 288.665C129.231 289.251 128.84 290.13 128.84 291.302V375.1H145.248V291.302C145.248 290.13 144.857 289.251 144.076 288.665C143.49 287.884 142.709 287.493 141.732 287.493H132.649ZM184.43 261.709H215.195V458.898C215.195 460.07 215.585 461.047 216.367 461.828C217.148 462.414 218.027 462.707 219.004 462.707H228.087C229.063 462.707 229.845 462.414 230.431 461.828C231.212 461.047 231.603 460.07 231.603 458.898V261.709H262.368V464.465C262.368 471.106 260.024 476.771 255.336 481.459C250.648 486.147 244.983 488.491 238.342 488.491H208.456C201.814 488.491 196.15 486.147 191.462 481.459C186.774 476.771 184.43 471.106 184.43 464.465V261.709ZM270.785 261.709H301.55L317.958 376.565V261.709H348.723V488.491H317.958L301.55 373.635V488.491H270.785V261.709ZM381.166 261.709H411.052C417.693 261.709 423.358 264.053 428.046 268.741C432.734 273.429 435.078 279.094 435.078 285.735V488.491H404.313V400.884H387.905V488.491H357.14V285.735C357.14 279.094 359.484 273.429 364.172 268.741C368.86 264.053 374.524 261.709 381.166 261.709ZM391.714 287.493C390.737 287.493 389.858 287.884 389.077 288.665C388.295 289.251 387.905 290.13 387.905 291.302V375.1H404.313V291.302C404.313 290.13 403.922 289.251 403.141 288.665C402.555 287.884 401.773 287.493 400.797 287.493H391.714Z" fill="#FF5B00"/>
<path d="M11.72 0.708989H42.485V97.399H58.893V0.708989H89.658V227.491H58.893V123.183H42.485V227.491H11.72V0.708989ZM122.101 0.708989H151.987C158.628 0.708989 164.293 3.05299 168.981 7.74099C173.669 12.429 176.013 18.0937 176.013 24.735V203.465C176.013 210.106 173.669 215.771 168.981 220.459C164.293 225.147 158.628 227.491 151.987 227.491H122.101C115.46 227.491 109.795 225.147 105.107 220.459C100.419 215.771 98.0749 210.106 98.0749 203.465V24.735C98.0749 18.0937 100.419 12.429 105.107 7.74099C109.795 3.05299 115.46 0.708989 122.101 0.708989ZM132.649 26.493C131.672 26.493 130.793 26.8837 130.012 27.665C129.231 28.251 128.84 29.13 128.84 30.302V197.898C128.84 199.07 129.231 200.047 130.012 200.828C130.793 201.414 131.672 201.707 132.649 201.707H141.732C142.709 201.707 143.49 201.414 144.076 200.828C144.857 200.047 145.248 199.07 145.248 197.898V30.302C145.248 29.13 144.857 28.251 144.076 27.665C143.49 26.8837 142.709 26.493 141.732 26.493H132.649ZM181.42 0.708989H261.409V26.493H236.797V227.491H206.032V26.493H181.42V0.708989Z" fill="#031A35"/>
<path d="M413.918 120.039C412.416 113.271 407.85 92.6775 380.627 53.4032C371.46 40.1724 361.392 27.2509 350.71 14.9952L338.505 1L326.294 14.9986C315.608 27.2509 305.543 40.169 296.376 53.4032C269.164 92.6674 264.587 113.268 263.082 120.039C260.951 129.631 260 135.261 260 143.253C260 165.484 268.076 186.424 282.738 202.207C297.589 218.193 317.395 226.997 338.502 226.997C359.609 226.997 379.407 218.193 394.262 202.207C408.927 186.421 417 165.481 417 143.253C417 135.271 416.049 129.641 413.915 120.039H413.918ZM324.466 124.616C314.493 139.006 308.401 150.962 306.359 160.156C305.238 165.205 304.84 167.604 304.84 171.002C304.84 173.228 305.03 175.433 305.404 177.6C297.385 168.454 292.826 156.3 292.826 143.256C292.826 138.533 293.39 135.204 295.078 127.593C298.14 113.811 307.562 95.4671 323.086 73.0624C327.958 66.0359 333.133 59.0638 338.502 52.2887C343.884 59.0808 349.059 66.0529 353.914 73.0624C369.438 95.4603 378.864 113.808 381.922 127.593C383.614 135.204 384.178 138.533 384.178 143.253C384.178 156.297 379.618 168.45 371.596 177.597C371.97 175.429 372.16 173.224 372.16 170.999C372.16 167.604 371.762 165.209 370.638 160.153C368.596 150.959 362.507 139.002 352.534 124.613C348.97 119.472 345.144 114.369 341.155 109.445L338.498 106.163L335.841 109.445C331.859 114.362 328.03 119.469 324.462 124.613L324.466 124.616Z" fill="#FF5B00"/>
</svg>
