<svg width="257" height="270" viewBox="0 0 257 270" fill="none" xmlns="http://www.w3.org/2000/svg">
<path d="M6.74155 181.748V152.591C6.74155 148.771 8.08986 145.512 10.7865 142.816C13.4831 140.119 16.7415 138.771 20.5617 138.771H37.7527C41.5729 138.771 44.8313 140.119 47.5279 142.816C50.2246 145.512 51.5729 148.771 51.5729 152.591V175.344H33.8763V155.793C33.8763 155.119 33.6516 154.613 33.2021 154.276C32.8651 153.827 32.4156 153.602 31.8538 153.602H26.6291C26.0673 153.602 25.5617 153.827 25.1123 154.276C24.6628 154.613 24.4381 155.119 24.4381 155.793V178.714C24.4381 180.4 25.337 182.478 27.1347 184.95C29.0448 187.422 31.3482 190.063 34.0448 192.872C36.7415 195.568 39.3819 198.433 41.9662 201.467C44.6628 204.389 46.91 207.647 48.7077 211.242C50.6178 214.838 51.5729 218.265 51.5729 221.523V255.4C51.5729 259.22 50.2246 262.478 47.5279 265.175C44.8313 267.871 41.5729 269.22 37.7527 269.22H20.5617C16.7415 269.22 13.4831 267.871 10.7865 265.175C8.08986 262.478 6.74155 259.22 6.74155 255.4V228.602H24.4381V252.197C24.4381 252.871 24.6628 253.433 25.1123 253.883C25.5617 254.22 26.0673 254.388 26.6291 254.388H31.8538C32.4156 254.388 32.8651 254.22 33.2021 253.883C33.6516 253.433 33.8763 252.871 33.8763 252.197V224.726C33.8763 223.04 32.9212 220.961 31.0111 218.49C29.2134 216.018 26.9662 213.433 24.2696 210.737C21.6853 208.04 19.0449 205.231 16.3483 202.31C13.6516 199.276 11.3483 195.962 9.43817 192.366C7.64042 188.771 6.74155 185.231 6.74155 181.748ZM70.2346 138.771H87.4255C91.2458 138.771 94.5042 140.119 97.2008 142.816C99.8974 145.512 101.246 148.771 101.246 152.591V269.22H83.5491V218.827H74.111V269.22H56.4144V152.591C56.4144 148.771 57.7627 145.512 60.4593 142.816C63.156 140.119 66.4144 138.771 70.2346 138.771ZM76.302 153.602C75.7402 153.602 75.2346 153.827 74.7851 154.276C74.3357 154.613 74.111 155.119 74.111 155.793V203.995H83.5491V155.793C83.5491 155.119 83.3244 154.613 82.875 154.276C82.5379 153.827 82.0885 153.602 81.5267 153.602H76.302ZM106.087 138.771H123.784V252.197C123.784 252.871 124.009 253.433 124.458 253.883C124.907 254.22 125.413 254.388 125.975 254.388H131.2C131.761 254.388 132.211 254.22 132.548 253.883C132.997 253.433 133.222 252.871 133.222 252.197V138.771H150.919V255.4C150.919 259.22 149.57 262.478 146.874 265.175C144.177 267.871 140.919 269.22 137.098 269.22H119.907C116.087 269.22 112.829 267.871 110.132 265.175C107.436 262.478 106.087 259.22 106.087 255.4V138.771ZM155.76 138.771H173.457L182.895 204.838V138.771H200.591V269.22H182.895L173.457 203.153V269.22H155.76V138.771ZM219.253 138.771H236.444C240.264 138.771 243.523 140.119 246.219 142.816C248.916 145.512 250.264 148.771 250.264 152.591V269.22H232.568V218.827H223.13V269.22H205.433V152.591C205.433 148.771 206.781 145.512 209.478 142.816C212.175 140.119 215.433 138.771 219.253 138.771ZM225.321 153.602C224.759 153.602 224.253 153.827 223.804 154.276C223.354 154.613 223.13 155.119 223.13 155.793V203.995H232.568V155.793C232.568 155.119 232.343 154.613 231.894 154.276C231.556 153.827 231.107 153.602 230.545 153.602H225.321Z" fill="white"/>
<path d="M6.74155 0.466909H24.4381V56.0847H33.8763V0.466909H51.5729V130.916H33.8763V70.9161H24.4381V130.916H6.74155V0.466909ZM70.2346 0.466909H87.4255C91.2458 0.466909 94.5042 1.81522 97.2008 4.51184C99.8974 7.20846 101.246 10.4669 101.246 14.2871V117.096C101.246 120.916 99.8974 124.174 97.2008 126.871C94.5042 129.568 91.2458 130.916 87.4255 130.916H70.2346C66.4144 130.916 63.156 129.568 60.4593 126.871C57.7627 124.174 56.4144 120.916 56.4144 117.096V14.2871C56.4144 10.4669 57.7627 7.20846 60.4593 4.51184C63.156 1.81522 66.4144 0.466909 70.2346 0.466909ZM76.302 15.2983C75.7402 15.2983 75.2346 15.523 74.7851 15.9725C74.3357 16.3096 74.111 16.8152 74.111 17.4893V113.894C74.111 114.568 74.3357 115.129 74.7851 115.579C75.2346 115.916 75.7402 116.085 76.302 116.085H81.5267C82.0885 116.085 82.5379 115.916 82.875 115.579C83.3244 115.129 83.5491 114.568 83.5491 113.894V17.4893C83.5491 16.8152 83.3244 16.3096 82.875 15.9725C82.5379 15.523 82.0885 15.2983 81.5267 15.2983H76.302ZM104.356 0.466909H150.367V15.2983H136.21V130.916H118.513V15.2983H104.356V0.466909Z" fill="#031A35"/>
<path d="M237.987 68.5669C237.124 64.6828 234.498 52.8646 218.846 30.326C213.575 22.7332 207.787 15.3178 201.645 8.28459L194.627 0.253052L187.606 8.28654C181.462 15.3178 175.676 22.7312 170.405 30.326C154.759 52.8587 152.128 64.6808 151.262 68.5669C150.037 74.0714 149.49 77.3024 149.49 81.8885C149.49 94.6465 154.134 106.664 162.564 115.721C171.103 124.895 182.49 129.947 194.626 129.947C206.761 129.947 218.145 124.895 226.686 115.721C235.117 106.662 239.759 94.6445 239.759 81.8885C239.759 77.3082 239.212 74.0773 237.985 68.5669H237.987ZM186.555 71.1934C180.822 79.4511 177.319 86.3127 176.145 91.5891C175.5 94.4866 175.272 95.8632 175.272 97.8131C175.272 99.0903 175.381 100.356 175.596 101.6C170.985 96.3507 168.364 89.376 168.364 81.8904C168.364 79.1801 168.688 77.2692 169.659 72.9015C171.419 64.9928 176.836 54.4654 185.762 41.6079C188.564 37.5756 191.539 33.5745 194.626 29.6864C197.72 33.5842 200.695 37.5854 203.487 41.6079C212.413 54.4615 217.832 64.9908 219.59 72.9015C220.563 77.2692 220.887 79.1801 220.887 81.8885C220.887 89.374 218.266 96.3487 213.653 101.598C213.868 100.354 213.978 99.0883 213.978 97.8111C213.978 95.8632 213.749 94.4886 213.102 91.5871C211.928 86.3108 208.428 79.4492 202.694 71.1915C200.644 68.2413 198.445 65.3126 196.151 62.4872L194.624 60.6036L193.096 62.4872C190.806 65.3087 188.605 68.2393 186.553 71.1915L186.555 71.1934Z" fill="white"/>
</svg>
