<svg width="447" height="489" viewBox="0 0 447 489" fill="none" xmlns="http://www.w3.org/2000/svg">
<path d="M11.72 336.014V285.325C11.72 278.684 14.064 273.019 18.752 268.331C23.44 263.643 29.1047 261.299 35.746 261.299H65.632C72.2733 261.299 77.938 263.643 82.626 268.331C87.314 273.019 89.658 278.684 89.658 285.325V324.88H58.893V290.892C58.893 289.72 58.5023 288.841 57.721 288.255C57.135 287.474 56.3537 287.083 55.377 287.083H46.294C45.3173 287.083 44.4383 287.474 43.657 288.255C42.8757 288.841 42.485 289.72 42.485 290.892V330.74C42.485 333.67 44.0477 337.284 47.173 341.581C50.4937 345.878 54.498 350.469 59.186 355.352C63.874 360.04 68.4643 365.021 72.957 370.295C77.645 375.374 81.5517 381.038 84.677 387.289C87.9977 393.54 89.658 399.497 89.658 405.162V464.055C89.658 470.696 87.314 476.361 82.626 481.049C77.938 485.737 72.2733 488.081 65.632 488.081H35.746C29.1047 488.081 23.44 485.737 18.752 481.049C14.064 476.361 11.72 470.696 11.72 464.055V417.468H42.485V458.488C42.485 459.66 42.8757 460.637 43.657 461.418C44.4383 462.004 45.3173 462.297 46.294 462.297H55.377C56.3537 462.297 57.135 462.004 57.721 461.418C58.5023 460.637 58.893 459.66 58.893 458.488V410.729C58.893 407.799 57.2327 404.185 53.912 399.888C50.7867 395.591 46.88 391.098 42.192 386.41C37.6993 381.722 33.109 376.839 28.421 371.76C23.733 366.486 19.7287 360.724 16.408 354.473C13.2827 348.222 11.72 342.069 11.72 336.014ZM122.101 261.299H151.987C158.628 261.299 164.293 263.643 168.981 268.331C173.669 273.019 176.013 278.684 176.013 285.325V488.081H145.248V400.474H128.84V488.081H98.0749V285.325C98.0749 278.684 100.419 273.019 105.107 268.331C109.795 263.643 115.46 261.299 122.101 261.299ZM132.649 287.083C131.672 287.083 130.793 287.474 130.012 288.255C129.231 288.841 128.84 289.72 128.84 290.892V374.69H145.248V290.892C145.248 289.72 144.857 288.841 144.076 288.255C143.49 287.474 142.709 287.083 141.732 287.083H132.649ZM184.43 261.299H215.195V458.488C215.195 459.66 215.585 460.637 216.367 461.418C217.148 462.004 218.027 462.297 219.004 462.297H228.087C229.063 462.297 229.845 462.004 230.431 461.418C231.212 460.637 231.603 459.66 231.603 458.488V261.299H262.368V464.055C262.368 470.696 260.024 476.361 255.336 481.049C250.648 485.737 244.983 488.081 238.342 488.081H208.456C201.814 488.081 196.15 485.737 191.462 481.049C186.774 476.361 184.43 470.696 184.43 464.055V261.299ZM270.785 261.299H301.55L317.958 376.155V261.299H348.723V488.081H317.958L301.55 373.225V488.081H270.785V261.299ZM381.166 261.299H411.052C417.693 261.299 423.358 263.643 428.046 268.331C432.734 273.019 435.078 278.684 435.078 285.325V488.081H404.313V400.474H387.905V488.081H357.14V285.325C357.14 278.684 359.484 273.019 364.172 268.331C368.86 263.643 374.524 261.299 381.166 261.299ZM391.714 287.083C390.737 287.083 389.858 287.474 389.077 288.255C388.295 288.841 387.905 289.72 387.905 290.892V374.69H404.313V290.892C404.313 289.72 403.922 288.841 403.141 288.255C402.555 287.474 401.773 287.083 400.797 287.083H391.714Z" fill="white"/>
<path d="M11.72 0.299077H42.485V96.9891H58.893V0.299077H89.658V227.081H58.893V122.773H42.485V227.081H11.72V0.299077ZM122.101 0.299077H151.987C158.628 0.299077 164.293 2.64308 168.981 7.33107C173.669 12.0191 176.013 17.6837 176.013 24.3251V203.055C176.013 209.696 173.669 215.361 168.981 220.049C164.293 224.737 158.628 227.081 151.987 227.081H122.101C115.46 227.081 109.795 224.737 105.107 220.049C100.419 215.361 98.0749 209.696 98.0749 203.055V24.3251C98.0749 17.6837 100.419 12.0191 105.107 7.33107C109.795 2.64308 115.46 0.299077 122.101 0.299077ZM132.649 26.0831C131.672 26.0831 130.793 26.4737 130.012 27.2551C129.231 27.8411 128.84 28.7201 128.84 29.8921V197.488C128.84 198.66 129.231 199.637 130.012 200.418C130.793 201.004 131.672 201.297 132.649 201.297H141.732C142.709 201.297 143.49 201.004 144.076 200.418C144.857 199.637 145.248 198.66 145.248 197.488V29.8921C145.248 28.7201 144.857 27.8411 144.076 27.2551C143.49 26.4737 142.709 26.0831 141.732 26.0831H132.649ZM181.42 0.299077H261.409V26.0831H236.797V227.081H206.032V26.0831H181.42V0.299077Z" fill="#031A35"/>
<path d="M413.918 119.63C412.416 112.861 407.85 92.2676 380.627 52.9933C371.46 39.7625 361.392 26.8409 350.71 14.5853L338.505 0.590088L326.294 14.5887C315.608 26.8409 305.543 39.7591 296.376 52.9933C269.164 92.2574 264.587 112.858 263.082 119.63C260.951 129.221 260 134.851 260 142.843C260 165.074 268.076 186.014 282.738 201.797C297.589 217.783 317.395 226.587 338.502 226.587C359.609 226.587 379.407 217.783 394.262 201.797C408.927 186.011 417 165.071 417 142.843C417 134.862 416.049 129.232 413.915 119.63H413.918ZM324.466 124.206C314.493 138.596 308.401 150.552 306.359 159.747C305.238 164.796 304.84 167.194 304.84 170.592C304.84 172.818 305.03 175.023 305.404 177.19C297.385 168.044 292.826 155.89 292.826 142.846C292.826 138.123 293.39 134.794 295.078 127.183C298.14 113.402 307.562 95.0572 323.086 72.6525C327.958 65.626 333.133 58.6539 338.502 51.8788C343.884 58.6709 349.059 65.643 353.914 72.6525C369.438 95.0504 378.864 113.398 381.922 127.183C383.614 134.794 384.178 138.123 384.178 142.843C384.178 155.887 379.618 168.04 371.596 177.187C371.97 175.019 372.16 172.814 372.16 170.589C372.16 167.194 371.762 164.799 370.638 159.743C368.596 150.549 362.507 138.592 352.534 124.203C348.97 119.062 345.144 113.959 341.155 109.035L338.498 105.753L335.841 109.035C331.859 113.952 328.03 119.059 324.462 124.203L324.466 124.206Z" fill="white"/>
</svg>
