<svg width="26" height="26" viewBox="0 0 26 26" fill="none" xmlns="http://www.w3.org/2000/svg">
<path d="M21.4996 6.06044C21.4996 6.36898 21.4081 6.67059 21.2367 6.92713C21.0652 7.18367 20.8216 7.38362 20.5365 7.50169C20.2515 7.61976 19.9378 7.65066 19.6352 7.59046C19.3326 7.53027 19.0546 7.38169 18.8365 7.16352C18.6183 6.94535 18.4697 6.66739 18.4095 6.36478C18.3493 6.06217 18.3802 5.7485 18.4983 5.46345C18.6164 5.1784 18.8163 4.93476 19.0729 4.76334C19.3294 4.59193 19.631 4.50044 19.9396 4.50044C20.3533 4.50044 20.7501 4.66479 21.0427 4.95735C21.3352 5.24991 21.4996 5.6467 21.4996 6.06044ZM13 17.3339C12.1429 17.3339 11.3051 17.0797 10.5925 16.6036C9.87987 16.1274 9.32444 15.4507 8.99644 14.6588C8.66843 13.867 8.58259 12.9957 8.74977 12.1551C8.91694 11.3145 9.32963 10.5424 9.93563 9.93632C10.5416 9.33026 11.3137 8.91751 12.1543 8.75025C12.9949 8.583 13.8662 8.66876 14.6581 8.99669C15.4499 9.32461 16.1267 9.87998 16.603 10.5926C17.0792 11.3051 17.3334 12.1429 17.3335 13C17.3335 13.5691 17.2215 14.1326 17.0037 14.6584C16.786 15.1842 16.4668 15.6619 16.0643 16.0643C15.6619 16.4668 15.1842 16.786 14.6584 17.0037C14.1326 17.2215 13.5691 17.3339 13 17.3339ZM13 6.3245C11.6796 6.3245 10.3889 6.71605 9.29102 7.44962C8.19317 8.1832 7.3375 9.22586 6.83223 10.4457C6.32696 11.6656 6.19478 13.0079 6.4524 14.303C6.71002 15.598 7.34588 16.7875 8.27956 17.7211C9.21325 18.6548 10.4028 19.2905 11.6978 19.5481C12.9929 19.8056 14.3352 19.6734 15.555 19.168C16.7749 18.6627 17.8175 17.8069 18.551 16.709C19.2845 15.6111 19.676 14.3204 19.6759 13C19.6759 12.1233 19.5032 11.2552 19.1677 10.4453C18.8322 9.63537 18.3405 8.89945 17.7206 8.27956C17.1006 7.65968 16.3647 7.16798 15.5547 6.83253C14.7448 6.49707 13.8767 6.32445 13 6.3245ZM13 2.34325C16.4714 2.34325 16.8821 2.35544 18.2528 2.41881C19.0773 2.42825 19.8939 2.57941 20.6672 2.86569C21.2319 3.0741 21.7427 3.40643 22.1622 3.83825C22.5941 4.25759 22.9264 4.76846 23.1347 5.33325C23.4208 6.10636 23.572 6.92289 23.5816 7.74719C23.6442 9.11828 23.6576 9.529 23.6576 13C23.6576 16.471 23.6442 16.8825 23.5816 18.2536C23.5721 19.0779 23.4209 19.8945 23.1347 20.6676C22.9184 21.2283 22.5871 21.7375 22.1621 22.1625C21.7371 22.5875 21.2279 22.9188 20.6672 23.1351C19.894 23.4212 19.0775 23.5724 18.2532 23.582C16.8842 23.6446 16.473 23.658 13.0004 23.658C9.52778 23.658 9.11909 23.6446 7.74759 23.582C6.92355 23.5724 6.10729 23.4213 5.33447 23.1351C4.76973 22.9267 4.25888 22.5944 3.83947 22.1626C3.40763 21.7432 3.0753 21.2323 2.86691 20.6676C2.58079 19.8945 2.42963 19.0779 2.42003 18.2536C2.35747 16.8825 2.34284 16.4714 2.34284 13C2.34284 9.52859 2.35625 9.11788 2.41922 7.74719C2.42866 6.92274 2.57982 6.10605 2.86609 5.33284C3.07451 4.7681 3.40684 4.25725 3.83866 3.83784C4.25799 3.40594 4.76887 3.0736 5.33366 2.86528C6.10677 2.57916 6.92329 2.428 7.74759 2.41841C9.11828 2.35625 9.529 2.34244 13.0004 2.34244L13 2.34325ZM13 0C9.46969 0 9.02687 0.0150313 7.63994 0.078C6.56169 0.0997533 5.49493 0.304149 4.485 0.6825C3.61726 1.00863 2.83115 1.52022 2.18156 2.18156C1.52022 2.83115 1.00863 3.61726 0.6825 4.485C0.304172 5.49493 0.0997767 6.56169 0.078 7.63994C0.0150313 9.02687 0 9.46969 0 13C0 16.5303 0.0150313 16.9731 0.078 18.3601C0.0997767 19.4383 0.304172 20.5051 0.6825 21.515C1.00863 22.3827 1.52022 23.1688 2.18156 23.8184C2.83121 24.4797 3.6173 24.9913 4.485 25.3175C5.49496 25.6957 6.56171 25.8999 7.63994 25.9216C9.02647 25.985 9.46806 26 13 26C16.5319 26 16.9731 25.985 18.3601 25.9216C19.4384 25.9 20.5053 25.6957 21.5154 25.3175C22.3791 24.9835 23.1635 24.4727 23.8183 23.8179C24.4731 23.1631 24.9839 22.3787 25.3179 21.515C25.6966 20.505 25.9012 19.4381 25.9232 18.3597C25.985 16.9731 26 16.5303 26 13C26 9.46969 25.985 9.02687 25.9216 7.63994C25.9 6.56157 25.6957 5.49468 25.3175 4.48459C24.9913 3.61689 24.4797 2.8308 23.8184 2.18116C23.1688 1.51989 22.3827 1.0083 21.515 0.682094C20.5051 0.303627 19.4383 0.0990943 18.3601 0.0771875C16.9731 0.0150313 16.5303 0 13 0Z" fill="white"/>
</svg>
