<svg width="11" height="15" viewBox="0 0 11 15" fill="none" xmlns="http://www.w3.org/2000/svg">
<path d="M10.2939 7.90097C10.1935 7.45174 9.88805 6.08488 8.06741 3.47814C7.45432 2.59998 6.78102 1.74234 6.06658 0.928902L5.25034 0L4.43365 0.929128C3.71898 1.74234 3.0459 2.59975 2.43281 3.47814C0.612862 6.08421 0.306772 7.45151 0.206105 7.90097C0.0636267 8.5376 0 8.91128 0 9.4417C0 10.9173 0.540145 12.3071 1.52068 13.3546C2.51394 14.4157 3.83851 15 5.25011 15C6.66172 15 7.98584 14.4157 8.97932 13.3546C9.96008 12.3069 10.5 10.917 10.5 9.4417C10.5 8.91196 10.4364 8.53828 10.2937 7.90097H10.2939ZM4.31139 8.20474C3.64445 9.1598 3.23701 9.95339 3.10044 10.5636C3.02545 10.8988 2.99886 11.058 2.99886 11.2835C2.99886 11.4312 3.01159 11.5776 3.03659 11.7214C2.5003 11.1144 2.19535 10.3077 2.19535 9.44192C2.19535 9.12845 2.23307 8.90745 2.34601 8.40229C2.55075 7.4876 3.18088 6.27003 4.21913 4.78298C4.54499 4.31661 4.89108 3.85385 5.25011 3.40417C5.61006 3.85498 5.95614 4.31774 6.28087 4.78298C7.31912 6.26958 7.94948 7.48737 8.15399 8.40229C8.26716 8.90745 8.30488 9.12845 8.30488 9.4417C8.30488 10.3075 7.99992 11.1141 7.46341 11.7212C7.48841 11.5773 7.50114 11.431 7.50114 11.2833C7.50114 11.058 7.47455 10.899 7.39933 10.5634C7.26276 9.95317 6.85555 9.15958 6.18861 8.20451C5.95023 7.86331 5.69436 7.52458 5.42759 7.19781L5.24989 6.97996L5.07219 7.19781C4.80586 7.52413 4.54977 7.86308 4.31116 8.20451L4.31139 8.20474Z" fill="#FF5B00"/>
</svg>
