<svg width="24" height="26" viewBox="0 0 24 26" fill="none" xmlns="http://www.w3.org/2000/svg">
<path d="M20.4609 5.56047C20.2854 5.46978 20.1146 5.37035 19.949 5.26257C19.4676 4.94433 19.0263 4.56935 18.6345 4.14571C17.6541 3.02397 17.2879 1.88599 17.1531 1.08924H17.1585C17.0458 0.427895 17.0924 0 17.0995 0H12.6342V17.2664C12.6342 17.4982 12.6342 17.7273 12.6244 17.9537C12.6244 17.9819 12.6217 18.0079 12.6201 18.0382C12.6201 18.0507 12.6201 18.0637 12.6174 18.0767C12.6174 18.0799 12.6174 18.0832 12.6174 18.0864C12.5703 18.7059 12.3717 19.3044 12.0391 19.8292C11.7064 20.3539 11.2499 20.7889 10.7097 21.0958C10.1467 21.4161 9.50994 21.5841 8.8622 21.5833C6.78176 21.5833 5.09563 19.8868 5.09563 17.7918C5.09563 15.6967 6.78176 14.0003 8.8622 14.0003C9.25601 13.9999 9.64741 14.0619 10.0218 14.1839L10.0273 9.63739C8.89056 9.49056 7.73576 9.5809 6.63572 9.90271C5.53567 10.2245 4.51426 10.7708 3.63591 11.5071C2.86628 12.1758 2.21925 12.9737 1.72393 13.8649C1.53544 14.1899 0.824264 15.4958 0.738143 17.6152C0.683979 18.8182 1.04525 20.0645 1.21749 20.5796V20.5904C1.32582 20.8937 1.74559 21.9288 2.42968 22.8014C2.98131 23.5013 3.63304 24.1162 4.36388 24.6262V24.6154L4.37471 24.6262C6.53639 26.0951 8.93315 25.9987 8.93315 25.9987C9.34805 25.9819 10.7379 25.9987 12.3162 25.2507C14.0668 24.4214 15.0634 23.186 15.0634 23.186C15.7001 22.4478 16.2064 21.6065 16.5605 20.6982C16.9646 19.6361 17.0995 18.3621 17.0995 17.853V8.69277C17.1536 8.72527 17.8751 9.20246 17.8751 9.20246C17.8751 9.20246 18.9145 9.86867 20.5362 10.3025C21.6996 10.6113 23.2671 10.6763 23.2671 10.6763V6.24348C22.7179 6.30306 21.6026 6.12974 20.4609 5.56047Z" fill="white"/>
</svg>
