<svg width="15" height="15" viewBox="0 0 15 15" fill="none" xmlns="http://www.w3.org/2000/svg">
<path fill-rule="evenodd" clip-rule="evenodd" d="M2.59144 13.2095L6.6449 9.19374L6.64519 9.19374C7.12388 8.71917 7.90021 8.71917 8.3792 9.19374L12.3921 13.1696C12.0446 13.4702 11.6691 13.7394 11.2698 13.9731L7.88232 9.84265L8.21039 14.9636C7.96612 14.9875 7.71858 15.0002 7.46805 15.0002C7.24705 15.0002 7.02904 14.989 6.81281 14.9704L7.14148 9.84265L3.73372 13.9979L3.71076 13.9979C3.3129 13.7689 2.9386 13.5047 2.59144 13.2095ZM12.3918 1.79058L8.33839 5.80667L8.33809 5.80667C7.85941 6.28124 7.08307 6.28124 6.60409 5.80667L2.5912 1.83076C2.93865 1.53024 3.31414 1.26105 3.71349 1.02731L7.10067 5.15776L6.7726 0.0368063C7.01686 0.012871 7.26441 0.000165264 7.51493 0.000165286C7.73593 0.000165305 7.95395 0.0113939 8.17018 0.0300106L7.84181 5.15747L11.2496 1.00219L11.2725 1.00219C11.6704 1.2312 12.0447 1.49538 12.3918 1.79058ZM-4.89343e-05 7.47986C-4.89557e-05 7.72453 0.0127751 7.96625 0.036038 8.20501L5.12351 7.88499L1.00862 11.1975C1.24035 11.5935 1.50788 11.9661 1.80732 12.3115L5.77846 8.37669C6.25744 7.90213 6.25744 7.13295 5.77846 6.65868L1.77153 2.68868C1.47358 3.03766 1.20814 3.41413 0.978495 3.81364L5.12351 7.15038L0.0303724 6.83007C0.0115831 7.0443 0.000249585 7.2606 0.000249566 7.47957L-4.89343e-05 7.47986ZM13.1759 12.3115L9.20477 8.37699L9.20507 8.37669C8.72608 7.90242 8.72608 7.13324 9.20507 6.65868L13.212 2.68868C13.5099 3.03767 13.7754 3.41413 14.005 3.81393L9.86001 7.15068L14.9532 6.83036C14.9716 7.0446 14.9833 7.2609 14.9833 7.47986C14.9833 7.72453 14.9705 7.96625 14.9472 8.20501L9.85972 7.88499L13.9746 11.1975C13.7426 11.5935 13.475 11.9661 13.1759 12.3115Z" fill="#031A35"/>
</svg>
