<svg width="76" height="80" viewBox="0 0 76 80" fill="none" xmlns="http://www.w3.org/2000/svg">
<path d="M37.9828 5.25461C41.6039 5.25461 45.2251 6.19926 48.4526 8.06888L70.7306 20.9988V59.0012L48.4526 71.9311C45.2251 73.8007 41.6039 74.7454 37.9828 74.7454C34.3616 74.7454 30.7405 73.8007 27.5129 71.9311L5.25461 59.0012V20.9988L27.5326 8.06888C30.7601 6.19926 34.3813 5.25461 37.9828 5.25461ZM38.0025 0C33.3973 0 28.8708 1.22017 24.8954 3.52276L2.61747 16.4526L0 17.968V20.9988V59.0012V62.032L2.61747 63.5474L24.8954 76.4772C28.8708 78.7798 33.3973 80 38.0025 80C42.6076 80 47.1341 78.7798 51.1095 76.4772L73.3875 63.5474L76.0049 62.032V59.0012V20.9988V17.968L73.3875 16.4526L51.0898 3.52276C47.1341 1.22017 42.6076 0 38.0025 0Z" fill="#031A35"/>
<path d="M45.9533 21.9238C45.7958 21.2153 45.3038 19.0308 42.4305 14.8783C41.4662 13.481 40.4034 12.1231 39.262 10.8242L37.9631 9.34814L36.6642 10.8242C35.5424 12.1231 34.4797 13.481 33.4957 14.8783C30.6224 19.0308 30.1304 21.1956 29.9729 21.9238C29.7564 22.9275 29.6384 23.5376 29.6384 24.3838C29.6384 26.7258 30.4846 28.9496 32.0394 30.6028C33.6138 32.2953 35.6999 33.2202 37.9237 33.2202C40.1476 33.2202 42.2534 32.2953 43.8081 30.6028C45.3628 28.9299 46.2091 26.7258 46.2091 24.3838C46.2878 23.5376 46.1894 22.9472 45.9533 21.9238ZM36.5068 22.4158C35.444 23.9312 34.8143 25.1907 34.5978 26.1747C34.4797 26.7061 34.4403 26.9619 34.4403 27.3162C34.4403 27.5523 34.46 27.7885 34.4994 28.005C33.6531 27.0406 33.1611 25.7614 33.1611 24.3838C33.1611 23.8918 33.2202 23.5376 33.3973 22.7307C33.7122 21.2743 34.7159 19.3457 36.3493 16.9644C36.861 16.2165 37.412 15.4884 37.9828 14.7602C38.5535 15.4687 39.1045 16.2165 39.6162 16.9644C41.2497 19.326 42.2534 21.2743 42.5683 22.7307C42.7454 23.5376 42.8044 23.8918 42.8044 24.3838C42.8044 25.7614 42.3321 27.0406 41.4662 28.005C41.5055 27.7688 41.5252 27.5523 41.5252 27.3162C41.5252 26.9619 41.4858 26.7061 41.3678 26.1747C41.1513 25.2104 40.5018 23.9312 39.4588 22.4158C39.0849 21.8648 38.6716 21.3334 38.2583 20.8217L37.9828 20.4675L37.7072 20.8217C37.294 21.3334 36.8807 21.8648 36.5068 22.4158Z" fill="#031A35"/>
<path d="M63.6852 39.7149C63.6852 38.8686 63.6459 38.0224 63.5672 37.1958L46.1305 38.2979L60.2412 26.8244C59.454 25.4467 58.529 24.1675 57.5056 22.967L43.887 36.5857C42.2535 38.2192 42.2535 40.8957 43.887 42.5292L57.6237 56.2659C58.6471 55.0654 59.5524 53.7469 60.3396 52.3693L46.1305 40.817L63.5868 41.9191C63.6459 41.2106 63.6852 40.4627 63.6852 39.7149Z" fill="#031A35"/>
<path d="M35.1688 45.3041L21.2745 59.1983C22.4553 60.2216 23.7542 61.1269 25.1122 61.9338H25.1909L36.8809 47.5476L35.7592 65.2991C36.507 65.3582 37.2549 65.3975 38.0027 65.3975C38.8686 65.3975 39.7149 65.3582 40.5415 65.2795L39.4197 47.5673L51.031 61.8551C52.4086 61.0482 53.6878 60.1232 54.8883 59.0802L41.1319 45.3237C39.4787 43.6509 36.8022 43.6509 35.1688 45.3041Z" fill="#031A35"/>
<path d="M32.1183 36.6053L18.4997 22.9866C17.4763 24.1871 16.5513 25.4663 15.7641 26.8439L29.8748 38.3174L12.4382 37.2154C12.3594 38.0419 12.3201 38.8685 12.3201 39.7344C12.3201 40.5019 12.3594 41.2498 12.4185 41.978L29.8748 40.8759L15.6657 52.4281C16.4529 53.8058 17.3582 55.1046 18.3816 56.3248L32.1183 42.588C33.7518 40.9152 33.7518 38.2387 32.1183 36.6053Z" fill="#031A35"/>
</svg>
