<svg width="76" height="80" viewBox="0 0 76 80" fill="none" xmlns="http://www.w3.org/2000/svg">
<path d="M37.9981 5.25497C41.6196 5.25497 45.2412 6.19166 48.4706 8.06632L70.751 20.9954V59.0059L48.4706 71.935C45.2412 73.8096 41.6196 74.7463 37.9981 74.7463C34.3765 74.7463 30.7562 73.8096 27.5255 71.935L5.2451 59.0059V20.9954L27.5255 8.06632C30.7549 6.19166 34.3765 5.25497 37.9981 5.25497ZM37.9994 0C33.3908 0 28.8583 1.21795 24.8897 3.52095L2.61051 16.45L-0.0072937 17.9686V62.0314L2.61051 63.55L24.8909 76.479C28.8609 78.7821 33.3934 80 38.0006 80C42.6079 80 47.1404 78.7821 51.1103 76.479L73.3895 63.55L76.0073 62.0314V17.9686L73.3895 16.45L51.1091 3.52095C47.1391 1.21795 42.6067 0 37.9994 0Z" fill="black" fill-opacity="0.2"/>
<path d="M45.9666 21.9244C45.8079 21.2096 45.3253 19.0331 42.4482 14.8825C41.4793 13.4839 40.4161 12.1189 39.2872 10.8235L37.997 9.34497L36.7068 10.8248C35.5779 12.1189 34.5135 13.4852 33.5445 14.8838C30.6687 19.0331 30.1849 21.2109 30.0262 21.9257C29.8004 22.9398 29.701 23.5346 29.701 24.3784C29.701 26.7278 30.5539 28.9405 32.1034 30.6087C33.6736 32.2976 35.7663 33.2291 37.997 33.2291C40.2278 33.2291 42.3192 32.2989 43.8894 30.6087C45.4389 28.9405 46.2917 26.7278 46.2917 24.3784C46.2917 23.5346 46.1911 22.9398 45.9653 21.9257L45.9666 21.9244ZM36.5133 22.4069C35.4592 23.9281 34.8154 25.1912 34.5999 26.1627C34.4812 26.6968 34.4399 26.9497 34.4399 27.3084C34.4399 27.5432 34.4606 27.7767 34.4993 28.0051C33.6516 27.0387 33.1704 25.7537 33.1704 24.3758C33.1704 23.8765 33.2297 23.5242 33.4091 22.7205C33.7329 21.2638 34.7277 19.3259 36.3688 16.9584C36.8836 16.2153 37.4306 15.4786 37.9983 14.7638C38.5673 15.4812 39.1143 16.2179 39.6265 16.9597C41.2677 19.3272 42.2624 21.2651 42.5863 22.723C42.7656 23.5268 42.8249 23.879 42.8249 24.3784C42.8249 25.7563 42.3437 27.0413 41.496 28.0077C41.536 27.7793 41.5554 27.5458 41.5554 27.3097C41.5554 26.951 41.5128 26.6981 41.3941 26.164C41.1787 25.1925 40.5348 23.9294 39.4807 22.4082C39.104 21.865 38.7002 21.3257 38.2783 20.8058L37.997 20.4587L37.7158 20.8058C37.2952 21.3257 36.89 21.865 36.5133 22.4082V22.4069Z" fill="black" fill-opacity="0.2"/>
<path d="M63.6897 39.7093C63.6897 38.8616 63.6459 38.0256 63.5659 37.1998L46.1185 38.3068L60.2307 26.8396C59.436 25.4681 58.5173 24.1792 57.4916 22.9832L43.871 36.6038C42.2286 38.2462 42.2286 40.9092 43.871 42.5516L57.6129 56.2935C58.6348 55.0859 59.5456 53.7828 60.3326 52.3984L46.1172 40.8472L63.5839 41.9555C63.6484 41.2136 63.6872 40.4653 63.6872 39.708L63.6897 39.7093Z" fill="#031A35"/>
<path d="M35.1726 45.3014L21.2707 59.2033C22.4615 60.2251 23.7453 61.1399 25.109 61.932H25.1877L36.8756 47.5489L35.7493 65.2982C36.4899 65.3627 37.2395 65.4014 37.9968 65.4014C38.8561 65.4014 39.705 65.3575 40.5424 65.2749L39.4173 47.5476L51.0343 61.8456C52.4044 61.0366 53.6908 60.1038 54.8829 59.0639L41.1204 45.3014C39.478 43.659 36.815 43.659 35.1726 45.3014Z" fill="#031A35"/>
<path d="M32.1233 36.6038L18.5027 22.9832C17.477 24.1779 16.5583 25.4681 15.7636 26.8396L29.8758 38.3068L12.4284 37.1998C12.3484 38.0256 12.3046 38.8629 12.3046 39.7093C12.3046 40.4666 12.3446 41.2162 12.4078 41.9568L29.8758 40.8485L15.6604 52.3997C16.4487 53.7828 17.3583 55.0871 18.3801 56.2948L32.122 42.5529C33.7644 40.9105 33.7644 38.2475 32.122 36.6051L32.1233 36.6038Z" fill="black" fill-opacity="0.2"/>
</svg>
