<svg width="74" height="103" viewBox="0 0 74 103" fill="none" xmlns="http://www.w3.org/2000/svg">
<path d="M36.5 103L26.5407 85.75L46.4593 85.75L36.5 103Z" fill="#FF5B00"/>
<path d="M36.9811 5.07892C40.4832 5.07892 43.9853 5.99198 47.1067 7.79909L68.6523 20.2967V57.0285L47.1067 69.526C43.9853 71.3331 40.4832 72.2462 36.9811 72.2462C33.479 72.2462 29.9769 71.3331 26.8554 69.526L5.32893 57.0285V20.2967L26.8745 7.79909C29.9959 5.99198 33.498 5.07892 36.9811 5.07892ZM37.0001 0C32.5464 0 28.1687 1.17938 24.324 3.40497L2.77848 15.9025L0.24707 17.3672V20.2967V57.0285V59.9579L2.77848 61.4226L24.324 73.9202C28.1687 76.1458 32.5464 77.3251 37.0001 77.3251C41.4539 77.3251 45.8315 76.1458 49.6762 73.9202L71.2218 61.4226L73.7532 59.9579V57.0285V20.2967V17.3672L71.2218 15.9025L49.6572 3.40497C45.8315 1.17938 41.4539 0 37.0001 0Z" fill="#FF5B00"/>
<path d="M44.6895 21.1908C44.5373 20.506 44.0614 18.3946 41.2826 14.3809C40.35 13.0303 39.3222 11.7178 38.2183 10.4623L36.9621 9.03564L35.7059 10.4623C34.621 11.7178 33.5932 13.0303 32.6415 14.3809C29.8627 18.3946 29.3869 20.487 29.2346 21.1908C29.0252 22.1609 28.911 22.7506 28.911 23.5686C28.911 25.8322 29.7295 27.9817 31.2331 29.5796C32.7557 31.2155 34.7733 32.1095 36.924 32.1095C39.0748 32.1095 41.1113 31.2155 42.6149 29.5796C44.1185 27.9627 44.937 25.8322 44.937 23.5686C45.0131 22.7506 44.9179 22.18 44.6895 21.1908ZM35.5536 21.6664C34.5258 23.1311 33.9168 24.3485 33.7074 25.2996C33.5932 25.8132 33.5551 26.0605 33.5551 26.4029C33.5551 26.6312 33.5742 26.8594 33.6122 27.0687C32.7938 26.1366 32.318 24.9001 32.318 23.5686C32.318 23.093 32.3751 22.7506 32.5464 21.9707C32.8509 20.5631 33.8216 18.6989 35.4014 16.3972C35.8962 15.6744 36.4291 14.9706 36.9811 14.2667C37.5331 14.9515 38.066 15.6744 38.5609 16.3972C40.1406 18.6799 41.1113 20.5631 41.4158 21.9707C41.5871 22.7506 41.6442 23.093 41.6442 23.5686C41.6442 24.9001 41.1874 26.1366 40.35 27.0687C40.388 26.8404 40.4071 26.6312 40.4071 26.4029C40.4071 26.0605 40.369 25.8132 40.2548 25.2996C40.0454 24.3675 39.4174 23.1311 38.4086 21.6664C38.047 21.1337 37.6473 20.6201 37.2476 20.1256L36.9811 19.7832L36.7146 20.1256C36.3149 20.6201 35.9152 21.1337 35.5536 21.6664Z" fill="#FF5B00"/>
<path d="M61.8387 38.3866C61.8387 37.5686 61.8006 36.7507 61.7245 35.9518L44.8611 37.017L58.5079 25.9271C57.7466 24.5955 56.852 23.3591 55.8623 22.1987L42.6913 35.3621C41.1116 36.9409 41.1116 39.5279 42.6913 41.1068L55.9765 54.3842C56.9662 53.2239 57.8417 51.9494 58.603 50.6179L44.8611 39.4518L61.7435 40.5171C61.8006 39.8323 61.8387 39.1094 61.8387 38.3866Z" fill="#BBD6FF"/>
<path d="M34.2597 43.789L20.8222 57.2187C21.9642 58.2079 23.2204 59.0829 24.5337 59.8628H24.6098L35.9155 45.9576L34.8306 63.1156C35.5539 63.1726 36.2772 63.2107 37.0004 63.2107C37.8379 63.2107 38.6563 63.1726 39.4557 63.0966L38.3708 45.9766L49.6004 59.7867C50.9327 59.0068 52.1699 58.1127 53.3309 57.1046L40.0267 43.8081C38.4279 42.1912 35.8394 42.1912 34.2597 43.789Z" fill="#BBD6FF"/>
<path d="M31.3094 35.3811L18.1384 22.2178C17.1487 23.3781 16.2541 24.6146 15.4928 25.9461L29.1396 37.036L12.2762 35.9708C12.2001 36.7697 12.162 37.5687 12.162 38.4056C12.162 39.1475 12.2001 39.8703 12.2572 40.5742L29.1396 39.5089L15.3976 50.6749C16.159 52.0065 17.0345 53.262 18.0242 54.4413L31.3094 41.1639C32.8891 39.547 32.8891 36.96 31.3094 35.3811Z" fill="#BBD6FF"/>
</svg>
