<svg width="62" height="247" viewBox="0 0 62 247" fill="none" xmlns="http://www.w3.org/2000/svg">
<path d="M0.039997 246.8L0.0399966 238.4L25.88 238.4L0.0399963 232.8L0.039996 224.4L31 231.92L61.96 224.4L61.96 232.8L36.12 238.4L61.96 238.4L61.96 246.8L0.039997 246.8ZM0.0399959 223.672L0.0399952 205.832L7.08 205.832L7.08 215.272L26.92 215.272L26.92 206.552L33.96 206.552L33.96 215.272L54.92 215.272L54.92 205.832L61.96 205.832L61.96 223.672L0.0399959 223.672ZM0.039995 202.731L0.0399947 194.331L29.88 194.331C30.1467 194.331 30.3867 194.225 30.6 194.011C30.8133 193.798 30.92 193.558 30.92 193.291L30.92 190.811C30.92 190.545 30.8133 190.331 30.6 190.171C30.3867 189.958 30.1467 189.851 29.88 189.851L0.0399945 189.851L0.0399941 181.451L31.96 181.451C33.7733 181.451 35.24 182.011 36.36 183.131C37.4267 184.198 37.96 185.638 37.96 187.451L37.96 187.851L61.96 187.851L61.96 196.251L37.96 196.251L37.96 196.731C37.96 198.545 37.4267 200.011 36.36 201.131C35.24 202.198 33.7733 202.731 31.96 202.731L0.039995 202.731ZM0.0399933 163.975L0.0399927 149.255C0.0399926 147.442 0.679992 145.895 1.95999 144.615C3.23999 143.335 4.78666 142.695 6.59999 142.695L24.92 142.695C27.48 142.695 29.3733 143.788 30.6 145.975C31.88 143.788 33.8 142.695 36.36 142.695L55.4 142.695C57.2133 142.695 58.76 143.335 60.04 144.615C61.32 145.895 61.96 147.442 61.96 149.255L61.96 163.975L0.0399933 163.975ZM7.07999 155.575L27.32 155.575L27.32 152.055C27.32 151.788 27.2133 151.575 27 151.415C26.7867 151.202 26.5467 151.095 26.28 151.095L8.11999 151.095C7.79999 151.095 7.55999 151.202 7.39999 151.415C7.18666 151.575 7.07999 151.788 7.07999 152.055L7.07999 155.575ZM33.96 155.575L54.92 155.575L54.92 152.055C54.92 151.788 54.84 151.575 54.68 151.415C54.4667 151.202 54.2 151.095 53.88 151.095L35 151.095C34.68 151.095 34.44 151.202 34.28 151.415C34.0667 151.575 33.96 151.788 33.96 152.055L33.96 155.575ZM0.0399923 139.597L0.0399915 121.757L7.07999 121.757L7.07999 131.197L26.92 131.197L26.92 122.477L33.96 122.477L33.96 131.197L54.92 131.197L54.92 121.757L61.96 121.757L61.96 139.597L0.0399923 139.597ZM0.0399914 118.656L0.039991 110.256L31.4 105.776L0.0399908 105.776L0.0399904 97.3762L61.96 97.3762L61.96 105.776L30.6 110.256L61.96 110.256L61.96 118.656L0.0399914 118.656ZM0.0399903 94.2781L0.0399895 76.4381L7.07999 76.4381L7.07999 85.8781L26.92 85.8781L26.92 77.1581L33.96 77.1581L33.96 85.8781L54.92 85.8781L54.92 76.4381L61.96 76.4381L61.96 94.2781L0.0399903 94.2781ZM0.0399894 73.3375L0.0399886 55.4975L7.07999 55.4975L7.07999 64.9375L26.92 64.9375L26.92 56.2175L33.96 56.2175L33.96 64.9375L61.96 64.9375L61.96 73.3375L0.0399894 73.3375ZM0.0399885 53.1781L0.0399881 44.7781L61.96 44.7781L61.96 53.1781L0.0399885 53.1781ZM0.0399881 44.1125L0.0399871 22.2725L7.07999 22.2725L7.07999 28.9925L61.96 28.9925L61.96 37.3925L7.07999 37.3925L7.07999 44.1125L0.0399881 44.1125ZM20.44 21.6875L6.59999 21.6875C4.78665 21.6875 3.23999 21.0475 1.95999 19.7675C0.679987 18.4875 0.0399869 16.9408 0.0399868 15.1275L0.0399865 6.9675C0.0399864 5.15416 0.679986 3.6075 1.95999 2.3275C3.23998 1.0475 4.78665 0.407495 6.59999 0.407495L17.4 0.407494L17.4 8.8075L8.11999 8.8075C7.79999 8.8075 7.55999 8.91416 7.39999 9.1275C7.18665 9.2875 7.07999 9.50083 7.07999 9.7675L7.07999 12.2475C7.07999 12.5142 7.18665 12.7542 7.39999 12.9675C7.55999 13.1808 7.79999 13.2875 8.11999 13.2875L19 13.2875C19.8 13.2875 20.7867 12.8608 21.96 12.0075C23.1333 11.1008 24.3867 10.0075 25.72 8.7275C27 7.44749 28.36 6.19416 29.8 4.96749C31.1867 3.6875 32.7333 2.62083 34.44 1.7675C36.1467 0.860827 37.7733 0.407493 39.32 0.407493L55.4 0.407493C57.2133 0.407493 58.76 1.04749 60.04 2.32749C61.32 3.60749 61.96 5.15416 61.96 6.96749L61.96 15.1275C61.96 16.9408 61.32 18.4875 60.04 19.7675C58.76 21.0475 57.2133 21.6875 55.4 21.6875L42.68 21.6875L42.68 13.2875L53.88 13.2875C54.2 13.2875 54.4667 13.1808 54.68 12.9675C54.84 12.7542 54.92 12.5142 54.92 12.2475L54.92 9.76749C54.92 9.50083 54.84 9.28749 54.68 9.12749C54.4667 8.91416 54.2 8.80749 53.88 8.80749L40.84 8.80749C40.04 8.80749 39.0533 9.26083 37.88 10.1675C36.7067 11.0208 35.48 12.0875 34.2 13.3675C32.92 14.5942 31.5867 15.8475 30.2 17.1275C28.76 18.4075 27.1867 19.5008 25.48 20.4075C23.7733 21.2608 22.0933 21.6875 20.44 21.6875Z" fill="#BBD6FF"/>
</svg>
