<svg width="494" height="170" viewBox="0 0 494 170" fill="none" xmlns="http://www.w3.org/2000/svg">
<path d="M155.695 129.245H166.538V168.445H155.695V129.245ZM200.173 143.901V129.245H211.015V168.445H200.59L182.181 145.926L182.062 145.986C182.062 145.986 182.539 151.228 182.539 153.969V168.445H171.696V129.245H182.301L200.471 151.407H200.59C200.59 151.407 200.173 146.164 200.173 143.901ZM240.823 129.245H253.75L269.895 168.445H257.742L254.644 160.7H239.869L236.831 168.445H224.678L240.823 129.245ZM244.338 147.892L242.372 152.718H252.142L250.176 147.892C249.282 145.628 247.435 139.492 247.435 139.492H247.078C247.078 139.492 245.231 145.569 244.338 147.892ZM300.071 143.901V129.245H310.913V168.445H300.488L282.079 145.926L281.96 145.986C281.96 145.986 282.437 151.228 282.437 153.969V168.445H271.594V129.245H282.199L300.369 151.407H300.488C300.488 151.407 300.071 146.164 300.071 143.901ZM316.103 129.245H329.507C346.843 129.245 353.277 137.765 353.277 148.786C353.277 161.892 345.473 168.445 331.771 168.445H316.103V129.245ZM326.945 138.777V158.913H332.068C339.098 158.913 342.375 155.815 342.375 148.786C342.375 143.245 339.515 138.777 331.115 138.777H326.945ZM387.834 128.531C400.345 128.531 409.579 137.228 409.579 148.607C409.579 160.403 401 169.16 387.834 169.16C375.145 169.16 366.03 160.998 366.03 148.607C366.03 137.228 375.205 128.531 387.834 128.531ZM387.834 138.42C381.996 138.42 377.528 142.53 377.528 148.667C377.528 155.458 381.996 159.271 387.834 159.271C393.613 159.271 398.081 155.458 398.081 148.667C398.081 142.53 393.672 138.42 387.834 138.42ZM439.436 129.245H450.278V152.301C450.278 163.739 442.057 169.16 431.334 169.16C420.551 169.16 412.33 163.739 412.33 152.301V129.245H423.232V151.705C423.232 156.649 425.853 159.628 431.334 159.628C436.695 159.628 439.436 156.649 439.436 151.705V129.245ZM465.341 168.445V138.777H452.056V129.245H489.528V138.777H476.183V168.445H465.341Z" fill="#031A35"/>
<path d="M210.428 89.1431L192.856 62.2864C190.428 58.5721 183.285 45.858 183.285 45.858L182.857 46.0009C182.857 46.0009 184.142 60.715 184.142 65.572V103H158.143V9.00149H184.999L212.142 50.7151H212.428L239.427 9.00149H266.284V103H240.284V65.572C240.284 60.715 241.427 46.0009 241.427 46.0009L240.999 45.858C240.999 45.858 233.856 58.5721 231.427 62.2864L214.142 89.1431H210.428ZM275.825 9.00149H301.825V103H275.825V9.00149ZM379.622 44.1438V9.00149H405.622V103H380.622L336.48 49.0009L336.195 49.1437C336.195 49.1437 337.337 61.7149 337.337 68.2863V103H311.338V9.00149H336.766L380.337 62.1435H380.622C380.622 62.1435 379.622 49.5723 379.622 44.1438ZM449.494 104.714C434.494 104.714 421.066 102 411.638 97.8572L415.352 77.0004C422.78 80.1432 434.923 83.7146 446.494 83.7146C459.208 83.7146 464.208 79.2861 464.208 73.429C464.208 70.5719 462.922 68.572 459.923 67.2863C456.923 66.0006 449.923 65.1435 441.923 64.1435C433.494 63.1435 426.066 61.2864 420.923 58.2864C412.923 53.5722 409.923 45.0009 409.923 37.2868C409.923 19.287 425.923 7.28723 449.923 7.28723C463.208 7.28723 475.351 9.85862 484.065 13.7157L479.636 33.7154C472.637 31.0011 461.494 28.2869 451.066 28.2869C439.351 28.2869 435.923 32.8583 435.923 37.2868C435.923 39.7153 436.78 42.001 440.209 43.2867C444.066 44.5724 450.78 45.1438 458.065 46.2866C466.208 47.4295 473.637 49.0009 478.351 51.858C486.065 56.2865 489.922 64.0006 489.922 73.1433C489.922 90.8573 477.637 104.714 449.494 104.714Z" fill="#031A35"/>
<path d="M36.0263 169.253C15.2995 169.253 6.07491 160.939 6.07491 145.679L6.07491 107.3H29.1933L29.1933 151.829H42.8593L42.8593 91.2425H24.0685L24.0685 74.16H42.8593L42.8593 18.0154L29.1933 18.0154L29.1933 57.533L6.07491 57.533L6.07491 23.8235C6.07491 8.79088 15.2995 0.477387 36.0263 0.477387C56.6392 0.477387 65.8637 8.79088 65.8637 23.8235L65.8637 61.0634C65.8637 74.16 60.739 80.7652 51.97 82.2457V82.4735C60.739 83.6123 65.8637 90.2176 65.8637 103.2L65.8637 145.679C65.8637 160.939 56.6392 169.253 36.0263 169.253ZM102.984 169.253C82.1437 169.253 72.9192 160.939 72.9192 145.679L72.9192 23.8235C72.9192 8.79088 82.1437 0.477387 102.984 0.477387C123.483 0.477387 132.822 8.79088 132.822 23.8235L132.822 145.679C132.822 160.939 123.483 169.253 102.984 169.253ZM96.0375 151.829H109.704L109.704 17.9016L96.0375 17.9016L96.0375 151.829Z" fill="#031A35"/>
</svg>
