<svg width="116" height="121" viewBox="0 0 116 121" fill="none" xmlns="http://www.w3.org/2000/svg">
<g id="Badge">
<path id="Vector" d="M57.9963 8.38246C63.4287 8.38246 68.8611 9.78749 73.7051 12.5995L107.126 31.9931V89.0089L73.7051 108.402C68.8611 111.214 63.4287 112.619 57.9963 112.619C52.5639 112.619 47.1335 111.214 42.2875 108.402L8.86688 89.0089V31.9931L42.2875 12.5995C47.1316 9.78749 52.5639 8.38246 57.9963 8.38246ZM57.9982 0.5C51.0854 0.5 44.2867 2.32692 38.3337 5.78142L4.91499 25.175L0.988281 27.4529V93.5471L4.91499 95.825L38.3356 115.219C44.2905 118.673 51.0892 120.5 58.0002 120.5C64.9111 120.5 71.7098 118.673 77.6647 115.219L111.083 95.825L115.01 93.5471V27.4529L111.083 25.175L77.6628 5.78142C71.7079 2.32692 64.9092 0.5 57.9982 0.5Z" fill="#FF5B00"/>
<path id="Vector_2" d="M69.9491 33.3864C69.711 32.3143 68.9872 29.0494 64.6715 22.8236C63.2181 20.7257 61.6234 18.6782 59.93 16.7351L57.9947 14.5173L56.0594 16.7371C54.3661 18.6782 52.7694 20.7276 51.316 22.8255C47.0022 29.0494 46.2765 32.3162 46.0385 33.3883C45.6998 34.9095 45.5508 35.8017 45.5508 37.0673C45.5508 40.5915 46.83 43.9106 49.1543 46.4129C51.5096 48.9462 54.6486 50.3435 57.9947 50.3435C61.3409 50.3435 64.478 48.9481 66.8332 46.4129C69.1575 43.9106 70.4368 40.5915 70.4368 37.0673C70.4368 35.8017 70.2858 34.9095 69.9471 33.3883L69.9491 33.3864ZM55.7691 34.1102C54.188 36.3919 53.2223 38.2866 52.8991 39.7439C52.721 40.5451 52.6591 40.9244 52.6591 41.4624C52.6591 41.8146 52.6901 42.1649 52.7481 42.5075C51.4767 41.0579 50.7548 39.1304 50.7548 37.0635C50.7548 36.3145 50.8438 35.7862 51.1128 34.5805C51.5986 32.3955 53.0907 29.4887 55.5524 25.9375C56.3246 24.8227 57.1451 23.7177 57.9967 22.6455C58.8501 23.7215 59.6707 24.8266 60.439 25.9394C62.9007 29.4907 64.3928 32.3975 64.8786 34.5844C65.1476 35.79 65.2366 36.3184 65.2366 37.0673C65.2366 39.1342 64.5147 41.0618 63.2433 42.5113C63.3033 42.1688 63.3323 41.8185 63.3323 41.4643C63.3323 40.9263 63.2684 40.547 63.0904 39.7458C62.7672 38.2885 61.8015 36.3939 60.2203 34.1121C59.6552 33.2974 59.0495 32.4884 58.4166 31.7085L57.9947 31.1879L57.5728 31.7085C56.9419 32.4884 56.3343 33.2974 55.7691 34.1121V34.1102Z" fill="#FF5B00"/>
<path id="Vector_3" d="M96.5329 60.0637C96.5329 58.7922 96.467 57.5382 96.3471 56.2996L70.1761 57.9601L91.3443 40.7591C90.1522 38.7019 88.7742 36.7686 87.2357 34.9745L66.8048 55.4055C64.3411 57.8691 64.3411 61.8636 66.8048 64.3272L87.4176 84.94C88.9504 83.1286 90.3167 81.1739 91.4972 79.0974L70.1741 61.7707L96.3741 63.4331C96.4709 62.3203 96.529 61.1978 96.529 60.0618L96.5329 60.0637Z" fill="#031A35"/>
<path id="Vector_4" d="M53.7571 68.453L32.9043 89.3058C34.6906 90.8386 36.6162 92.2107 38.6618 93.399H38.7799L56.3117 71.8243L54.6222 98.4482C55.7331 98.5449 56.8575 98.603 57.9935 98.603C59.2824 98.603 60.5558 98.5372 61.8118 98.4133L60.1242 71.8224L77.5496 93.2693C79.6049 92.0559 81.5344 90.6567 83.3226 89.0968L62.6788 68.453C60.2152 65.9894 56.2207 65.9894 53.7571 68.453Z" fill="#031A35"/>
<path id="Vector_5" d="M49.1851 55.4055L28.7542 34.9745C27.2156 36.7666 25.8377 38.7019 24.6456 40.7592L45.8138 57.9601L19.6428 56.2996C19.5228 57.5382 19.457 58.7942 19.457 60.0637C19.457 61.1998 19.517 62.3242 19.6119 63.435L45.8138 61.7726L24.4907 79.0993C25.6732 81.174 27.0376 83.1305 28.5703 84.942L49.1832 64.3291C51.6468 61.8655 51.6468 57.871 49.1832 55.4074L49.1851 55.4055Z" fill="#031A35"/>
</g>
</svg>
