<svg width="116" height="121" viewBox="0 0 116 121" fill="none" xmlns="http://www.w3.org/2000/svg">
<g id="Badge">
<path id="Vector" d="M57.9963 8.38246C63.4287 8.38246 68.8611 9.78749 73.7051 12.5995L107.126 31.9931V89.0089L73.7051 108.402C68.8611 111.214 63.4287 112.619 57.9963 112.619C52.5639 112.619 47.1335 111.214 42.2875 108.402L8.86688 89.0089V31.9931L42.2875 12.5995C47.1316 9.78749 52.5639 8.38246 57.9963 8.38246ZM57.9982 0.5C51.0854 0.5 44.2867 2.32692 38.3337 5.78142L4.91499 25.175L0.988281 27.4529V93.5471L4.91499 95.825L38.3356 115.219C44.2905 118.673 51.0892 120.5 58.0002 120.5C64.9111 120.5 71.7098 118.673 77.6647 115.219L111.083 95.825L115.01 93.5471V27.4529L111.083 25.175L77.6628 5.78142C71.7079 2.32692 64.9092 0.5 57.9982 0.5Z" fill="white" fill-opacity="0.25"/>
<path id="Vector_2" d="M69.951 33.3865C69.713 32.3144 68.9892 29.0495 64.6735 22.8237C63.2201 20.7258 61.6254 18.6783 59.932 16.7352L57.9967 14.5174L56.0614 16.7372C54.368 18.6783 52.7714 20.7278 51.318 22.8256C47.0042 29.0495 46.2785 32.3163 46.0404 33.3885C45.7017 34.9096 45.5527 35.8018 45.5527 37.0675C45.5527 40.5916 46.832 43.9107 49.1563 46.413C51.5115 48.9463 54.6506 50.3436 57.9967 50.3436C61.3428 50.3436 64.4799 48.9483 66.8352 46.413C69.1595 43.9107 70.4387 40.5916 70.4387 37.0675C70.4387 35.8018 70.2878 34.9096 69.9491 33.3885L69.951 33.3865ZM55.7711 34.1103C54.19 36.3921 53.2242 38.2867 52.9011 39.744C52.723 40.5452 52.6611 40.9245 52.6611 41.4625C52.6611 41.8148 52.692 42.165 52.7501 42.5076C51.4786 41.0581 50.7567 39.1305 50.7567 37.0636C50.7567 36.3146 50.8458 35.7863 51.1148 34.5806C51.6005 32.3957 53.0926 29.4889 55.5543 25.9376C56.3265 24.8229 57.1471 23.7178 57.9986 22.6456C58.8521 23.7217 59.6727 24.8267 60.441 25.9395C62.9027 29.4908 64.3948 32.3976 64.8805 34.5845C65.1495 35.7902 65.2386 36.3185 65.2386 37.0675C65.2386 39.1344 64.5167 41.0619 63.2452 42.5115C63.3052 42.1689 63.3342 41.8186 63.3342 41.4645C63.3342 40.9265 63.2704 40.5471 63.0923 39.7459C62.7691 38.2886 61.8034 36.394 60.2223 34.1123C59.6572 33.2975 59.0514 32.4886 58.4186 31.7086L57.9967 31.188L57.5748 31.7086C56.9439 32.4886 56.3362 33.2975 55.7711 34.1123V34.1103Z" fill="white" fill-opacity="0.25"/>
<path id="Vector_3" d="M96.5329 60.0636C96.5329 58.7921 96.467 57.538 96.347 56.2995L70.1761 57.9599L91.3443 40.759C90.1522 38.7018 88.7742 36.7684 87.2357 34.9744L66.8048 55.4053C64.3411 57.869 64.3411 61.8634 66.8048 64.3271L87.4176 84.9399C88.9504 83.1285 90.3167 81.1738 91.4972 79.0973L70.1741 61.7705L96.3741 63.433C96.4709 62.3202 96.529 61.1977 96.529 60.0617L96.5329 60.0636Z" fill="#BBD6FF"/>
<path id="Vector_4" d="M53.7571 68.4531L32.9043 89.306C34.6906 90.8387 36.6162 92.2108 38.6618 93.3991H38.7799L56.3117 71.8244L54.6222 98.4483C55.7331 98.5451 56.8575 98.6031 57.9935 98.6031C59.2824 98.6031 60.5558 98.5373 61.8118 98.4135L60.1242 71.8225L77.5496 93.2694C79.6049 92.056 81.5344 90.6568 83.3226 89.0969L62.6788 68.4531C60.2152 65.9895 56.2207 65.9895 53.7571 68.4531Z" fill="#BBD6FF"/>
<path id="Vector_5" d="M49.1851 55.4054L28.7542 34.9744C27.2156 36.7665 25.8377 38.7018 24.6456 40.759L45.8138 57.9599L19.6428 56.2995C19.5228 57.538 19.457 58.7941 19.457 60.0636C19.457 61.1996 19.517 62.324 19.6119 63.4349L45.8138 61.7725L24.4907 79.0992C25.6732 81.1738 27.0376 83.1304 28.5703 84.9419L49.1832 64.329C51.6468 61.8654 51.6468 57.8709 49.1832 55.4073L49.1851 55.4054Z" fill="#BBD6FF"/>
</g>
</svg>
