<svg width="167" height="145" viewBox="0 0 167 145" fill="none" xmlns="http://www.w3.org/2000/svg">
<path d="M5.71408 143L5.71408 97.953L36.4236 51.1622L36.4236 15.3183L25.3798 15.3183L25.3798 49.0309L5.71408 49.0309L5.71408 20.3558C5.71408 7.56827 13.561 0.496374 30.9017 0.496374C48.2424 0.496374 55.9924 7.56827 55.9924 20.3558L55.9924 55.5216L25.3798 102.409L25.3798 128.372H55.9924V143H5.71408ZM60.3609 88.6529V73.6373H83.4172V88.6529H60.3609ZM112.929 144.066C95.6855 144.066 87.8386 136.994 87.8386 124.109V91.3654H107.504V129.244H118.548V54.2622L107.504 54.2622V69.956H87.8386L87.8386 1.56201L138.117 1.56201V16.0933L107.504 16.1902L107.504 47.4809C110.314 41.5715 115.254 38.2778 122.714 38.2778C132.983 38.2778 138.117 45.3497 138.117 55.6184L138.117 124.109C138.117 136.994 130.27 144.066 112.929 144.066Z" fill="#031A35"/>
<path d="M162.71 130.372L156.205 134.471C155.403 134.976 152.196 136.788 152.196 136.788L152.225 136.877C152.225 136.877 155.819 136.58 156.829 136.58L165.977 136.58L165.977 140.738L146.433 140.738L146.433 136.372L156.502 130.016L156.502 129.957L146.433 123.6L146.433 119.234L165.977 119.234L165.977 123.392L156.829 123.392C155.819 123.392 152.225 123.125 152.225 123.125L152.196 123.214C152.196 123.214 155.403 124.996 156.205 125.501L162.71 129.6L162.71 130.372ZM146.433 115.14L146.433 110.982L165.977 110.982L165.977 115.14L146.433 115.14ZM155.285 92.5115L146.433 92.5115L146.433 88.3532L165.977 88.3532L165.977 92.2442L152.909 102.937L152.909 102.996C152.909 102.996 155.908 102.729 157.394 102.729L165.977 102.729L165.977 106.887L146.433 106.887L146.433 102.937L159.443 92.3036L159.443 92.2442C159.443 92.2442 156.413 92.5115 155.285 92.5115ZM166.334 77.7131C166.334 80.8319 165.74 83.3862 164.76 85.3763L161.344 84.4852C162.057 82.9407 162.859 80.4457 162.859 78.0399C162.859 75.0103 161.611 73.7034 160.037 73.7034C159.294 73.7034 158.7 74.0598 158.344 74.7429C157.988 75.4261 157.75 76.8815 157.542 78.6042C157.334 80.5348 156.978 82.0496 156.324 83.208C155.344 84.9604 153.681 85.6139 152.017 85.6139C148.572 85.6139 146.077 82.4358 146.077 77.7131C146.077 74.9508 146.641 72.6044 147.473 70.7926L150.77 71.743C150.176 73.1687 149.582 75.5152 149.582 77.5943C149.582 80.5348 150.829 81.4556 152.017 81.4556C152.641 81.4556 153.235 81.218 153.651 80.3863C154.007 79.5844 154.156 78.3072 154.394 76.6439C154.631 74.832 154.988 73.1687 155.582 72.1292C156.532 70.4361 158.047 69.6342 160.007 69.6342C163.572 69.6342 166.334 72.3668 166.334 77.7131Z" fill="#031A35"/>
</svg>
