<svg width="141" height="145" viewBox="0 0 141 145" fill="none" xmlns="http://www.w3.org/2000/svg">
<path d="M5.45826 143L5.45826 97.953L36.1677 51.1622L36.1677 15.3183L25.124 15.3183L25.124 49.0309L5.45826 49.0309L5.45826 20.3558C5.45826 7.56827 13.3052 0.496374 30.6459 0.496374C47.9865 0.496374 55.7366 7.56827 55.7366 20.3558L55.7366 55.5216L25.124 102.409L25.124 128.372H55.7366V143H5.45826ZM87.327 144.066C69.5988 144.066 61.7519 136.994 61.7519 124.012L61.7519 20.3558C61.7519 7.56827 69.5988 0.496374 87.327 0.496374C104.765 0.496374 112.708 7.56827 112.708 20.3558L112.708 124.012C112.708 136.994 104.765 144.066 87.327 144.066ZM81.4176 129.244H93.0427L93.0427 15.3183L81.4176 15.3183L81.4176 129.244Z" fill="white"/>
<path d="M136.887 130.372L130.383 134.471C129.581 134.976 126.373 136.788 126.373 136.788L126.403 136.877C126.403 136.877 129.997 136.58 131.006 136.58L140.155 136.58L140.155 140.738L120.611 140.738L120.611 136.372L130.68 130.016L130.68 129.957L120.611 123.6L120.611 119.234L140.155 119.234L140.155 123.392L131.006 123.392C129.997 123.392 126.403 123.125 126.403 123.125L126.373 123.214C126.373 123.214 129.581 124.996 130.383 125.501L136.887 129.6L136.887 130.372ZM120.611 115.14L120.611 110.982L140.155 110.982L140.155 115.14L120.611 115.14ZM129.462 92.5115L120.611 92.5115L120.611 88.3532L140.155 88.3532L140.155 92.2442L127.086 102.937L127.086 102.996C127.086 102.996 130.086 102.729 131.571 102.729L140.155 102.729L140.155 106.887L120.611 106.887L120.611 102.937L133.62 92.3036L133.62 92.2442C133.62 92.2442 130.591 92.5115 129.462 92.5115ZM140.511 77.7131C140.511 80.8319 139.917 83.3862 138.937 85.3763L135.521 84.4852C136.234 82.9407 137.036 80.4457 137.036 78.0399C137.036 75.0103 135.788 73.7034 134.214 73.7034C133.472 73.7034 132.878 74.0598 132.521 74.7429C132.165 75.4261 131.927 76.8815 131.719 78.6042C131.511 80.5348 131.155 82.0496 130.501 83.208C129.521 84.9604 127.858 85.6139 126.195 85.6139C122.749 85.6139 120.254 82.4358 120.254 77.7131C120.254 74.9508 120.819 72.6044 121.65 70.7926L124.947 71.743C124.353 73.1687 123.759 75.5152 123.759 77.5943C123.759 80.5348 125.007 81.4556 126.195 81.4556C126.818 81.4556 127.412 81.218 127.828 80.3863C128.185 79.5844 128.333 78.3072 128.571 76.6439C128.808 74.832 129.165 73.1687 129.759 72.1292C130.709 70.4361 132.224 69.6342 134.185 69.6342C137.749 69.6342 140.511 72.3668 140.511 77.7131Z" fill="white"/>
</svg>
