<svg width="317" height="332" viewBox="0 0 317 332" fill="none" xmlns="http://www.w3.org/2000/svg">
<path d="M158.492 21.8081C173.522 21.8081 188.551 25.6954 201.953 33.4752L294.417 87.1309V244.874L201.953 298.53C188.551 306.31 173.522 310.197 158.492 310.197C143.462 310.197 128.438 306.31 115.031 298.53L22.5672 244.874V87.1309L115.031 33.4752C128.433 25.6954 143.462 21.8081 158.492 21.8081ZM158.497 0C139.372 0 120.562 5.05448 104.092 14.6119L11.6337 68.2676L0.769775 74.5696V257.43L11.6337 263.732L104.097 317.388C120.573 326.946 139.382 332 158.503 332C177.623 332 196.433 326.946 212.908 317.388L305.366 263.732L316.23 257.43V74.5696L305.366 68.2676L212.903 14.6119C196.427 5.05448 177.618 0 158.497 0Z" fill="#FF5B00"/>
<path d="M191.568 90.9826C190.91 88.0163 188.907 78.9836 176.967 61.7587C172.946 55.9546 168.534 50.2897 163.849 44.914L158.495 38.778L153.14 44.9194C148.455 50.2897 144.038 55.96 140.017 61.7641C128.082 78.9836 126.074 88.0217 125.416 90.9879C124.479 95.1964 124.066 97.6648 124.066 101.167C124.066 110.917 127.606 120.099 134.036 127.023C140.552 134.031 149.237 137.897 158.495 137.897C167.752 137.897 176.432 134.037 182.948 127.023C189.378 120.099 192.918 110.917 192.918 101.167C192.918 97.6648 192.5 95.1964 191.563 90.9879L191.568 90.9826ZM152.337 92.9851C147.963 99.2979 145.291 104.54 144.397 108.572C143.904 110.788 143.733 111.838 143.733 113.326C143.733 114.301 143.818 115.27 143.979 116.218C140.461 112.207 138.464 106.874 138.464 101.156C138.464 99.0837 138.71 97.622 139.455 94.2862C140.799 88.2412 144.927 80.199 151.738 70.3738C153.874 67.2897 156.144 64.2324 158.5 61.2661C160.861 64.2431 163.132 67.3004 165.257 70.3792C172.068 80.2043 176.196 88.2465 177.54 94.2969C178.284 97.6327 178.531 99.0944 178.531 101.167C178.531 106.885 176.533 112.218 173.016 116.228C173.182 115.281 173.262 114.311 173.262 113.332C173.262 111.843 173.085 110.794 172.593 108.577C171.698 104.545 169.027 99.3032 164.652 92.9905C163.089 90.7363 161.413 88.4982 159.662 86.3404L158.495 84.9001L157.327 86.3404C155.582 88.4982 153.901 90.7363 152.337 92.9905V92.9851Z" fill="#FF5B00"/>
<path d="M265.119 164.792C265.119 161.274 264.937 157.804 264.605 154.377L192.198 158.971L250.764 111.382C247.466 105.691 243.653 100.342 239.397 95.3781L182.871 151.904C176.055 158.72 176.055 169.771 182.871 176.587L239.9 233.616C244.141 228.604 247.921 223.196 251.187 217.451L192.193 169.514L264.68 174.113C264.947 171.035 265.108 167.929 265.108 164.786L265.119 164.792Z" fill="#031A35"/>
<path d="M146.77 188.004L89.0768 245.697C94.0188 249.937 99.3464 253.733 105.006 257.021H105.332L153.837 197.331L149.163 270.99C152.236 271.258 155.347 271.419 158.49 271.419C162.056 271.419 165.579 271.237 169.054 270.894L164.385 197.326L212.596 256.662C218.282 253.305 223.62 249.434 228.568 245.118L171.453 188.004C164.637 181.188 153.586 181.188 146.77 188.004Z" fill="#031A35"/>
<path d="M134.112 151.904L77.5868 95.3781C73.3301 100.336 69.5178 105.691 66.2196 111.382L124.785 158.971L52.3787 154.377C52.0467 157.804 51.8646 161.279 51.8646 164.792C51.8646 167.935 52.0306 171.045 52.293 174.119L124.785 169.519L65.7912 217.457C69.0627 223.197 72.8375 228.61 77.0781 233.621L134.107 176.592C140.923 169.776 140.923 158.725 134.107 151.909L134.112 151.904Z" fill="#031A35"/>
</svg>
