<svg width="115" height="120" viewBox="0 0 115 120" fill="none" xmlns="http://www.w3.org/2000/svg">
<path d="M57.01 7.88C62.44 7.88 67.87 9.29 72.72 12.1L106.14 31.49V88.51L72.72 107.9C67.88 110.71 62.44 112.12 57.01 112.12C51.58 112.12 46.15 110.71 41.3 107.9L7.88 88.51V31.49L41.3 12.1C46.14 9.29 51.58 7.88 57.01 7.88ZM57.01 0C50.1 0 43.3 1.83 37.35 5.28L3.93 24.67L0 26.95V93.04L3.93 95.32L37.35 114.71C43.3 118.17 50.1 120 57.01 120C63.92 120 70.72 118.17 76.67 114.72L110.09 95.33L114.02 93.05V26.95L110.09 24.67L76.67 5.28C70.72 1.83 63.92 0 57.01 0Z" fill="#636161"/>
<path d="M68.8495 33.4301C68.6095 32.3601 67.8895 29.0901 63.5695 22.8701C62.1195 20.7701 60.5195 18.7201 58.8295 16.7801L56.8895 14.5601L54.9495 16.7801C53.2595 18.7201 51.6595 20.7701 50.2095 22.8701C45.8995 29.0901 45.1695 32.3601 44.9295 33.4301C44.5895 34.9501 44.4395 35.8401 44.4395 37.1101C44.4395 40.6301 45.7195 43.9501 48.0395 46.4601C50.3995 48.9901 53.5295 50.3901 56.8795 50.3901C60.2295 50.3901 63.3595 48.9901 65.7195 46.4601C68.0395 43.9601 69.3195 40.6401 69.3195 37.1101C69.3295 35.8401 69.1795 34.9501 68.8495 33.4301ZM54.6695 34.1501C53.0895 36.4301 52.1195 38.3301 51.7995 39.7801C51.6195 40.5801 51.5595 40.9601 51.5595 41.5001C51.5595 41.8501 51.5895 42.2001 51.6495 42.5501C50.3795 41.1001 49.6595 39.1701 49.6595 37.1101C49.6595 36.3601 49.7495 35.8301 50.0195 34.6301C50.5095 32.4501 51.9995 29.5401 54.4595 25.9901C55.2295 24.8801 56.0495 23.7701 56.8995 22.7001C57.7495 23.7801 58.5695 24.8801 59.3395 25.9901C61.7995 29.5401 63.2895 32.4501 63.7795 34.6301C64.0495 35.8401 64.1395 36.3601 64.1395 37.1101C64.1395 39.1801 63.4195 41.1001 62.1495 42.5501C62.2095 42.2101 62.2395 41.8601 62.2395 41.5001C62.2395 40.9601 62.1795 40.5801 61.9995 39.7801C61.6795 38.3201 60.7095 36.4301 59.1295 34.1501C58.5595 33.3401 57.9595 32.5301 57.3295 31.7501L56.9095 31.2301L56.4895 31.7501C55.8395 32.5301 55.2295 33.3401 54.6695 34.1501Z" fill="url(#paint0_linear_646_130)"/>
<path d="M95.4305 60.11C95.4305 58.84 95.3605 57.58 95.2405 56.35L69.0705 58L90.2405 40.8C89.0505 38.74 87.6705 36.81 86.1305 35.02L65.7005 55.45C63.2405 57.91 63.2405 61.91 65.7005 64.37L86.3105 84.98C87.8405 83.17 89.2105 81.21 90.3905 79.14L69.0705 61.81L95.2705 63.47C95.3705 62.36 95.4305 61.24 95.4305 60.11Z" fill="#BBD6FF"/>
<path d="M52.6508 68.5L31.8008 89.35C33.5908 90.88 35.5108 92.25 37.5608 93.44H37.6808L55.2108 71.87L53.5208 98.49C54.6308 98.59 55.7608 98.64 56.8908 98.64C58.1808 98.64 59.4508 98.57 60.7108 98.45L59.0208 71.86L76.4508 93.31C78.5108 92.1 80.4308 90.7 82.2208 89.14L61.5808 68.5C59.1108 66.03 55.1208 66.03 52.6508 68.5Z" fill="#BBD6FF"/>
<path d="M48.0796 64.55L27.6496 84.98C26.1096 83.19 24.7296 81.25 23.5396 79.2L44.7096 62L18.5396 63.66C18.4196 62.42 18.3496 61.17 18.3496 59.9C18.3496 58.76 18.4096 57.64 18.4996 56.53L44.6996 58.19L23.3796 40.86C24.5596 38.79 25.9296 36.83 27.4596 35.02L48.0696 55.63C50.5396 58.09 50.5396 62.09 48.0796 64.55Z" fill="#BBD6FF"/>
<defs>
<linearGradient id="paint0_linear_646_130" x1="67.5" y1="36" x2="71" y2="36" gradientUnits="userSpaceOnUse">
<stop stop-color="#FF5B00"/>
<stop offset="1" stop-color="#CCCCCC"/>
</linearGradient>
</defs>
</svg>
